<svg width="24" height="24" viewBox="0 0 24 24" fill="currentColor" xmlns="http://www.w3.org/2000/svg">
<g clip-path="url(#clip0_675_7194)">
<path d="M21.496 9.77772L18.566 12.7077C18.1841 13.0892 17.6663 13.3035 17.1264 13.3035C16.5866 13.3035 16.0688 13.0892 15.6868 12.7077C15.594 12.6149 15.5203 12.5046 15.47 12.3833C15.4198 12.2619 15.3939 12.1319 15.3939 12.0005C15.3939 11.8692 15.4198 11.7391 15.47 11.6178C15.5203 11.4964 15.594 11.3862 15.6868 11.2933C15.8744 11.1058 16.1288 11.0004 16.394 11.0004C16.5254 11.0004 16.6554 11.0263 16.7768 11.0765C16.8981 11.1268 17.0084 11.2005 17.1012 11.2933L20.0812 8.36382C20.6708 7.77438 21.002 6.97489 21.002 6.14123C21.0021 5.30758 20.671 4.50805 20.0815 3.91852C19.4921 3.329 18.6926 2.99778 17.8589 2.99772C17.0253 2.99766 16.2258 3.32878 15.6362 3.91822L12.7062 6.84872C12.8942 7.04127 12.9994 7.29966 12.9994 7.56872C12.9994 7.83778 12.8942 8.09618 12.7062 8.28872C12.615 8.38323 12.506 8.45883 12.3855 8.5112C12.2651 8.56358 12.1354 8.5917 12.0041 8.59397C11.8727 8.59624 11.7422 8.5726 11.62 8.52441C11.4978 8.47622 11.3863 8.40442 11.2918 8.31312C10.9106 7.93109 10.6966 7.41345 10.6966 6.87377C10.6966 6.33409 10.9106 5.81645 11.2918 5.43442L14.2218 2.50442C15.1865 1.53983 16.4948 0.997948 17.859 0.997986C19.2231 0.998023 20.5314 1.53998 21.496 2.50462C22.4606 3.46927 23.0025 4.77759 23.0025 6.14176C23.0024 7.50594 22.4605 8.81423 21.4958 9.77882L21.496 9.77772ZM11.2925 15.7119C11.1045 15.9044 10.9993 16.1628 10.9993 16.4319C10.9993 16.701 11.1045 16.9594 11.2925 17.1519L8.36253 20.0819C7.77208 20.6669 6.974 20.9942 6.14286 20.9922C5.31173 20.9902 4.5152 20.6592 3.92753 20.0714C3.33986 19.4837 3.00889 18.6871 3.00701 17.856C3.00514 17.0249 3.33252 16.2268 3.91753 15.6364L6.89753 12.7069C7.08509 12.8945 7.33948 12.9999 7.60473 12.9999C7.86998 12.9999 8.12437 12.8945 8.31193 12.7069C8.49949 12.5194 8.60486 12.265 8.60486 11.9997C8.60486 11.7345 8.49949 11.4801 8.31193 11.2925C7.92968 10.9115 7.41201 10.6976 6.87233 10.6976C6.33265 10.6976 5.81498 10.9115 5.43273 11.2925L2.50273 14.2219C1.53808 15.1865 0.996131 16.4948 0.996094 17.859C0.996056 19.2232 1.53794 20.5315 2.50253 21.4961C3.46712 22.4608 4.77541 23.0027 6.13959 23.0028C7.50377 23.0028 8.81209 22.4609 9.77673 21.4963L12.7067 18.5663C13.0879 18.1843 13.302 17.6667 13.302 17.127C13.302 16.5873 13.0879 16.0697 12.7067 15.6876C12.5159 15.5035 12.2597 15.4027 11.9946 15.4073C11.7295 15.4118 11.477 15.5214 11.2925 15.7119ZM7.63033 16.3693C7.72319 16.4622 7.83345 16.5359 7.9548 16.5862C8.07616 16.6365 8.20622 16.6624 8.33758 16.6624C8.46894 16.6624 8.599 16.6365 8.72036 16.5862C8.84171 16.5359 8.95197 16.4622 9.04483 16.3693L16.3691 9.04512C16.462 8.95224 16.5357 8.84198 16.5859 8.72064C16.6362 8.59929 16.6621 8.46923 16.662 8.33789C16.662 8.20654 16.6362 8.07649 16.5859 7.95514C16.5356 7.8338 16.462 7.72354 16.3691 7.63067C16.2762 7.5378 16.1659 7.46413 16.0446 7.41387C15.9232 7.36362 15.7932 7.33775 15.6618 7.33775C15.5305 7.33776 15.4004 7.36363 15.2791 7.4139C15.1578 7.46417 15.0475 7.53784 14.9546 7.63072L7.63033 14.9549C7.53744 15.0478 7.46376 15.158 7.41349 15.2794C7.36322 15.4007 7.33734 15.5308 7.33734 15.6621C7.33734 15.7935 7.36322 15.9235 7.41349 16.0449C7.46376 16.1662 7.53744 16.2765 7.63033 16.3693Z" fill="currentColor"/>
</g>
<defs>
<clipPath id="clip0_675_7194">
<rect width="24" height="24" fill="currentColor"/>
</clipPath>
</defs>
</svg>
