<svg width="25" height="24" viewBox="0 0 25 24" fill="currentColor" xmlns="http://www.w3.org/2000/svg">
<path d="M15.9772 9.24553L11.1643 13.775L9.05249 11.6069C8.96808 11.5201 8.86787 11.4513 8.75756 11.4044C8.64726 11.3574 8.52903 11.3332 8.40961 11.3332C8.16846 11.3331 7.93714 11.4314 7.76655 11.6064C7.59597 11.7814 7.50009 12.0188 7.5 12.2664C7.49991 12.514 7.59563 12.7515 7.7661 12.9266L10.4934 15.7266C10.6591 15.8967 10.8823 15.9946 11.1166 15.9998C11.3509 16.005 11.578 15.9172 11.7507 15.7546L17.2054 10.6213C17.3831 10.4539 17.4888 10.221 17.4992 9.97366C17.5096 9.72633 17.4238 9.4849 17.2608 9.30247C17.0978 9.12003 16.8709 9.01155 16.63 9.00087C16.3891 8.99019 16.154 9.0782 15.9763 9.24553H15.9772Z" fill="#F5FAFF"/>
<path d="M12.5 2C10.5222 2 8.58879 2.58649 6.9443 3.6853C5.29981 4.78412 4.01809 6.3459 3.26121 8.17317C2.50433 10.0004 2.3063 12.0111 2.69215 13.9509C3.078 15.8907 4.03041 17.6725 5.42894 19.0711C6.82746 20.4696 8.60929 21.422 10.5491 21.8079C12.4889 22.1937 14.4996 21.9957 16.3268 21.2388C18.1541 20.4819 19.7159 19.2002 20.8147 17.5557C21.9135 15.9112 22.5 13.9778 22.5 12C22.4971 9.34874 21.4425 6.80691 19.5678 4.93219C17.6931 3.05746 15.1513 2.00295 12.5 2ZM12.5 20C10.9178 20 9.37104 19.5308 8.05544 18.6518C6.73985 17.7727 5.71447 16.5233 5.10897 15.0615C4.50347 13.5997 4.34504 11.9911 4.65372 10.4393C4.9624 8.88743 5.72433 7.46197 6.84315 6.34315C7.96197 5.22433 9.38743 4.4624 10.9393 4.15372C12.4911 3.84504 14.0997 4.00346 15.5615 4.60896C17.0233 5.21447 18.2727 6.23984 19.1518 7.55544C20.0308 8.87103 20.5 10.4177 20.5 12C20.4976 14.121 19.6539 16.1544 18.1542 17.6542C16.6544 19.1539 14.621 19.9976 12.5 20Z" fill="currentColor"/>
</svg>
