<svg width="226" height="41" viewBox="0 0 226 41" fill="none" xmlns="http://www.w3.org/2000/svg">
<path d="M25.3831 30.2337L22.3177 27.1308C21.1588 28.215 19.9626 29.0748 18.7663 29.7103C17.57 30.3458 16.1495 30.6822 14.4672 30.6822C13.1588 30.6822 11.9626 30.4206 10.8785 29.9346C9.75696 29.4112 8.82238 28.7383 7.99995 27.8411C7.17752 26.9439 6.57939 25.9346 6.13079 24.7383C5.68219 23.5421 5.45789 22.3084 5.45789 20.9252C5.45789 19.5794 5.68219 18.3084 6.13079 17.1495C6.57939 15.9907 7.17752 14.9813 7.99995 14.0841C8.82238 13.2243 9.75696 12.514 10.8785 12.028C11.9999 11.5047 13.1962 11.2804 14.4672 11.2804C16.0373 11.2804 17.4205 11.5794 18.6168 12.215C19.8504 12.8505 21.0093 13.6729 22.0934 14.6822L25.1588 11.1308C24.5233 10.4953 23.813 9.93458 23.1027 9.41122C22.3925 8.88785 21.57 8.43925 20.7102 8.06542C19.8504 7.69159 18.9158 7.39253 17.8691 7.20561C16.8598 6.98131 15.7009 6.90654 14.4672 6.90654C12.3738 6.90654 10.5046 7.28037 8.78499 8.02804C7.06537 8.7757 5.60742 9.78505 4.3364 11.0561C3.10275 12.3271 2.13079 13.8224 1.42051 15.5421C0.747611 17.2617 0.373779 19.0935 0.373779 21.0374C0.373779 23.0187 0.710228 24.8505 1.42051 26.5701C2.13079 28.2897 3.10275 29.785 4.3364 31.0187C5.57004 32.2897 7.02798 33.2617 8.71023 34.0093C10.3925 34.757 12.2242 35.0935 14.2429 35.0935C15.514 35.0935 16.6728 34.9813 17.7196 34.757C18.7663 34.5327 19.7383 34.1963 20.6355 33.7851C21.5327 33.3738 22.3551 32.8505 23.1027 32.2523C23.9252 31.6542 24.6728 30.9813 25.3831 30.2337Z" fill="white"/>
<path d="M87.1775 14.5701C87.1775 13.6729 87.5513 12.8879 88.3364 12.2523C89.1214 11.6168 90.2055 11.3178 91.5887 11.3178C92.8223 11.3178 94.056 11.5421 95.2523 12.028C96.4485 12.514 97.6822 13.1869 98.9158 14.1215L101.458 10.4953C100.075 9.37383 98.5794 8.55141 96.9719 7.95328C95.4018 7.35514 93.6074 7.09346 91.6261 7.09346C90.2803 7.09346 89.0467 7.28037 87.9252 7.6542C86.8037 8.02804 85.8317 8.55141 85.0093 9.26169C84.1868 9.97197 83.5513 10.7944 83.1027 11.7664C82.6541 12.7383 82.4298 13.8224 82.4298 15.0187C82.4298 16.2897 82.6167 17.3738 83.028 18.2336C83.4392 19.1308 83.9999 19.8785 84.785 20.4766C85.5326 21.1122 86.5046 21.5981 87.6261 22.0467C88.7476 22.4579 90.056 22.8318 91.4766 23.1682C92.7476 23.4673 93.7569 23.7664 94.5794 24.0654C95.3644 24.3645 95.9999 24.6636 96.4485 24.9626C96.8971 25.2991 97.1962 25.6355 97.3831 26.0467C97.5326 26.4206 97.6448 26.8692 97.6448 27.3551C97.6448 28.4019 97.1962 29.2617 96.3364 29.8972C95.4766 30.5327 94.3177 30.8318 92.8224 30.8318C91.1027 30.8318 89.6074 30.5327 88.2616 29.9346C86.9158 29.3364 85.6074 28.4393 84.2616 27.3178L81.3831 30.7196C83.028 32.1776 84.785 33.2991 86.6915 34.0093C88.5981 34.7196 90.6167 35.0935 92.7102 35.0935C94.1308 35.0935 95.4392 34.9065 96.6354 34.5327C97.8317 34.1589 98.841 33.6355 99.6635 32.9252C100.523 32.215 101.159 31.3551 101.645 30.3458C102.131 29.3364 102.355 28.1776 102.355 26.9065C102.355 25.785 102.168 24.7757 101.794 23.9533C101.42 23.0935 100.86 22.3832 100.149 21.7477C99.4392 21.1122 98.5046 20.5888 97.4205 20.1402C96.3364 19.6916 95.0653 19.2804 93.6448 18.9439C92.3364 18.6449 91.2896 18.3458 90.4298 18.0467C89.6074 17.7477 88.9345 17.4486 88.4485 17.1122C87.9625 16.7757 87.6261 16.4019 87.4766 16.028C87.2523 15.5794 87.1775 15.1308 87.1775 14.5701Z" fill="white"/>
<path d="M140.187 14.9439V34.3832H144.897V7.28037H139.813L131.551 20.1028L123.29 7.28037H118.206V34.3832H122.953V15.0187L131.439 27.729H131.589L140.187 14.9439Z" fill="white"/>
<path d="M184.673 21C184.673 22.3084 184.449 23.5794 184 24.7757C183.551 25.972 182.916 26.9813 182.131 27.8411C181.346 28.7009 180.374 29.4112 179.252 29.8972C178.131 30.4206 176.897 30.6449 175.551 30.6449C174.206 30.6449 172.972 30.3832 171.813 29.8598C170.691 29.3365 169.682 28.6262 168.897 27.7664C168.075 26.8692 167.439 25.8598 166.991 24.6635C166.542 23.4673 166.318 22.2337 166.318 20.8879C166.318 19.5794 166.542 18.3084 166.991 17.1122C167.439 15.9159 168.075 14.9065 168.86 14.0467C169.645 13.1869 170.617 12.4766 171.738 11.9907C172.86 11.4673 174.093 11.243 175.439 11.243C176.785 11.243 178.019 11.5047 179.177 12.028C180.299 12.5514 181.308 13.2617 182.093 14.1215C182.916 15.0187 183.551 16.028 184 17.2243C184.449 18.4206 184.673 19.6542 184.673 21ZM189.682 20.9252C189.682 19.0187 189.346 17.1869 188.635 15.4673C187.925 13.7477 186.953 12.2523 185.72 10.9813C184.486 9.71029 182.991 8.70094 181.234 7.95328C179.514 7.20561 177.57 6.83178 175.477 6.83178C173.383 6.83178 171.477 7.20561 169.72 7.95328C168 8.70094 166.467 9.71028 165.196 11.0187C163.925 12.2897 162.953 13.785 162.243 15.5047C161.533 17.2243 161.196 19.0187 161.196 20.9626C161.196 22.8692 161.533 24.7009 162.243 26.4206C162.953 28.1402 163.925 29.6355 165.159 30.9065C166.392 32.1776 167.888 33.1869 169.645 33.9346C171.364 34.6822 173.308 35.0561 175.402 35.0561C177.495 35.0561 179.402 34.6822 181.159 33.9346C182.878 33.1869 184.411 32.1776 185.682 30.8692C186.953 29.5981 187.925 28.1028 188.635 26.3832C189.346 24.6635 189.682 22.8318 189.682 20.9252Z" fill="white"/>
<path d="M209.57 14.5701C209.57 13.6729 209.944 12.8879 210.729 12.2523C211.514 11.6168 212.598 11.3178 213.981 11.3178C215.215 11.3178 216.449 11.5421 217.645 12.028C218.841 12.514 220.075 13.1869 221.308 14.1215L223.85 10.4953C222.467 9.37383 220.972 8.55141 219.364 7.95328C217.794 7.35514 216 7.09346 214.019 7.09346C212.673 7.09346 211.439 7.28037 210.318 7.6542C209.196 8.02804 208.224 8.55141 207.402 9.26169C206.579 9.97197 205.981 10.7944 205.495 11.7664C205.047 12.7383 204.822 13.8224 204.822 15.0187C204.822 16.2897 205.009 17.3738 205.421 18.2336C205.832 19.1308 206.392 19.8785 207.178 20.4766C207.925 21.1122 208.897 21.5981 210.019 22.0467C211.14 22.4579 212.449 22.8318 213.869 23.1682C215.14 23.4673 216.149 23.7664 216.972 24.0654C217.757 24.3645 218.392 24.6636 218.841 24.9626C219.29 25.2991 219.589 25.6355 219.776 26.0467C219.925 26.4206 220.037 26.8692 220.037 27.3551C220.037 28.4019 219.589 29.2617 218.729 29.8972C217.869 30.5327 216.71 30.8318 215.215 30.8318C213.495 30.8318 212 30.5327 210.654 29.9346C209.308 29.3364 208 28.4393 206.654 27.3178L203.776 30.7196C205.383 32.1776 207.178 33.2991 209.084 34.0093C210.991 34.7196 213.009 35.0935 215.103 35.0935C216.523 35.0935 217.832 34.9065 219.028 34.5327C220.224 34.1589 221.234 33.6355 222.056 32.9252C222.916 32.215 223.551 31.3551 224.037 30.3458C224.523 29.3364 224.748 28.1776 224.748 26.9065C224.748 25.785 224.561 24.7757 224.187 23.9533C223.813 23.0935 223.252 22.3832 222.542 21.7477C221.832 21.1122 220.897 20.5888 219.813 20.1402C218.729 19.6916 217.458 19.2804 216.037 18.9439C214.729 18.6449 213.682 18.3458 212.822 18.0467C212 17.7477 211.327 17.4486 210.841 17.1122C210.355 16.7757 210.019 16.4019 209.869 16.028C209.645 15.5794 209.57 15.1308 209.57 14.5701Z" fill="white"/>
<path d="M57.8317 12.7383L44.8597 25.6729C44.7102 25.3365 44.5233 25 44.4111 24.6635C43.9625 23.5047 43.7382 22.2336 43.7382 20.9252C43.7382 19.6168 43.9625 18.3458 44.4111 17.1869C44.8597 16.028 45.4952 14.9813 46.2803 14.1215C47.0653 13.2617 48.0373 12.5888 49.1588 12.0654C50.2803 11.5794 51.5139 11.3178 52.8597 11.3178C54.2055 11.3178 55.4392 11.5794 56.598 12.1028C57.0466 12.2523 57.4579 12.4766 57.8317 12.7383ZM56.6728 29.8598C55.5513 30.3458 54.3177 30.6075 52.9719 30.6075C51.6261 30.6075 50.3924 30.3458 49.2336 29.8224C48.8223 29.6355 48.4111 29.4112 48.0373 29.1869L61.0093 16.2523C61.1588 16.5888 61.3457 16.9252 61.4579 17.2617C61.9064 18.4206 62.1307 19.6916 62.1307 21C62.1307 22.3084 61.9064 23.5794 61.4579 24.7383C61.0093 25.8972 60.3737 26.9439 59.5887 27.8037C58.7663 28.6636 57.8317 29.3365 56.6728 29.8598ZM58.6541 33.8598C60.3737 33.1121 61.9065 32.1028 63.1775 30.8318C64.4485 29.5607 65.4205 28.0654 66.1307 26.3458C66.841 24.6262 67.1775 22.8318 67.1775 20.9252C67.1775 19.0187 66.841 17.1869 66.1307 15.5047C65.7195 14.4953 65.1962 13.5607 64.598 12.7009L73.0466 4.28972L69.6822 0.925232L61.2336 9.37383C60.4859 8.85047 59.6635 8.40187 58.7663 8.02804C57.0466 7.28037 55.1027 6.90654 53.0093 6.90654C50.9158 6.90654 49.0093 7.28037 47.2522 8.02804C45.5326 8.7757 43.9999 9.78505 42.7289 11.0561C41.4579 12.3271 40.4859 13.8224 39.7756 15.5421C39.0653 17.2617 38.7289 19.0561 38.7289 20.9626C38.7289 22.8692 39.0653 24.7009 39.7756 26.3832C40.1868 27.3925 40.7102 28.3271 41.3083 29.1869L32.8597 37.6355L36.2242 41L44.6728 32.5514C45.4205 33.0748 46.2429 33.5234 47.1401 33.8972C48.8597 34.6449 50.8036 35.0187 52.8971 35.0187C54.9906 34.9813 56.8971 34.6075 58.6541 33.8598Z" fill="white"/>
</svg>
