<svg width="24" height="24" viewBox="0 0 24 24" fill="currentColor" xmlns="http://www.w3.org/2000/svg">
<path d="M21 5H3C2.73478 5 2.48043 5.10536 2.29289 5.29289C2.10536 5.48043 2 5.73478 2 6V18C2 18.2652 2.10536 18.5196 2.29289 18.7071C2.48043 18.8946 2.73478 19 3 19H21C21.2652 19 21.5196 18.8946 21.7071 18.7071C21.8946 18.5196 22 18.2652 22 18V6C22 5.73478 21.8946 5.48043 21.7071 5.29289C21.5196 5.10536 21.2652 5 21 5ZM19.2 7L12 11.8L4.8 7H19.2ZM4 17V8.87L11.45 13.87C11.6133 13.9775 11.8045 14.0348 12 14.0348C12.1955 14.0348 12.3867 13.9775 12.55 13.87L20 8.87V17H4Z" fill="currentColor"/>
</svg>
