<svg width="24" height="24" viewBox="0 0 24 24" fill="currentColor" xmlns="http://www.w3.org/2000/svg">
<path fill-rule="evenodd" clip-rule="evenodd" d="M21.75 12C21.75 17.3813 17.3813 21.75 12 21.75C6.61875 21.75 2.25 17.3813 2.25 12C2.25 6.61875 6.61875 2.25 12 2.25C17.3813 2.25 21.75 6.61875 21.75 12ZM14.6479 15.75H9.35213C9.60225 16.9991 9.975 18.0773 10.4381 18.8921C10.8945 19.6954 11.391 20.25 12 20.25C12.609 20.25 13.1055 19.6954 13.5619 18.8921C14.025 18.0773 14.3977 16.9991 14.6479 15.75ZM7.82963 15.75H4.65075C5.59987 17.6047 7.23075 19.0541 9.2115 19.7659C9.18525 19.7224 9.15938 19.6781 9.13387 19.6331C8.571 18.6427 8.11538 17.3044 7.82963 15.75ZM19.3493 15.75H16.1704C15.8846 17.3044 15.429 18.6427 14.8661 19.6331C14.8406 19.6781 14.8147 19.7224 14.7889 19.7659C16.7696 19.0537 18.4001 17.6047 19.3493 15.75ZM7.61513 9.75H4.06125C3.85838 10.4655 3.75 11.22 3.75 12C3.75 12.78 3.85838 13.5345 4.06125 14.25H7.61513C7.54013 13.5289 7.5 12.7755 7.5 12C7.5 11.2245 7.54013 10.4711 7.61513 9.75ZM14.8785 9.75H9.1215C9.042 10.467 9 11.2215 9 12C9 12.7785 9.042 13.533 9.1215 14.25H14.8785C14.958 13.533 15 12.7785 15 12C15 11.2215 14.958 10.467 14.8785 9.75ZM19.9388 9.75H16.3849C16.4599 10.4711 16.5 11.2245 16.5 12C16.5 12.7755 16.4599 13.5289 16.3849 14.25H19.9388C20.1416 13.5345 20.25 12.7796 20.25 12C20.25 11.2204 20.1416 10.4659 19.9388 9.75ZM9.2115 4.23413C7.23038 4.94625 5.5995 6.39563 4.65075 8.25H7.82963C8.11538 6.69562 8.571 5.35725 9.13387 4.36688C9.15938 4.32188 9.18525 4.27763 9.2115 4.23413ZM14.6479 8.25C14.3977 7.00087 14.025 5.92275 13.5619 5.10788C13.1055 4.30463 12.609 3.75 12 3.75C11.391 3.75 10.8945 4.30463 10.4381 5.10788C9.975 5.92275 9.60225 7.00087 9.35213 8.25H14.6479ZM14.7889 4.23413C14.8147 4.27763 14.8406 4.32188 14.8661 4.36688C15.429 5.35725 15.8846 6.69562 16.1704 8.25H19.3493C18.4001 6.39525 16.7696 4.94663 14.7889 4.23413Z" fill="currentColor"/>
</svg>
