<svg width="55" height="54" viewBox="0 0 55 54" fill="currentColor" xmlns="http://www.w3.org/2000/svg">
<path d="M53.6554 49.2353L41.0422 36.5294C43.9703 32.6723 45.7722 27.9076 45.7722 22.6891C45.7722 10.2101 35.6366 0 23.2487 0C10.8608 0 0.5 10.2101 0.5 22.6891C0.5 35.1681 10.6356 45.3782 23.0235 45.3782C28.2039 45.3782 33.159 43.563 36.988 40.3866L49.6011 53.0924C50.0516 53.5462 50.9526 54 51.6283 54C52.304 54 52.9797 53.7731 53.6554 53.0924C54.7815 52.1849 54.7815 50.3697 53.6554 49.2353ZM6.13087 22.6891C6.13087 13.3866 13.7888 5.67227 23.0235 5.67227C32.2581 5.67227 39.9161 13.3866 39.9161 22.6891C39.9161 31.9916 32.2581 39.7059 23.0235 39.7059C13.7888 39.7059 6.13087 32.2185 6.13087 22.6891Z" fill="currentColor"/>
</svg>
