<svg width="24" height="24" viewBox="0 0 24 24" fill="currentColor" xmlns="http://www.w3.org/2000/svg">
<path fill-rule="evenodd" clip-rule="evenodd" d="M13.5336 16.8545C13.4087 16.9794 13.3385 17.1488 13.3384 17.3255C13.3385 17.4572 13.3775 17.586 13.4507 17.6955C13.5239 17.8051 13.628 17.8904 13.7497 17.9408C13.8714 17.9912 14.0053 18.0044 14.1345 17.9787C14.2637 17.9531 14.3824 17.8896 14.4756 17.7965L19.805 12.4671C19.9298 12.3422 20 12.1728 20 11.9961C20 11.8195 19.9298 11.6501 19.805 11.5252L14.4756 6.19579C14.3499 6.07444 14.1817 6.0073 14.007 6.00881C13.8323 6.01033 13.6652 6.08039 13.5417 6.20391C13.4182 6.32742 13.3482 6.4945 13.3466 6.66917C13.3451 6.84384 13.4123 7.01212 13.5336 7.13776L17.7258 11.33L4.67821 11.33C4.50153 11.33 4.33208 11.4002 4.20715 11.5251C4.08222 11.65 4.01204 11.8195 4.01204 11.9961C4.01204 12.1728 4.08222 12.3423 4.20715 12.4672C4.33208 12.5921 4.50153 12.6623 4.67821 12.6623L17.7258 12.6623L13.5336 16.8545Z" fill="currentColor"/>
</svg>
