<svg width="24" height="24" viewBox="0 0 24 24" fill="currentColor" xmlns="http://www.w3.org/2000/svg">
<path fill-rule="evenodd" clip-rule="evenodd" d="M16.01 7.02C16.01 9.24 14.21 11.04 11.99 11.04H11.98C9.75996 11.04 7.95996 9.24 7.95996 7.02C7.95996 4.8 9.77996 3 11.99 3C14.2 3 16.01 4.8 16.01 7.02ZM14.51 7.02C14.51 5.63 13.38 4.5 11.99 4.5C10.6 4.5 9.46996 5.63 9.46996 7.02C9.46996 8.41 10.6 9.54 11.99 9.54C13.38 9.54 14.51 8.41 14.51 7.02ZM5 18.61C5 14.76 8.14 11.62 11.99 11.62C15.84 11.62 18.98 14.76 18.98 18.61V19.84C18.98 20.25 18.64 20.59 18.23 20.59H5.75C5.34 20.59 5 20.25 5 19.84V18.61ZM6.5 18.61V19.09H17.48V18.61C17.48 15.58 15.02 13.12 11.99 13.12C8.96 13.12 6.5 15.58 6.5 18.61Z" fill="currentColor"/>
</svg>
