<svg width="80" height="80" viewBox="0 0 80 80" fill="none" xmlns="http://www.w3.org/2000/svg">
<path d="M76.4461 6.45592C76.2868 4.86023 75.0917 3.66345 73.4982 3.50388C53.3413 1.90818 38.9207 11.7217 29.9178 24.0086C24.9781 22.4129 19.6401 22.9714 14.7802 25.6841C10.0795 28.317 6.1756 32.7849 3.62611 38.2103C3.0684 39.4869 3.30742 40.923 4.34315 41.8804C5.29921 42.8378 6.81298 42.9974 8.00805 42.3591C13.107 39.6465 18.8434 40.2049 22.2693 43.6357L36.2915 57.6778L36.3712 57.7576C39.7971 61.1884 40.3548 66.9329 37.646 72.0391C37.0086 73.2359 37.2476 74.7518 38.124 75.7092C38.7614 76.3475 39.5581 76.6666 40.4345 76.6666C40.9125 76.6666 41.3905 76.5869 41.7889 76.3475C47.2066 73.7944 51.6682 69.8051 54.2974 65.1776C57.0859 60.3107 57.6436 54.9652 55.9705 49.9387C59.5557 47.3058 62.8222 44.4335 65.5311 41.2421C73.9763 31.5882 77.6412 19.8598 76.4461 6.45592ZM14.0631 34.3009C17.489 30.9499 21.7913 28.8755 26.3326 29.6733C25.0578 31.9073 24.0221 34.1413 23.066 36.3753C20.3572 34.8594 17.25 34.1413 14.0631 34.3009ZM45.8521 66.0553C45.9318 62.7841 45.2148 59.6725 43.7807 56.9598C46.0912 56.0023 48.322 54.8854 50.4731 53.6886C51.2698 58.2363 49.278 62.6245 45.8521 66.0553ZM39.4784 51.7738L28.2447 40.5241C33.9014 25.4447 47.9236 9.32818 70.3114 9.72711C71.0284 36.4551 49.039 48.0239 39.4784 51.7738ZM60.1134 19.9396C61.0695 20.897 61.6272 22.2533 61.6272 23.6097C61.6272 24.966 61.0695 26.3224 60.1134 27.2798C59.1573 28.2372 57.8029 28.7957 56.4485 28.7957C55.0941 28.7957 53.7397 28.317 52.7836 27.2798C51.8275 26.2426 51.2698 24.966 51.2698 23.6097C51.2698 22.2533 51.8275 20.897 52.7836 19.9396C53.7397 18.9822 55.0941 18.4237 56.4485 18.4237C57.8029 18.4237 59.1573 18.9822 60.1134 19.9396ZM15.2582 53.1301C11.5933 56.8002 11.4339 64.1404 11.4339 65.5765C11.4339 67.3318 12.868 68.7679 14.6208 68.7679H14.7005C16.3736 68.7679 23.3847 68.5286 26.9699 64.9383C29.2007 62.7043 29.6788 60.3905 29.6788 58.8746C29.6788 56.7204 28.8024 54.646 27.1293 52.9705C23.1457 48.9015 18.1264 50.1781 15.2582 53.1301ZM22.5083 60.3905C21.7116 61.1884 19.9588 61.7469 18.1264 61.9862C18.4451 60.1512 19.0028 58.3959 19.7198 57.6778C20.2775 57.1193 20.7555 56.8002 21.3132 56.8002C21.7116 56.8002 22.1896 57.0396 22.6677 57.5183C23.1457 57.997 23.3847 58.4757 23.3847 58.8746C23.305 59.3533 22.9067 59.9916 22.5083 60.3905Z" fill="#F5FAFF"/>
</svg>
