<svg width="128" height="128" viewBox="0 0 128 128" fill="none" xmlns="http://www.w3.org/2000/svg">
<path fill-rule="evenodd" clip-rule="evenodd" d="M35.1104 20.7636C43.6617 15.0498 53.7154 12.0001 64 12.0001C77.7913 12.0001 91.0177 17.4786 100.77 27.2305C110.521 36.9824 116 50.2088 116 64.0001C116 74.2847 112.95 84.3384 107.236 92.8897C101.523 101.441 93.4013 108.106 83.8996 112.042C74.3978 115.978 63.9423 117.007 53.8553 115.001C43.7683 112.994 34.5028 108.042 27.2305 100.77C19.9581 93.4973 15.0056 84.2318 12.9992 74.1448C10.9928 64.0577 12.0225 53.6023 15.9583 44.1005C19.894 34.5988 26.559 26.4775 35.1104 20.7636ZM39.5549 100.585C46.7907 105.42 55.2976 108 64 108C75.6695 108 86.8611 103.364 95.1127 95.1128C103.364 86.8612 108 75.6696 108 64.0001C108 55.2977 105.419 46.7907 100.585 39.555C95.7499 32.3192 88.878 26.6796 80.8381 23.3494C72.7981 20.0191 63.9512 19.1478 55.416 20.8455C46.8809 22.5433 39.0408 26.7339 32.8873 32.8874C26.7338 39.0409 22.5432 46.8809 20.8455 55.4161C19.1477 63.9513 20.0191 72.7982 23.3493 80.8381C26.6796 88.8781 32.3192 95.7499 39.5549 100.585ZM89.1716 65.1716C89.9217 64.4215 90.9391 64.0001 92 64.0001C93.0609 64.0001 94.0783 64.4215 94.8284 65.1716C95.5786 65.9218 96 66.9392 96 68.0001C96 83.4401 81.64 96.0001 64 96.0001C46.36 96.0001 32 83.4401 32 68.0001C32 66.9392 32.4214 65.9218 33.1716 65.1716C33.9217 64.4215 34.9391 64.0001 36 64.0001C37.0609 64.0001 38.0783 64.4215 38.8284 65.1716C39.5786 65.9218 40 66.9392 40 68.0001C40 79.0401 50.76 88.0001 64 88.0001C77.24 88.0001 88 79.0401 88 68.0001C88 66.9392 88.4214 65.9218 89.1716 65.1716ZM48 52.0001C52.4183 52.0001 56 48.4183 56 44.0001C56 39.5818 52.4183 36.0001 48 36.0001C43.5817 36.0001 40 39.5818 40 44.0001C40 48.4183 43.5817 52.0001 48 52.0001ZM88 44.0001C88 48.4183 84.4183 52.0001 80 52.0001C75.5817 52.0001 72 48.4183 72 44.0001C72 39.5818 75.5817 36.0001 80 36.0001C84.4183 36.0001 88 39.5818 88 44.0001Z" fill="url(#paint0_linear_620_5835)"/>
<defs>
<linearGradient id="paint0_linear_620_5835" x1="12" y1="12.0001" x2="116" y2="116" gradientUnits="userSpaceOnUse">
<stop stop-color="#3C5ACA"/>
<stop offset="1" stop-color="#99CDFF"/>
</linearGradient>
</defs>
</svg>
