<svg width="18" height="16" viewBox="0 0 18 16" fill="currentColor" xmlns="http://www.w3.org/2000/svg">
<path fill-rule="evenodd" clip-rule="evenodd" d="M6.50011 1.88474e-05L6.49396 0C6.22852 0 5.97394 0.105315 5.78622 0.292786L0.781005 5.29279C0.598657 5.48139 0.497757 5.73399 0.500038 5.99619C0.502319 6.25838 0.607597 6.5092 0.793199 6.6946C0.9788 6.88001 1.22987 6.98518 1.49234 6.98746C1.75481 6.98974 2.00768 6.88894 2.19648 6.70679L5.50521 3.4015L5.50521 15C5.50521 15.2652 5.61068 15.5196 5.79841 15.7071C5.98615 15.8946 6.24076 16 6.50626 16C6.77175 16 7.02637 15.8946 7.2141 15.7071C7.40183 15.5196 7.5073 15.2652 7.5073 15L7.5073 1C7.5073 0.734784 7.40183 0.48043 7.2141 0.292893C7.02637 0.105357 6.77175 0 6.50626 0L6.50011 1.88474e-05ZM16.5 5L9.5 5C9.23478 5 8.98043 4.89464 8.79289 4.70711C8.60536 4.51957 8.5 4.26522 8.5 4C8.5 3.73478 8.60536 3.48043 8.79289 3.29289C8.98043 3.10536 9.23478 3 9.5 3L16.5 3C16.7652 3 17.0196 3.10536 17.2071 3.29289C17.3946 3.48043 17.5 3.73478 17.5 4C17.5 4.26522 17.3946 4.51957 17.2071 4.70711C17.0196 4.89464 16.7652 5 16.5 5ZM13.5 9H9.5C9.23478 9 8.98043 8.89464 8.79289 8.70711C8.60536 8.51957 8.5 8.26522 8.5 8C8.5 7.73478 8.60536 7.48043 8.79289 7.29289C8.98043 7.10536 9.23478 7 9.5 7L13.5 7C13.7652 7 14.0196 7.10536 14.2071 7.29289C14.3946 7.48043 14.5 7.73478 14.5 8C14.5 8.26522 14.3946 8.51957 14.2071 8.70711C14.0196 8.89464 13.7652 9 13.5 9ZM10.5 13H9.5C9.23478 13 8.98043 12.8946 8.79289 12.7071C8.60536 12.5196 8.5 12.2652 8.5 12C8.5 11.7348 8.60536 11.4804 8.79289 11.2929C8.98043 11.1054 9.23478 11 9.5 11H10.5C10.7652 11 11.0196 11.1054 11.2071 11.2929C11.3946 11.4804 11.5 11.7348 11.5 12C11.5 12.2652 11.3946 12.5196 11.2071 12.7071C11.0196 12.8946 10.7652 13 10.5 13Z" fill="currentColor"/>
</svg>
