<svg width="128" height="128" viewBox="0 0 128 128" fill="currentColor" xmlns="http://www.w3.org/2000/svg">
<path d="M82.5446 49.3095L56.8762 73.4666L45.6129 61.9033C45.1628 61.4408 44.6283 61.0738 44.04 60.8234C43.4517 60.573 42.8211 60.444 42.1843 60.4438C40.8981 60.4433 39.6644 60.9674 38.7546 61.9008C37.8448 62.8341 37.3335 64.1003 37.333 65.4208C37.3326 66.7412 37.8431 68.0078 38.7522 68.9418L53.2979 83.8751C54.1815 84.7824 55.3722 85.3043 56.6215 85.3322C57.8709 85.36 59.0825 84.8915 60.0035 84.0244L89.095 56.6467C90.0428 55.7543 90.6064 54.5119 90.6618 53.1928C90.7173 51.8738 90.2601 50.5861 89.3908 49.6132C88.5215 48.6402 87.3114 48.0616 86.0265 48.0046C84.7417 47.9477 83.4875 48.4171 82.5398 49.3095H82.5446Z" fill="currentColor"/>
<path d="M64.0004 10.6667C53.452 10.6667 43.1406 13.7946 34.3699 19.655C25.5993 25.5153 18.7634 33.8448 14.7268 43.5902C10.6901 53.3356 9.63392 64.0592 11.6918 74.4048C13.7497 84.7505 18.8292 94.2536 26.288 101.712C33.7468 109.171 43.2499 114.251 53.5955 116.309C63.9412 118.366 74.6647 117.31 84.4101 113.274C94.1555 109.237 102.485 102.401 108.345 93.6304C114.206 84.8598 117.334 74.5484 117.334 64C117.318 49.86 111.694 36.3036 101.695 26.305C91.6968 16.3065 78.1404 10.6824 64.0004 10.6667ZM64.0004 106.667C55.5617 106.667 47.3125 104.164 40.296 99.4761C33.2795 94.7878 27.8108 88.1242 24.5815 80.3279C21.3522 72.5315 20.5072 63.9527 22.1535 55.6762C23.7998 47.3996 27.8634 39.7972 33.8305 33.8301C39.7975 27.8631 47.4 23.7995 55.6765 22.1532C63.953 20.5069 72.5319 21.3518 80.3282 24.5812C88.1245 27.8105 94.7881 33.2792 99.4764 40.2957C104.165 47.3122 106.667 55.5614 106.667 64C106.654 75.312 102.155 86.1569 94.1559 94.1556C86.1572 102.154 75.3123 106.654 64.0004 106.667Z" fill="currentColor"/>
</svg>
