<svg width="414" height="408" viewBox="0 0 414 408" fill="none" xmlns="http://www.w3.org/2000/svg">
<g filter="url(#filter0_d_623_6266)">
<g clip-path="url(#clip0_623_6266)">
<rect x="40" y="36" width="334" height="328" rx="12" fill="#1B2031"/>
<path d="M59.992 60.008H57.896L57.56 61H56.128L58.16 55.384H59.744L61.776 61H60.328L59.992 60.008ZM59.64 58.952L58.944 56.896L58.256 58.952H59.64ZM63.7624 55.08V61H62.3944V55.08H63.7624ZM66.1218 55.08V61H64.7538V55.08H66.1218ZM69.1452 61.064C68.7079 61.064 68.3132 60.9707 67.9612 60.784C67.6145 60.5973 67.3399 60.3307 67.1372 59.984C66.9399 59.6373 66.8412 59.232 66.8412 58.768C66.8412 58.3093 66.9425 57.9067 67.1452 57.56C67.3479 57.208 67.6252 56.9387 67.9772 56.752C68.3292 56.5653 68.7239 56.472 69.1612 56.472C69.5985 56.472 69.9932 56.5653 70.3452 56.752C70.6972 56.9387 70.9745 57.208 71.1772 57.56C71.3799 57.9067 71.4812 58.3093 71.4812 58.768C71.4812 59.2267 71.3772 59.632 71.1692 59.984C70.9665 60.3307 70.6865 60.5973 70.3292 60.784C69.9772 60.9707 69.5825 61.064 69.1452 61.064ZM69.1452 59.88C69.4065 59.88 69.6279 59.784 69.8092 59.592C69.9959 59.4 70.0892 59.1253 70.0892 58.768C70.0892 58.4107 69.9985 58.136 69.8172 57.944C69.6412 57.752 69.4225 57.656 69.1612 57.656C68.8945 57.656 68.6732 57.752 68.4972 57.944C68.3212 58.1307 68.2332 58.4053 68.2332 58.768C68.2332 59.1253 68.3185 59.4 68.4892 59.592C68.6652 59.784 68.8839 59.88 69.1452 59.88ZM78.6149 56.536L77.4069 61H75.8949L75.1909 58.104L74.4629 61H72.9589L71.7429 56.536H73.1109L73.7429 59.728L74.4949 56.536H75.9429L76.7029 59.712L77.3269 56.536H78.6149ZM80.5046 55.08V61H79.1366V55.08H80.5046ZM82.184 56.072C81.944 56.072 81.7467 56.0027 81.592 55.864C81.4427 55.72 81.368 55.544 81.368 55.336C81.368 55.1227 81.4427 54.9467 81.592 54.808C81.7467 54.664 81.944 54.592 82.184 54.592C82.4187 54.592 82.6107 54.664 82.76 54.808C82.9147 54.9467 82.992 55.1227 82.992 55.336C82.992 55.544 82.9147 55.72 82.76 55.864C82.6107 56.0027 82.4187 56.072 82.184 56.072ZM82.864 56.536V61H81.496V56.536H82.864ZM85.6714 61.064C85.282 61.064 84.9354 60.9973 84.6314 60.864C84.3274 60.7307 84.0874 60.5493 83.9114 60.32C83.7354 60.0853 83.6367 59.824 83.6154 59.536H84.9674C84.9834 59.6907 85.0554 59.816 85.1834 59.912C85.3114 60.008 85.4687 60.056 85.6554 60.056C85.826 60.056 85.9567 60.024 86.0474 59.96C86.1434 59.8907 86.1914 59.8027 86.1914 59.696C86.1914 59.568 86.1247 59.4747 85.9914 59.416C85.858 59.352 85.642 59.2827 85.3434 59.208C85.0234 59.1333 84.7567 59.056 84.5434 58.976C84.33 58.8907 84.146 58.76 83.9914 58.584C83.8367 58.4027 83.7594 58.16 83.7594 57.856C83.7594 57.6 83.8287 57.368 83.9674 57.16C84.1114 56.9467 84.3194 56.7787 84.5914 56.656C84.8687 56.5333 85.1967 56.472 85.5754 56.472C86.1354 56.472 86.5754 56.6107 86.8954 56.888C87.2207 57.1653 87.4074 57.5333 87.4554 57.992H86.1914C86.17 57.8373 86.1007 57.7147 85.9834 57.624C85.8714 57.5333 85.722 57.488 85.5354 57.488C85.3754 57.488 85.2527 57.52 85.1674 57.584C85.082 57.6427 85.0394 57.7253 85.0394 57.832C85.0394 57.96 85.106 58.056 85.2394 58.12C85.378 58.184 85.5914 58.248 85.8794 58.312C86.21 58.3973 86.4794 58.4827 86.6874 58.568C86.8954 58.648 87.0767 58.7813 87.2314 58.968C87.3914 59.1493 87.474 59.3947 87.4794 59.704C87.4794 59.9653 87.4047 60.2 87.2554 60.408C87.1114 60.6107 86.9007 60.7707 86.6234 60.888C86.3514 61.0053 86.034 61.064 85.6714 61.064ZM90.8043 59.84V61H90.1083C89.6123 61 89.2256 60.88 88.9483 60.64C88.671 60.3947 88.5323 59.9973 88.5323 59.448V57.672H87.9883V56.536H88.5323V55.448H89.9003V56.536H90.7963V57.672H89.9003V59.464C89.9003 59.5973 89.9323 59.6933 89.9963 59.752C90.0603 59.8107 90.167 59.84 90.3163 59.84H90.8043ZM95.3656 55.384C95.9576 55.384 96.475 55.5013 96.9176 55.736C97.3603 55.9707 97.7016 56.3013 97.9416 56.728C98.187 57.1493 98.3096 57.6373 98.3096 58.192C98.3096 58.7413 98.187 59.2293 97.9416 59.656C97.7016 60.0827 97.3576 60.4133 96.9096 60.648C96.467 60.8827 95.9523 61 95.3656 61H93.2616V55.384H95.3656ZM95.2776 59.816C95.795 59.816 96.1976 59.6747 96.4856 59.392C96.7736 59.1093 96.9176 58.7093 96.9176 58.192C96.9176 57.6747 96.7736 57.272 96.4856 56.984C96.1976 56.696 95.795 56.552 95.2776 56.552H94.6296V59.816H95.2776ZM103.282 58.696C103.282 58.824 103.274 58.9573 103.258 59.096H100.162C100.183 59.3733 100.271 59.5867 100.426 59.736C100.586 59.88 100.781 59.952 101.01 59.952C101.351 59.952 101.589 59.808 101.722 59.52H103.178C103.103 59.8133 102.967 60.0773 102.77 60.312C102.578 60.5467 102.335 60.7307 102.042 60.864C101.749 60.9973 101.421 61.064 101.058 61.064C100.621 61.064 100.231 60.9707 99.8901 60.784C99.5488 60.5973 99.2821 60.3307 99.0901 59.984C98.8981 59.6373 98.8021 59.232 98.8021 58.768C98.8021 58.304 98.8955 57.8987 99.0821 57.552C99.2741 57.2053 99.5408 56.9387 99.8821 56.752C100.223 56.5653 100.615 56.472 101.058 56.472C101.49 56.472 101.874 56.5627 102.21 56.744C102.546 56.9253 102.807 57.184 102.994 57.52C103.186 57.856 103.282 58.248 103.282 58.696ZM101.882 58.336C101.882 58.1013 101.802 57.9147 101.642 57.776C101.482 57.6373 101.282 57.568 101.042 57.568C100.813 57.568 100.618 57.6347 100.458 57.768C100.303 57.9013 100.207 58.0907 100.17 58.336H101.882ZM106.492 59.84V61H105.796C105.3 61 104.913 60.88 104.636 60.64C104.358 60.3947 104.22 59.9973 104.22 59.448V57.672H103.676V56.536H104.22V55.448H105.588V56.536H106.484V57.672H105.588V59.464C105.588 59.5973 105.62 59.6933 105.684 59.752C105.748 59.8107 105.854 59.84 106.004 59.84H106.492ZM106.982 58.76C106.982 58.3013 107.067 57.8987 107.238 57.552C107.414 57.2053 107.651 56.9387 107.95 56.752C108.248 56.5653 108.582 56.472 108.95 56.472C109.264 56.472 109.539 56.536 109.774 56.664C110.014 56.792 110.198 56.96 110.326 57.168V56.536H111.694V61H110.326V60.368C110.192 60.576 110.006 60.744 109.766 60.872C109.531 61 109.256 61.064 108.942 61.064C108.579 61.064 108.248 60.9707 107.95 60.784C107.651 60.592 107.414 60.3227 107.238 59.976C107.067 59.624 106.982 59.2187 106.982 58.76ZM110.326 58.768C110.326 58.4267 110.23 58.1573 110.038 57.96C109.851 57.7627 109.622 57.664 109.35 57.664C109.078 57.664 108.846 57.7627 108.654 57.96C108.467 58.152 108.374 58.4187 108.374 58.76C108.374 59.1013 108.467 59.3733 108.654 59.576C108.846 59.7733 109.078 59.872 109.35 59.872C109.622 59.872 109.851 59.7733 110.038 59.576C110.23 59.3787 110.326 59.1093 110.326 58.768ZM113.372 56.072C113.132 56.072 112.934 56.0027 112.78 55.864C112.63 55.72 112.556 55.544 112.556 55.336C112.556 55.1227 112.63 54.9467 112.78 54.808C112.934 54.664 113.132 54.592 113.372 54.592C113.606 54.592 113.798 54.664 113.948 54.808C114.102 54.9467 114.18 55.1227 114.18 55.336C114.18 55.544 114.102 55.72 113.948 55.864C113.798 56.0027 113.606 56.072 113.372 56.072ZM114.052 56.536V61H112.684V56.536H114.052ZM116.411 55.08V61H115.043V55.08H116.411ZM119.218 61.064C118.829 61.064 118.482 60.9973 118.178 60.864C117.874 60.7307 117.634 60.5493 117.458 60.32C117.282 60.0853 117.184 59.824 117.162 59.536H118.514C118.53 59.6907 118.602 59.816 118.73 59.912C118.858 60.008 119.016 60.056 119.202 60.056C119.373 60.056 119.504 60.024 119.594 59.96C119.69 59.8907 119.738 59.8027 119.738 59.696C119.738 59.568 119.672 59.4747 119.538 59.416C119.405 59.352 119.189 59.2827 118.89 59.208C118.57 59.1333 118.304 59.056 118.09 58.976C117.877 58.8907 117.693 58.76 117.538 58.584C117.384 58.4027 117.306 58.16 117.306 57.856C117.306 57.6 117.376 57.368 117.514 57.16C117.658 56.9467 117.866 56.7787 118.138 56.656C118.416 56.5333 118.744 56.472 119.122 56.472C119.682 56.472 120.122 56.6107 120.442 56.888C120.768 57.1653 120.954 57.5333 121.002 57.992H119.738C119.717 57.8373 119.648 57.7147 119.53 57.624C119.418 57.5333 119.269 57.488 119.082 57.488C118.922 57.488 118.8 57.52 118.714 57.584C118.629 57.6427 118.586 57.7253 118.586 57.832C118.586 57.96 118.653 58.056 118.786 58.12C118.925 58.184 119.138 58.248 119.426 58.312C119.757 58.3973 120.026 58.4827 120.234 58.568C120.442 58.648 120.624 58.7813 120.778 58.968C120.938 59.1493 121.021 59.3947 121.026 59.704C121.026 59.9653 120.952 60.2 120.802 60.408C120.658 60.6107 120.448 60.7707 120.17 60.888C119.898 61.0053 119.581 61.064 119.218 61.064Z" fill="#F5FAFF"/>
<line x1="56" y1="79.5" x2="358" y2="79.5" stroke="#2D344E"/>
<path d="M59.7529 104L59.2642 102.612H57.3535L56.8647 104H56L57.8594 98.9824H58.7686L60.6245 104H59.7529ZM59.0522 101.908L58.5771 100.541C58.5589 100.482 58.5327 100.399 58.4985 100.292C58.4644 100.182 58.4302 100.072 58.396 99.96C58.3618 99.846 58.3333 99.7503 58.3105 99.6729C58.2878 99.7663 58.2593 99.8711 58.2251 99.9873C58.1932 100.101 58.1613 100.208 58.1294 100.309C58.0998 100.409 58.077 100.486 58.061 100.541L57.5825 101.908H59.0522ZM62.0088 104H61.2021V98.6816H62.0088V104ZM63.9639 104H63.1572V98.6816H63.9639V104ZM68.4619 102.1C68.4619 102.414 68.4209 102.693 68.3389 102.937C68.2568 103.181 68.1372 103.387 67.98 103.556C67.8228 103.722 67.6336 103.85 67.4126 103.938C67.1916 104.025 66.9421 104.068 66.6641 104.068C66.4043 104.068 66.1662 104.025 65.9497 103.938C65.7332 103.85 65.5452 103.722 65.3857 103.556C65.2285 103.387 65.1066 103.181 65.02 102.937C64.9334 102.693 64.8901 102.414 64.8901 102.1C64.8901 101.683 64.9619 101.329 65.1055 101.04C65.2513 100.748 65.4587 100.526 65.7275 100.374C65.9964 100.221 66.3166 100.145 66.688 100.145C67.0366 100.145 67.3442 100.221 67.6108 100.374C67.8774 100.526 68.0859 100.748 68.2363 101.04C68.3867 101.332 68.4619 101.685 68.4619 102.1ZM65.7173 102.1C65.7173 102.375 65.7503 102.611 65.8164 102.807C65.8848 103.003 65.9896 103.153 66.1309 103.258C66.2721 103.361 66.4544 103.412 66.6777 103.412C66.901 103.412 67.0833 103.361 67.2246 103.258C67.3659 103.153 67.4696 103.003 67.5356 102.807C67.6017 102.611 67.6348 102.375 67.6348 102.1C67.6348 101.824 67.6017 101.59 67.5356 101.399C67.4696 101.205 67.3659 101.058 67.2246 100.958C67.0833 100.855 66.8999 100.804 66.6743 100.804C66.3416 100.804 66.099 100.916 65.9463 101.139C65.7936 101.362 65.7173 101.683 65.7173 102.1ZM72.478 103.997L71.9995 102.236C71.9767 102.15 71.9494 102.045 71.9175 101.922C71.8856 101.799 71.8537 101.672 71.8218 101.542C71.7899 101.41 71.7603 101.288 71.7329 101.177C71.7078 101.065 71.6885 100.979 71.6748 100.917H71.6475C71.6361 100.979 71.6178 101.065 71.5928 101.177C71.5677 101.288 71.5392 101.41 71.5073 101.542C71.4754 101.675 71.4435 101.803 71.4116 101.929C71.382 102.054 71.3547 102.161 71.3296 102.25L70.8271 103.997H69.9453L68.8857 100.213H69.6992L70.1914 102.093C70.2233 102.22 70.2541 102.358 70.2837 102.506C70.3156 102.654 70.3429 102.796 70.3657 102.93C70.3885 103.065 70.4056 103.175 70.417 103.262H70.4443C70.4535 103.2 70.466 103.123 70.4819 103.029C70.4979 102.934 70.5161 102.834 70.5366 102.732C70.5571 102.627 70.5776 102.529 70.5981 102.438C70.6187 102.345 70.638 102.269 70.6562 102.212L71.2373 100.213H72.1157L72.6729 102.212C72.6979 102.299 72.7253 102.408 72.7549 102.541C72.7845 102.67 72.8107 102.801 72.8335 102.934C72.8586 103.063 72.8745 103.172 72.8813 103.258H72.9087C72.9178 103.181 72.9338 103.076 72.9565 102.944C72.9816 102.809 73.0101 102.667 73.042 102.517C73.0739 102.364 73.1069 102.223 73.1411 102.093L73.6436 100.213H74.4434L73.377 103.997H72.478ZM75.8994 104H75.0928V98.6816H75.8994V104ZM77.8511 100.216V104H77.0479V100.216H77.8511ZM77.4546 98.7671C77.5776 98.7671 77.6836 98.8001 77.7725 98.8662C77.8636 98.9323 77.9092 99.0462 77.9092 99.208C77.9092 99.3675 77.8636 99.4814 77.7725 99.5498C77.6836 99.6159 77.5776 99.6489 77.4546 99.6489C77.327 99.6489 77.2188 99.6159 77.1299 99.5498C77.0433 99.4814 77 99.3675 77 99.208C77 99.0462 77.0433 98.9323 77.1299 98.8662C77.2188 98.8001 77.327 98.7671 77.4546 98.7671ZM81.5459 102.92C81.5459 103.168 81.4855 103.378 81.3647 103.549C81.244 103.72 81.0674 103.85 80.835 103.938C80.6048 104.025 80.3223 104.068 79.9873 104.068C79.723 104.068 79.4951 104.049 79.3037 104.01C79.1146 103.974 78.9357 103.917 78.7671 103.839V103.146C78.9471 103.23 79.1488 103.303 79.3721 103.364C79.5977 103.426 79.8107 103.457 80.0112 103.457C80.2756 103.457 80.4658 103.416 80.582 103.333C80.6982 103.249 80.7563 103.138 80.7563 102.999C80.7563 102.917 80.7324 102.844 80.6846 102.78C80.639 102.714 80.5524 102.646 80.4248 102.578C80.2995 102.507 80.1149 102.423 79.8711 102.325C79.6318 102.229 79.4302 102.134 79.2661 102.038C79.1021 101.942 78.9779 101.827 78.8936 101.693C78.8092 101.556 78.7671 101.382 78.7671 101.17C78.7671 100.835 78.8993 100.581 79.1636 100.408C79.4302 100.232 79.7822 100.145 80.2197 100.145C80.4521 100.145 80.6709 100.168 80.876 100.216C81.0833 100.262 81.2861 100.329 81.4844 100.418L81.2314 101.023C81.0605 100.948 80.8885 100.886 80.7153 100.838C80.5444 100.788 80.3701 100.763 80.1924 100.763C79.985 100.763 79.8267 100.795 79.7173 100.859C79.6102 100.923 79.5566 101.014 79.5566 101.132C79.5566 101.221 79.5828 101.296 79.6353 101.358C79.6877 101.419 79.7777 101.481 79.9053 101.542C80.0352 101.604 80.2152 101.68 80.4453 101.771C80.6709 101.858 80.8657 101.949 81.0298 102.045C81.1961 102.138 81.3237 102.253 81.4126 102.39C81.5015 102.527 81.5459 102.703 81.5459 102.92ZM83.8223 103.419C83.9271 103.419 84.0308 103.41 84.1333 103.392C84.2358 103.371 84.3293 103.347 84.4136 103.32V103.928C84.3247 103.967 84.2096 104 84.0684 104.027C83.9271 104.055 83.7801 104.068 83.6274 104.068C83.4132 104.068 83.2207 104.033 83.0498 103.962C82.8789 103.889 82.7433 103.765 82.6431 103.59C82.5428 103.414 82.4927 103.172 82.4927 102.862V100.828H81.9766V100.469L82.5303 100.186L82.7935 99.3755H83.2993V100.216H84.3828V100.828H83.2993V102.852C83.2993 103.043 83.3472 103.185 83.4429 103.279C83.5386 103.372 83.665 103.419 83.8223 103.419ZM91.2529 104H90.2446L87.7974 100.011H87.7666C87.7757 100.146 87.7837 100.288 87.7905 100.438C87.7996 100.589 87.8065 100.744 87.811 100.903C87.8179 101.063 87.8236 101.225 87.8281 101.389V104H87.083V99.0029H88.0845L90.5283 102.964H90.5522C90.5477 102.848 90.542 102.715 90.5352 102.564C90.5283 102.414 90.5215 102.259 90.5146 102.1C90.5101 101.938 90.5067 101.782 90.5044 101.631V99.0029H91.2529V104ZM93.9668 100.145C94.4453 100.145 94.8065 100.25 95.0503 100.462C95.2964 100.674 95.4194 101.005 95.4194 101.454V104H94.8486L94.6948 103.463H94.6675C94.5604 103.6 94.4499 103.713 94.3359 103.802C94.222 103.891 94.0898 103.957 93.9395 104C93.7913 104.046 93.6102 104.068 93.396 104.068C93.1704 104.068 92.9688 104.027 92.791 103.945C92.6133 103.861 92.4731 103.733 92.3706 103.562C92.2681 103.392 92.2168 103.175 92.2168 102.913C92.2168 102.523 92.3615 102.231 92.6509 102.035C92.9425 101.839 93.3823 101.73 93.9702 101.71L94.6265 101.686V101.488C94.6265 101.226 94.5649 101.039 94.4419 100.927C94.3211 100.816 94.1502 100.76 93.9292 100.76C93.7401 100.76 93.5566 100.787 93.3789 100.842C93.2012 100.896 93.028 100.964 92.8594 101.043L92.5996 100.476C92.7842 100.378 92.9938 100.298 93.2285 100.237C93.4655 100.175 93.7116 100.145 93.9668 100.145ZM94.623 102.192L94.1343 102.209C93.7332 102.223 93.4518 102.291 93.29 102.414C93.1283 102.537 93.0474 102.706 93.0474 102.92C93.0474 103.107 93.1032 103.243 93.2148 103.33C93.3265 103.414 93.4735 103.457 93.6558 103.457C93.9338 103.457 94.1639 103.378 94.3462 103.221C94.5308 103.061 94.623 102.828 94.623 102.52V102.192ZM100.82 100.145C101.244 100.145 101.563 100.254 101.777 100.473C101.993 100.691 102.102 101.042 102.102 101.525V104H101.298V101.669C101.298 101.382 101.243 101.165 101.131 101.02C101.019 100.874 100.849 100.801 100.622 100.801C100.303 100.801 100.072 100.903 99.9312 101.108C99.7922 101.311 99.7227 101.606 99.7227 101.994V104H98.9194V101.669C98.9194 101.478 98.8944 101.318 98.8442 101.19C98.7964 101.061 98.7223 100.964 98.6221 100.9C98.5218 100.834 98.3953 100.801 98.2427 100.801C98.0216 100.801 97.8451 100.851 97.7129 100.951C97.583 101.051 97.4896 101.2 97.4326 101.396C97.3757 101.589 97.3472 101.827 97.3472 102.11V104H96.5439V100.216H97.1694L97.2822 100.726H97.3267C97.4041 100.593 97.4998 100.485 97.6138 100.401C97.73 100.314 97.8587 100.25 98 100.209C98.1413 100.166 98.2882 100.145 98.4409 100.145C98.7235 100.145 98.9616 100.195 99.1553 100.295C99.349 100.393 99.4937 100.543 99.5894 100.746H99.6509C99.7694 100.541 99.9346 100.389 100.146 100.292C100.358 100.194 100.583 100.145 100.82 100.145ZM104.73 100.145C105.067 100.145 105.357 100.214 105.598 100.353C105.84 100.492 106.025 100.689 106.155 100.944C106.285 101.2 106.35 101.505 106.35 101.86V102.291H103.824C103.833 102.658 103.931 102.94 104.118 103.139C104.307 103.337 104.572 103.436 104.911 103.436C105.153 103.436 105.369 103.413 105.561 103.368C105.754 103.32 105.954 103.25 106.159 103.159V103.812C105.97 103.901 105.777 103.966 105.581 104.007C105.385 104.048 105.15 104.068 104.877 104.068C104.506 104.068 104.179 103.997 103.896 103.853C103.616 103.707 103.396 103.491 103.236 103.204C103.079 102.917 103 102.56 103 102.134C103 101.71 103.072 101.35 103.216 101.054C103.359 100.757 103.561 100.532 103.821 100.377C104.081 100.222 104.384 100.145 104.73 100.145ZM104.73 100.75C104.477 100.75 104.272 100.832 104.115 100.996C103.96 101.16 103.869 101.4 103.841 101.717H105.564C105.562 101.528 105.53 101.36 105.468 101.214C105.409 101.069 105.318 100.955 105.195 100.873C105.074 100.791 104.919 100.75 104.73 100.75Z" fill="#F5FAFF"/>
<rect x="56" y="112" width="306.021" height="30" rx="3.49738" fill="#2D344E"/>
<path d="M67.7917 129.5H65.3172V125.131H67.7917V125.735H66.0344V126.921H67.6811V127.522H66.0344V128.893H67.7917V129.5ZM70.3887 126.129C70.7612 126.129 71.0511 126.226 71.2583 126.419C71.4675 126.61 71.5721 126.918 71.5721 127.342V129.5H70.8698V127.474C70.8698 127.217 70.817 127.025 70.7114 126.897C70.6058 126.768 70.4425 126.703 70.2213 126.703C69.9005 126.703 69.6774 126.801 69.5519 126.999C69.4284 127.196 69.3666 127.482 69.3666 127.856V129.5H68.6643V126.192H69.2112L69.3098 126.64H69.3487C69.4204 126.524 69.509 126.43 69.6146 126.356C69.7222 126.28 69.8418 126.224 69.9733 126.186C70.1067 126.148 70.2452 126.129 70.3887 126.129ZM73.7866 128.992C73.8782 128.992 73.9689 128.984 74.0585 128.968C74.1482 128.95 74.2299 128.929 74.3036 128.905V129.437C74.2259 129.471 74.1253 129.5 74.0017 129.524C73.8782 129.548 73.7497 129.56 73.6162 129.56C73.4289 129.56 73.2606 129.529 73.1112 129.467C72.9617 129.403 72.8432 129.295 72.7555 129.141C72.6679 128.988 72.624 128.776 72.624 128.505V126.727H72.1728V126.413L72.6569 126.165L72.887 125.457H73.3293V126.192H74.2767V126.727H73.3293V128.496C73.3293 128.663 73.3712 128.788 73.4548 128.869C73.5385 128.951 73.6491 128.992 73.7866 128.992ZM76.2939 126.129C76.5888 126.129 76.8418 126.19 77.053 126.311C77.2642 126.433 77.4265 126.605 77.5401 126.828C77.6537 127.051 77.7104 127.318 77.7104 127.629V128.006H75.502C75.5099 128.327 75.5956 128.574 75.759 128.747C75.9243 128.92 76.1554 129.007 76.4523 129.007C76.6635 129.007 76.8528 128.987 77.0201 128.947C77.1895 128.905 77.3638 128.845 77.5431 128.765V129.336C77.3777 129.413 77.2094 129.47 77.038 129.506C76.8667 129.542 76.6615 129.56 76.4224 129.56C76.0977 129.56 75.8118 129.497 75.5647 129.371C75.3197 129.244 75.1274 129.055 74.9879 128.804C74.8505 128.553 74.7817 128.241 74.7817 127.868C74.7817 127.498 74.8445 127.183 74.97 126.924C75.0955 126.665 75.2718 126.468 75.499 126.332C75.7261 126.197 75.9911 126.129 76.2939 126.129ZM76.2939 126.658C76.0728 126.658 75.8934 126.73 75.756 126.873C75.6205 127.017 75.5408 127.227 75.5169 127.504H77.0231C77.0211 127.338 76.9932 127.192 76.9394 127.064C76.8876 126.937 76.8079 126.837 76.7003 126.766C76.5947 126.694 76.4593 126.658 76.2939 126.658ZM80.1789 126.129C80.2347 126.129 80.2955 126.132 80.3612 126.138C80.427 126.144 80.4838 126.152 80.5316 126.162L80.4658 126.819C80.424 126.807 80.3722 126.798 80.3104 126.792C80.2507 126.786 80.1969 126.783 80.1491 126.783C80.0235 126.783 79.904 126.804 79.7904 126.846C79.6769 126.886 79.5763 126.948 79.4886 127.032C79.4009 127.113 79.3322 127.216 79.2824 127.339C79.2326 127.463 79.2077 127.606 79.2077 127.77V129.5H78.5024V126.192H79.0523L79.1479 126.775H79.1808C79.2465 126.657 79.3282 126.549 79.4258 126.452C79.5235 126.354 79.635 126.276 79.7605 126.219C79.8881 126.159 80.0275 126.129 80.1789 126.129ZM85.5134 129.5L85.086 128.287H83.4155L82.9881 129.5H82.232L83.8578 125.113H84.6527L86.2754 129.5H85.5134ZM84.9007 127.671L84.4853 126.476C84.4694 126.424 84.4465 126.351 84.4166 126.257C84.3867 126.162 84.3568 126.065 84.327 125.968C84.2971 125.868 84.2722 125.784 84.2522 125.717C84.2323 125.798 84.2074 125.89 84.1775 125.992C84.1496 126.091 84.1217 126.185 84.0939 126.272C84.068 126.36 84.048 126.428 84.0341 126.476L83.6157 127.671H84.9007ZM87.4858 129.5H86.7805V124.85H87.4858V129.5ZM89.1952 129.5H88.4899V124.85H89.1952V129.5ZM93.128 127.838C93.128 128.113 93.0922 128.357 93.0205 128.571C92.9487 128.784 92.8441 128.964 92.7067 129.111C92.5692 129.257 92.4038 129.369 92.2106 129.446C92.0173 129.522 91.7992 129.56 91.5561 129.56C91.329 129.56 91.1208 129.522 90.9315 129.446C90.7422 129.369 90.5779 129.257 90.4384 129.111C90.3009 128.964 90.1943 128.784 90.1186 128.571C90.0429 128.357 90.0051 128.113 90.0051 127.838C90.0051 127.474 90.0678 127.165 90.1934 126.912C90.3209 126.657 90.5022 126.463 90.7373 126.329C90.9724 126.196 91.2523 126.129 91.577 126.129C91.8818 126.129 92.1508 126.196 92.3839 126.329C92.617 126.463 92.7993 126.657 92.9308 126.912C93.0623 127.167 93.128 127.476 93.128 127.838ZM90.7283 127.838C90.7283 128.079 90.7572 128.286 90.815 128.457C90.8747 128.628 90.9664 128.76 91.0899 128.851C91.2134 128.941 91.3728 128.986 91.5681 128.986C91.7633 128.986 91.9227 128.941 92.0462 128.851C92.1697 128.76 92.2604 128.628 92.3182 128.457C92.3759 128.286 92.4048 128.079 92.4048 127.838C92.4048 127.597 92.3759 127.393 92.3182 127.226C92.2604 127.056 92.1697 126.928 92.0462 126.84C91.9227 126.751 91.7623 126.706 91.5651 126.706C91.2742 126.706 91.062 126.803 90.9285 126.999C90.795 127.194 90.7283 127.474 90.7283 127.838ZM96.6395 129.497L96.2211 127.958C96.2012 127.882 96.1773 127.791 96.1494 127.683C96.1215 127.575 96.0936 127.465 96.0657 127.351C96.0378 127.236 96.0119 127.129 95.988 127.032C95.9661 126.934 95.9492 126.858 95.9372 126.804H95.9133C95.9034 126.858 95.8874 126.934 95.8655 127.032C95.8436 127.129 95.8187 127.236 95.7908 127.351C95.7629 127.467 95.735 127.579 95.7071 127.689C95.6812 127.799 95.6573 127.892 95.6354 127.97L95.1961 129.497H94.425L93.4986 126.189H94.2099L94.6402 127.832C94.6681 127.944 94.695 128.065 94.7209 128.194C94.7488 128.324 94.7727 128.447 94.7926 128.565C94.8126 128.682 94.8275 128.779 94.8375 128.854H94.8614C94.8693 128.801 94.8803 128.733 94.8942 128.651C94.9082 128.568 94.9241 128.481 94.9421 128.391C94.96 128.3 94.9779 128.214 94.9958 128.134C95.0138 128.053 95.0307 127.987 95.0467 127.937L95.5547 126.189H96.3227L96.8099 127.937C96.8318 128.013 96.8557 128.108 96.8816 128.224C96.9075 128.337 96.9304 128.452 96.9503 128.568C96.9722 128.681 96.9862 128.776 96.9922 128.851H97.0161C97.024 128.784 97.038 128.692 97.0579 128.577C97.0798 128.459 97.1047 128.334 97.1326 128.203C97.1605 128.07 97.1894 127.946 97.2193 127.832L97.6586 126.189H98.3579L97.4255 129.497H96.6395ZM99.631 129.5H98.9257V124.85H99.631V129.5ZM101.337 126.192V129.5H100.635V126.192H101.337ZM100.991 124.925C101.098 124.925 101.191 124.954 101.269 125.011C101.348 125.069 101.388 125.169 101.388 125.31C101.388 125.45 101.348 125.549 101.269 125.609C101.191 125.667 101.098 125.696 100.991 125.696C100.879 125.696 100.785 125.667 100.707 125.609C100.631 125.549 100.593 125.45 100.593 125.31C100.593 125.169 100.631 125.069 100.707 125.011C100.785 124.954 100.879 124.925 100.991 124.925ZM104.568 128.556C104.568 128.773 104.515 128.956 104.41 129.106C104.304 129.255 104.15 129.369 103.946 129.446C103.745 129.522 103.498 129.56 103.205 129.56C102.974 129.56 102.775 129.543 102.608 129.509C102.442 129.477 102.286 129.427 102.138 129.36V128.753C102.296 128.827 102.472 128.89 102.667 128.944C102.865 128.998 103.051 129.025 103.226 129.025C103.457 129.025 103.624 128.989 103.725 128.917C103.827 128.844 103.878 128.746 103.878 128.624C103.878 128.553 103.857 128.489 103.815 128.433C103.775 128.375 103.699 128.317 103.588 128.257C103.478 128.195 103.317 128.121 103.104 128.036C102.894 127.952 102.718 127.868 102.575 127.785C102.431 127.701 102.323 127.6 102.249 127.483C102.175 127.363 102.138 127.211 102.138 127.026C102.138 126.733 102.254 126.511 102.485 126.359C102.718 126.206 103.026 126.129 103.408 126.129C103.612 126.129 103.803 126.15 103.982 126.192C104.164 126.232 104.341 126.29 104.514 126.368L104.293 126.897C104.144 126.831 103.993 126.777 103.842 126.736C103.692 126.692 103.54 126.67 103.385 126.67C103.203 126.67 103.065 126.698 102.969 126.754C102.875 126.809 102.829 126.889 102.829 126.993C102.829 127.07 102.852 127.136 102.897 127.19C102.943 127.244 103.022 127.297 103.133 127.351C103.247 127.405 103.404 127.472 103.606 127.552C103.803 127.627 103.973 127.707 104.117 127.791C104.262 127.872 104.374 127.973 104.451 128.092C104.529 128.212 104.568 128.366 104.568 128.556ZM106.558 128.992C106.65 128.992 106.741 128.984 106.83 128.968C106.92 128.95 107.002 128.929 107.075 128.905V129.437C106.998 129.471 106.897 129.5 106.773 129.524C106.65 129.548 106.521 129.56 106.388 129.56C106.201 129.56 106.032 129.529 105.883 129.467C105.733 129.403 105.615 129.295 105.527 129.141C105.44 128.988 105.396 128.776 105.396 128.505V126.727H104.945V126.413L105.429 126.165L105.659 125.457H106.101V126.192H107.048V126.727H106.101V128.496C106.101 128.663 106.143 128.788 106.227 128.869C106.31 128.951 106.421 128.992 106.558 128.992ZM113.055 129.5H112.174L110.034 126.012H110.007C110.015 126.13 110.022 126.255 110.028 126.386C110.036 126.517 110.042 126.653 110.046 126.792C110.052 126.932 110.057 127.073 110.061 127.217V129.5H109.409V125.131H110.285L112.422 128.594H112.443C112.439 128.493 112.434 128.376 112.428 128.245C112.422 128.113 112.416 127.978 112.41 127.838C112.406 127.697 112.403 127.56 112.401 127.429V125.131H113.055V129.5ZM115.428 126.129C115.847 126.129 116.162 126.222 116.375 126.407C116.591 126.592 116.698 126.881 116.698 127.274V129.5H116.199L116.065 129.031H116.041C115.947 129.15 115.85 129.249 115.751 129.327C115.651 129.404 115.536 129.462 115.404 129.5C115.275 129.54 115.116 129.56 114.929 129.56C114.732 129.56 114.555 129.524 114.4 129.452C114.245 129.378 114.122 129.267 114.033 129.117C113.943 128.968 113.898 128.779 113.898 128.55C113.898 128.209 114.025 127.953 114.278 127.782C114.533 127.61 114.917 127.516 115.431 127.498L116.005 127.477V127.303C116.005 127.074 115.951 126.911 115.844 126.813C115.738 126.716 115.589 126.667 115.395 126.667C115.23 126.667 115.07 126.691 114.914 126.739C114.759 126.786 114.607 126.845 114.46 126.915L114.233 126.419C114.394 126.333 114.577 126.263 114.783 126.21C114.99 126.156 115.205 126.129 115.428 126.129ZM116.002 127.919L115.575 127.934C115.224 127.946 114.978 128.006 114.836 128.113C114.695 128.221 114.624 128.368 114.624 128.556C114.624 128.719 114.673 128.839 114.771 128.914C114.868 128.988 114.997 129.025 115.156 129.025C115.399 129.025 115.6 128.956 115.76 128.819C115.921 128.679 116.002 128.475 116.002 128.206V127.919ZM121.42 126.129C121.791 126.129 122.07 126.225 122.257 126.416C122.446 126.607 122.541 126.914 122.541 127.336V129.5H121.838V127.462C121.838 127.211 121.79 127.022 121.692 126.894C121.594 126.767 121.446 126.703 121.247 126.703C120.968 126.703 120.767 126.792 120.643 126.972C120.522 127.149 120.461 127.407 120.461 127.746V129.5H119.758V127.462C119.758 127.294 119.737 127.155 119.693 127.043C119.651 126.93 119.586 126.845 119.498 126.789C119.411 126.732 119.3 126.703 119.167 126.703C118.973 126.703 118.819 126.747 118.704 126.834C118.59 126.922 118.508 127.051 118.458 127.223C118.409 127.392 118.384 127.6 118.384 127.847V129.5H117.681V126.192H118.228L118.327 126.637H118.366C118.434 126.521 118.517 126.427 118.617 126.353C118.718 126.277 118.831 126.222 118.955 126.186C119.078 126.148 119.207 126.129 119.34 126.129C119.587 126.129 119.795 126.173 119.965 126.26C120.134 126.346 120.261 126.478 120.344 126.655H120.398C120.502 126.476 120.646 126.343 120.831 126.257C121.017 126.172 121.213 126.129 121.42 126.129ZM124.839 126.129C125.134 126.129 125.387 126.19 125.598 126.311C125.809 126.433 125.972 126.605 126.085 126.828C126.199 127.051 126.255 127.318 126.255 127.629V128.006H124.047C124.055 128.327 124.141 128.574 124.304 128.747C124.469 128.92 124.7 129.007 124.997 129.007C125.208 129.007 125.398 128.987 125.565 128.947C125.734 128.905 125.909 128.845 126.088 128.765V129.336C125.923 129.413 125.754 129.47 125.583 129.506C125.412 129.542 125.206 129.56 124.967 129.56C124.643 129.56 124.357 129.497 124.11 129.371C123.865 129.244 123.672 129.055 123.533 128.804C123.395 128.553 123.327 128.241 123.327 127.868C123.327 127.498 123.389 127.183 123.515 126.924C123.64 126.665 123.817 126.468 124.044 126.332C124.271 126.197 124.536 126.129 124.839 126.129ZM124.839 126.658C124.618 126.658 124.438 126.73 124.301 126.873C124.165 127.017 124.086 127.227 124.062 127.504H125.568C125.566 127.338 125.538 127.192 125.484 127.064C125.433 126.937 125.353 126.837 125.245 126.766C125.14 126.694 125.004 126.658 124.839 126.658Z" fill="#AFBDEB"/>
<path d="M58.7856 161.628C58.5464 161.628 58.3322 161.672 58.1431 161.758C57.9562 161.845 57.7979 161.97 57.668 162.134C57.5381 162.296 57.439 162.493 57.3706 162.726C57.3022 162.956 57.2681 163.215 57.2681 163.505C57.2681 163.892 57.3228 164.226 57.4321 164.506C57.5415 164.784 57.7078 164.999 57.9312 165.149C58.1545 165.297 58.437 165.371 58.7788 165.371C58.9907 165.371 59.1969 165.351 59.3975 165.31C59.598 165.269 59.8053 165.213 60.0195 165.142V165.839C59.8167 165.919 59.6117 165.977 59.4043 166.014C59.1969 166.05 58.9577 166.068 58.6865 166.068C58.1761 166.068 57.7523 165.962 57.415 165.75C57.0801 165.539 56.8294 165.24 56.6631 164.855C56.499 164.47 56.417 164.019 56.417 163.501C56.417 163.123 56.4694 162.777 56.5742 162.462C56.679 162.148 56.8317 161.877 57.0322 161.649C57.2327 161.419 57.48 161.242 57.7739 161.119C58.0701 160.994 58.4085 160.931 58.7891 160.931C59.0397 160.931 59.2858 160.96 59.5273 161.017C59.7712 161.071 59.9967 161.15 60.2041 161.252L59.917 161.929C59.7438 161.847 59.5627 161.777 59.3735 161.717C59.1844 161.658 58.9884 161.628 58.7856 161.628ZM64.3091 162.216V166H63.6768L63.5674 165.491H63.5229C63.4432 165.621 63.3418 165.729 63.2188 165.815C63.0957 165.9 62.959 165.962 62.8086 166.003C62.6582 166.047 62.4998 166.068 62.3335 166.068C62.0487 166.068 61.8049 166.021 61.6021 165.925C61.4015 165.827 61.2477 165.676 61.1406 165.474C61.0335 165.271 60.98 165.009 60.98 164.688V162.216H61.7866V164.537C61.7866 164.831 61.8459 165.051 61.9644 165.197C62.0851 165.343 62.272 165.416 62.5249 165.416C62.7687 165.416 62.9624 165.365 63.106 165.265C63.2495 165.165 63.3509 165.017 63.4102 164.821C63.4717 164.625 63.5024 164.384 63.5024 164.1V162.216H64.3091ZM68.0039 164.92C68.0039 165.168 67.9435 165.378 67.8228 165.549C67.702 165.72 67.5254 165.85 67.293 165.938C67.0628 166.025 66.7803 166.068 66.4453 166.068C66.181 166.068 65.9531 166.049 65.7617 166.01C65.5726 165.974 65.3937 165.917 65.2251 165.839V165.146C65.4051 165.23 65.6068 165.303 65.8301 165.364C66.0557 165.426 66.2687 165.457 66.4692 165.457C66.7336 165.457 66.9238 165.416 67.04 165.333C67.1562 165.249 67.2144 165.138 67.2144 164.999C67.2144 164.917 67.1904 164.844 67.1426 164.78C67.097 164.714 67.0104 164.646 66.8828 164.578C66.7575 164.507 66.5729 164.423 66.3291 164.325C66.0898 164.229 65.8882 164.134 65.7241 164.038C65.5601 163.942 65.4359 163.827 65.3516 163.693C65.2673 163.556 65.2251 163.382 65.2251 163.17C65.2251 162.835 65.3573 162.581 65.6216 162.408C65.8882 162.232 66.2402 162.145 66.6777 162.145C66.9102 162.145 67.1289 162.168 67.334 162.216C67.5413 162.262 67.7441 162.329 67.9424 162.418L67.6895 163.023C67.5186 162.948 67.3465 162.886 67.1733 162.838C67.0024 162.788 66.8281 162.763 66.6504 162.763C66.443 162.763 66.2847 162.795 66.1753 162.859C66.0682 162.923 66.0146 163.014 66.0146 163.132C66.0146 163.221 66.0409 163.296 66.0933 163.358C66.1457 163.419 66.2357 163.481 66.3633 163.542C66.4932 163.604 66.6732 163.68 66.9033 163.771C67.1289 163.858 67.3237 163.949 67.4878 164.045C67.6541 164.138 67.7817 164.253 67.8706 164.39C67.9595 164.527 68.0039 164.703 68.0039 164.92ZM70.2803 165.419C70.3851 165.419 70.4888 165.41 70.5913 165.392C70.6938 165.371 70.7873 165.347 70.8716 165.32V165.928C70.7827 165.967 70.6676 166 70.5264 166.027C70.3851 166.055 70.2381 166.068 70.0854 166.068C69.8713 166.068 69.6787 166.033 69.5078 165.962C69.3369 165.889 69.2013 165.765 69.1011 165.59C69.0008 165.414 68.9507 165.172 68.9507 164.862V162.828H68.4346V162.469L68.9883 162.186L69.2515 161.375H69.7573V162.216H70.8408V162.828H69.7573V164.852C69.7573 165.043 69.8052 165.185 69.9009 165.279C69.9966 165.372 70.123 165.419 70.2803 165.419ZM74.9902 164.1C74.9902 164.414 74.9492 164.693 74.8672 164.937C74.7852 165.181 74.6655 165.387 74.5083 165.556C74.3511 165.722 74.1619 165.85 73.9409 165.938C73.7199 166.025 73.4704 166.068 73.1924 166.068C72.9326 166.068 72.6945 166.025 72.478 165.938C72.2616 165.85 72.0736 165.722 71.9141 165.556C71.7568 165.387 71.6349 165.181 71.5483 164.937C71.4618 164.693 71.4185 164.414 71.4185 164.1C71.4185 163.683 71.4902 163.329 71.6338 163.04C71.7796 162.748 71.987 162.526 72.2559 162.374C72.5247 162.221 72.8449 162.145 73.2163 162.145C73.5649 162.145 73.8726 162.221 74.1392 162.374C74.4058 162.526 74.6143 162.748 74.7646 163.04C74.915 163.332 74.9902 163.685 74.9902 164.1ZM72.2456 164.1C72.2456 164.375 72.2786 164.611 72.3447 164.807C72.4131 165.003 72.5179 165.153 72.6592 165.258C72.8005 165.361 72.9827 165.412 73.2061 165.412C73.4294 165.412 73.6117 165.361 73.7529 165.258C73.8942 165.153 73.9979 165.003 74.064 164.807C74.13 164.611 74.1631 164.375 74.1631 164.1C74.1631 163.824 74.13 163.59 74.064 163.399C73.9979 163.205 73.8942 163.058 73.7529 162.958C73.6117 162.855 73.4282 162.804 73.2026 162.804C72.87 162.804 72.6273 162.916 72.4746 163.139C72.3219 163.362 72.2456 163.683 72.2456 164.1ZM80.189 162.145C80.6128 162.145 80.9318 162.254 81.146 162.473C81.3625 162.691 81.4707 163.042 81.4707 163.525V166H80.6675V163.669C80.6675 163.382 80.6117 163.165 80.5 163.02C80.3883 162.874 80.2186 162.801 79.9907 162.801C79.6717 162.801 79.4416 162.903 79.3003 163.108C79.1613 163.311 79.0918 163.606 79.0918 163.994V166H78.2886V163.669C78.2886 163.478 78.2635 163.318 78.2134 163.19C78.1655 163.061 78.0915 162.964 77.9912 162.9C77.891 162.834 77.7645 162.801 77.6118 162.801C77.3908 162.801 77.2142 162.851 77.082 162.951C76.9521 163.051 76.8587 163.2 76.8018 163.396C76.7448 163.589 76.7163 163.827 76.7163 164.11V166H75.9131V162.216H76.5386L76.6514 162.726H76.6958C76.7733 162.593 76.869 162.485 76.9829 162.401C77.0991 162.314 77.2279 162.25 77.3691 162.209C77.5104 162.166 77.6574 162.145 77.8101 162.145C78.0926 162.145 78.3307 162.195 78.5244 162.295C78.7181 162.393 78.8628 162.543 78.9585 162.746H79.02C79.1385 162.541 79.3037 162.389 79.5156 162.292C79.7275 162.194 79.952 162.145 80.189 162.145ZM88.416 161.003V164.236C88.416 164.585 88.342 164.897 88.1938 165.173C88.048 165.449 87.827 165.667 87.5308 165.829C87.2345 165.989 86.862 166.068 86.4131 166.068C85.7728 166.068 85.2852 165.901 84.9502 165.566C84.6175 165.229 84.4512 164.781 84.4512 164.223V161.003H85.2715V164.151C85.2715 164.568 85.3695 164.875 85.5654 165.074C85.7614 165.272 86.0542 165.371 86.4438 165.371C86.7127 165.371 86.9315 165.324 87.1001 165.231C87.271 165.135 87.3963 164.996 87.4761 164.814C87.5581 164.629 87.5991 164.407 87.5991 164.147V161.003H88.416ZM91.0991 161.003C91.5298 161.003 91.8853 161.055 92.1655 161.16C92.4481 161.265 92.6577 161.424 92.7944 161.639C92.9334 161.853 93.0029 162.125 93.0029 162.456C93.0029 162.702 92.9574 162.911 92.8662 163.084C92.7751 163.258 92.6554 163.401 92.5073 163.515C92.3592 163.629 92.2008 163.72 92.0322 163.789L93.4507 166H92.5244L91.3179 163.997H90.5146V166H89.6943V161.003H91.0991ZM91.0444 161.687H90.5146V163.32H91.082C91.4626 163.32 91.7383 163.25 91.9092 163.108C92.0824 162.967 92.1689 162.759 92.1689 162.483C92.1689 162.194 92.0767 161.988 91.8921 161.868C91.7098 161.747 91.4272 161.687 91.0444 161.687ZM94.165 166V161.003H94.9854V165.303H97.1079V166H94.165Z" fill="#F5FAFF"/>
<rect x="56" y="174" width="306.021" height="30" rx="3.49738" fill="#2D344E"/>
<path d="M66.5425 188.129C66.9609 188.129 67.2766 188.222 67.4898 188.407C67.705 188.592 67.8126 188.881 67.8126 189.274V191.5H67.3135L67.179 191.031H67.1551C67.0615 191.15 66.9648 191.249 66.8652 191.327C66.7656 191.404 66.6501 191.462 66.5186 191.5C66.3891 191.54 66.2307 191.56 66.0434 191.56C65.8462 191.56 65.6698 191.524 65.5144 191.452C65.359 191.378 65.2365 191.267 65.1469 191.117C65.0572 190.968 65.0124 190.779 65.0124 190.55C65.0124 190.209 65.1389 189.953 65.3919 189.782C65.6469 189.61 66.0314 189.516 66.5455 189.498L67.1193 189.477V189.303C67.1193 189.074 67.0655 188.911 66.9579 188.813C66.8523 188.716 66.7029 188.667 66.5096 188.667C66.3442 188.667 66.1839 188.691 66.0285 188.739C65.8731 188.786 65.7216 188.845 65.5742 188.915L65.3471 188.419C65.5085 188.333 65.6918 188.263 65.897 188.21C66.1042 188.156 66.3193 188.129 66.5425 188.129ZM67.1163 189.919L66.6889 189.934C66.3383 189.946 66.0922 190.006 65.9508 190.113C65.8093 190.221 65.7386 190.368 65.7386 190.556C65.7386 190.719 65.7874 190.839 65.885 190.914C65.9826 190.988 66.1111 191.025 66.2705 191.025C66.5136 191.025 66.7148 190.956 66.8742 190.819C67.0356 190.679 67.1163 190.475 67.1163 190.206V189.919ZM69.5011 191.5H68.7958V186.85H69.5011V191.5ZM71.2105 191.5H70.5052V186.85H71.2105V191.5ZM75.1433 189.838C75.1433 190.113 75.1075 190.357 75.0358 190.571C74.964 190.784 74.8594 190.964 74.722 191.111C74.5845 191.257 74.4191 191.369 74.2259 191.446C74.0326 191.522 73.8145 191.56 73.5714 191.56C73.3443 191.56 73.1361 191.522 72.9468 191.446C72.7575 191.369 72.5932 191.257 72.4537 191.111C72.3162 190.964 72.2096 190.784 72.1339 190.571C72.0582 190.357 72.0204 190.113 72.0204 189.838C72.0204 189.474 72.0831 189.165 72.2086 188.912C72.3362 188.657 72.5175 188.463 72.7525 188.329C72.9876 188.196 73.2676 188.129 73.5923 188.129C73.8971 188.129 74.1661 188.196 74.3992 188.329C74.6323 188.463 74.8146 188.657 74.9461 188.912C75.0776 189.167 75.1433 189.476 75.1433 189.838ZM72.7436 189.838C72.7436 190.079 72.7725 190.286 72.8303 190.457C72.89 190.628 72.9817 190.76 73.1052 190.851C73.2287 190.941 73.3881 190.986 73.5833 190.986C73.7786 190.986 73.938 190.941 74.0615 190.851C74.185 190.76 74.2757 190.628 74.3335 190.457C74.3912 190.286 74.4201 190.079 74.4201 189.838C74.4201 189.597 74.3912 189.393 74.3335 189.226C74.2757 189.056 74.185 188.928 74.0615 188.84C73.938 188.751 73.7776 188.706 73.5804 188.706C73.2895 188.706 73.0773 188.803 72.9438 188.999C72.8103 189.194 72.7436 189.474 72.7436 189.838ZM78.6548 191.497L78.2364 189.958C78.2165 189.882 78.1926 189.791 78.1647 189.683C78.1368 189.575 78.1089 189.465 78.081 189.351C78.0531 189.236 78.0272 189.129 78.0033 189.032C77.9814 188.934 77.9645 188.858 77.9525 188.804H77.9286C77.9186 188.858 77.9027 188.934 77.8808 189.032C77.8589 189.129 77.834 189.236 77.8061 189.351C77.7782 189.467 77.7503 189.579 77.7224 189.689C77.6965 189.799 77.6726 189.892 77.6507 189.97L77.2114 191.497H76.4403L75.5139 188.189H76.2252L76.6555 189.832C76.6834 189.944 76.7103 190.065 76.7362 190.194C76.7641 190.324 76.788 190.447 76.8079 190.565C76.8278 190.682 76.8428 190.779 76.8528 190.854H76.8767C76.8846 190.801 76.8956 190.733 76.9095 190.651C76.9235 190.568 76.9394 190.481 76.9573 190.391C76.9753 190.3 76.9932 190.214 77.0111 190.134C77.0291 190.053 77.046 189.987 77.0619 189.937L77.57 188.189H78.338L78.8252 189.937C78.8471 190.013 78.871 190.108 78.8969 190.224C78.9228 190.337 78.9457 190.452 78.9656 190.568C78.9875 190.681 79.0015 190.776 79.0075 190.851H79.0314C79.0393 190.784 79.0533 190.692 79.0732 190.577C79.0951 190.459 79.12 190.334 79.1479 190.203C79.1758 190.07 79.2047 189.946 79.2346 189.832L79.6739 188.189H80.3732L79.4408 191.497H78.6548ZM81.6463 191.5H80.941V186.85H81.6463V191.5ZM83.3527 188.192V191.5H82.6504V188.192H83.3527ZM83.006 186.925C83.1136 186.925 83.2063 186.954 83.284 187.011C83.3637 187.069 83.4035 187.169 83.4035 187.31C83.4035 187.45 83.3637 187.549 83.284 187.609C83.2063 187.667 83.1136 187.696 83.006 187.696C82.8945 187.696 82.7998 187.667 82.7221 187.609C82.6464 187.549 82.6086 187.45 82.6086 187.31C82.6086 187.169 82.6464 187.069 82.7221 187.011C82.7998 186.954 82.8945 186.925 83.006 186.925ZM86.5833 190.556C86.5833 190.773 86.5305 190.956 86.4249 191.106C86.3193 191.255 86.1649 191.369 85.9617 191.446C85.7604 191.522 85.5134 191.56 85.2205 191.56C84.9894 191.56 84.7902 191.543 84.6228 191.509C84.4575 191.477 84.3011 191.427 84.1536 191.36V190.753C84.311 190.827 84.4873 190.89 84.6826 190.944C84.8798 190.998 85.0661 191.025 85.2414 191.025C85.4725 191.025 85.6389 190.989 85.7405 190.917C85.8421 190.844 85.8929 190.746 85.8929 190.624C85.8929 190.553 85.872 190.489 85.8302 190.433C85.7903 190.375 85.7146 190.317 85.603 190.257C85.4935 190.195 85.3321 190.121 85.1189 190.036C84.9097 189.952 84.7334 189.868 84.5899 189.785C84.4465 189.701 84.3379 189.6 84.2642 189.483C84.1905 189.363 84.1536 189.211 84.1536 189.026C84.1536 188.733 84.2692 188.511 84.5003 188.359C84.7334 188.206 85.0412 188.129 85.4237 188.129C85.6269 188.129 85.8182 188.15 85.9975 188.192C86.1788 188.232 86.3561 188.29 86.5295 188.368L86.3083 188.897C86.1589 188.831 86.0085 188.777 85.8571 188.736C85.7076 188.692 85.5552 188.67 85.3998 188.67C85.2185 188.67 85.0801 188.698 84.9844 188.754C84.8908 188.809 84.844 188.889 84.844 188.993C84.844 189.07 84.8669 189.136 84.9127 189.19C84.9585 189.244 85.0372 189.297 85.1488 189.351C85.2623 189.405 85.4197 189.472 85.621 189.552C85.8182 189.627 85.9886 189.707 86.132 189.791C86.2774 189.872 86.389 189.973 86.4667 190.092C86.5444 190.212 86.5833 190.366 86.5833 190.556ZM88.5736 190.992C88.6652 190.992 88.7559 190.984 88.8455 190.968C88.9352 190.95 89.0169 190.929 89.0906 190.905V191.437C89.0129 191.471 88.9123 191.5 88.7888 191.524C88.6652 191.548 88.5367 191.56 88.4032 191.56C88.216 191.56 88.0476 191.529 87.8982 191.467C87.7488 191.403 87.6302 191.295 87.5426 191.141C87.4549 190.988 87.4111 190.776 87.4111 190.505V188.727H86.9598V188.413L87.4439 188.165L87.6741 187.457H88.1164V188.192H89.0637V188.727H88.1164V190.496C88.1164 190.663 88.1582 190.788 88.2419 190.869C88.3255 190.951 88.4361 190.992 88.5736 190.992ZM90.9943 190.992C91.0859 190.992 91.1766 190.984 91.2662 190.968C91.3559 190.95 91.4376 190.929 91.5113 190.905V191.437C91.4336 191.471 91.333 191.5 91.2094 191.524C91.0859 191.548 90.9574 191.56 90.8239 191.56C90.6366 191.56 90.4683 191.529 90.3189 191.467C90.1694 191.403 90.0509 191.295 89.9632 191.141C89.8756 190.988 89.8317 190.776 89.8317 190.505V188.727H89.3805V188.413L89.8646 188.165L90.0947 187.457H90.537V188.192H91.4844V188.727H90.537V190.496C90.537 190.663 90.5789 190.788 90.6625 190.869C90.7462 190.951 90.8568 190.992 90.9943 190.992ZM95.1124 189.838C95.1124 190.113 95.0765 190.357 95.0048 190.571C94.9331 190.784 94.8285 190.964 94.691 191.111C94.5536 191.257 94.3882 191.369 94.1949 191.446C94.0017 191.522 93.7835 191.56 93.5405 191.56C93.3133 191.56 93.1051 191.522 92.9159 191.446C92.7266 191.369 92.5622 191.257 92.4228 191.111C92.2853 190.964 92.1787 190.784 92.103 190.571C92.0273 190.357 91.9894 190.113 91.9894 189.838C91.9894 189.474 92.0522 189.165 92.1777 188.912C92.3052 188.657 92.4865 188.463 92.7216 188.329C92.9567 188.196 93.2366 188.129 93.5614 188.129C93.8662 188.129 94.1352 188.196 94.3683 188.329C94.6014 188.463 94.7837 188.657 94.9152 188.912C95.0467 189.167 95.1124 189.476 95.1124 189.838ZM92.7126 189.838C92.7126 190.079 92.7415 190.286 92.7993 190.457C92.8591 190.628 92.9507 190.76 93.0743 190.851C93.1978 190.941 93.3572 190.986 93.5524 190.986C93.7477 190.986 93.907 190.941 94.0306 190.851C94.1541 190.76 94.2447 190.628 94.3025 190.457C94.3603 190.286 94.3892 190.079 94.3892 189.838C94.3892 189.597 94.3603 189.393 94.3025 189.226C94.2447 189.056 94.1541 188.928 94.0306 188.84C93.907 188.751 93.7467 188.706 93.5494 188.706C93.2585 188.706 93.0464 188.803 92.9129 188.999C92.7794 189.194 92.7126 189.474 92.7126 189.838ZM98.848 189.838C98.848 190.113 98.8121 190.357 98.7404 190.571C98.6687 190.784 98.5641 190.964 98.4266 191.111C98.2892 191.257 98.1238 191.369 97.9305 191.446C97.7373 191.522 97.5191 191.56 97.2761 191.56C97.0489 191.56 96.8407 191.522 96.6515 191.446C96.4622 191.369 96.2978 191.257 96.1584 191.111C96.0209 190.964 95.9143 190.784 95.8386 190.571C95.7629 190.357 95.725 190.113 95.725 189.838C95.725 189.474 95.7878 189.165 95.9133 188.912C96.0408 188.657 96.2221 188.463 96.4572 188.329C96.6923 188.196 96.9722 188.129 97.297 188.129C97.6018 188.129 97.8708 188.196 98.1039 188.329C98.337 188.463 98.5193 188.657 98.6508 188.912C98.7823 189.167 98.848 189.476 98.848 189.838ZM96.4483 189.838C96.4483 190.079 96.4771 190.286 96.5349 190.457C96.5947 190.628 96.6863 190.76 96.8099 190.851C96.9334 190.941 97.0928 190.986 97.288 190.986C97.4833 190.986 97.6427 190.941 97.7662 190.851C97.8897 190.76 97.9803 190.628 98.0381 190.457C98.0959 190.286 98.1248 190.079 98.1248 189.838C98.1248 189.597 98.0959 189.393 98.0381 189.226C97.9803 189.056 97.8897 188.928 97.7662 188.84C97.6427 188.751 97.4823 188.706 97.285 188.706C96.9941 188.706 96.782 188.803 96.6485 188.999C96.515 189.194 96.4483 189.474 96.4483 189.838ZM100.36 191.5H99.6549V186.85H100.36V191.5ZM101.263 191.129C101.263 190.966 101.305 190.851 101.388 190.786C101.474 190.718 101.577 190.684 101.699 190.684C101.821 190.684 101.924 190.718 102.01 190.786C102.097 190.851 102.141 190.966 102.141 191.129C102.141 191.289 102.097 191.404 102.01 191.476C101.924 191.546 101.821 191.581 101.699 191.581C101.577 191.581 101.474 191.546 101.388 191.476C101.305 191.404 101.263 191.289 101.263 191.129ZM104.377 191.56C104.064 191.56 103.793 191.499 103.564 191.377C103.335 191.256 103.158 191.07 103.035 190.819C102.911 190.568 102.85 190.249 102.85 189.862C102.85 189.46 102.917 189.131 103.053 188.876C103.188 188.621 103.376 188.433 103.615 188.311C103.856 188.19 104.132 188.129 104.442 188.129C104.64 188.129 104.818 188.149 104.977 188.189C105.139 188.227 105.275 188.273 105.387 188.329L105.178 188.891C105.056 188.841 104.932 188.799 104.804 188.766C104.677 188.732 104.554 188.715 104.436 188.715C104.243 188.715 104.082 188.758 103.952 188.843C103.825 188.929 103.729 189.056 103.665 189.226C103.604 189.395 103.573 189.605 103.573 189.856C103.573 190.099 103.605 190.305 103.668 190.472C103.732 190.637 103.827 190.763 103.952 190.849C104.078 190.932 104.232 190.974 104.416 190.974C104.597 190.974 104.759 190.952 104.903 190.908C105.046 190.864 105.182 190.808 105.309 190.738V191.348C105.184 191.419 105.049 191.472 104.906 191.506C104.762 191.542 104.586 191.56 104.377 191.56ZM109.015 189.838C109.015 190.113 108.979 190.357 108.907 190.571C108.836 190.784 108.731 190.964 108.593 191.111C108.456 191.257 108.291 191.369 108.097 191.446C107.904 191.522 107.686 191.56 107.443 191.56C107.216 191.56 107.008 191.522 106.818 191.446C106.629 191.369 106.465 191.257 106.325 191.111C106.188 190.964 106.081 190.784 106.005 190.571C105.93 190.357 105.892 190.113 105.892 189.838C105.892 189.474 105.955 189.165 106.08 188.912C106.208 188.657 106.389 188.463 106.624 188.329C106.859 188.196 107.139 188.129 107.464 188.129C107.769 188.129 108.038 188.196 108.271 188.329C108.504 188.463 108.686 188.657 108.818 188.912C108.949 189.167 109.015 189.476 109.015 189.838ZM106.615 189.838C106.615 190.079 106.644 190.286 106.702 190.457C106.762 190.628 106.853 190.76 106.977 190.851C107.1 190.941 107.26 190.986 107.455 190.986C107.65 190.986 107.809 190.941 107.933 190.851C108.057 190.76 108.147 190.628 108.205 190.457C108.263 190.286 108.292 190.079 108.292 189.838C108.292 189.597 108.263 189.393 108.205 189.226C108.147 189.056 108.057 188.928 107.933 188.84C107.809 188.751 107.649 188.706 107.452 188.706C107.161 188.706 106.949 188.803 106.815 188.999C106.682 189.194 106.615 189.474 106.615 189.838ZM113.56 188.129C113.931 188.129 114.21 188.225 114.397 188.416C114.586 188.607 114.681 188.914 114.681 189.336V191.5H113.979V189.462C113.979 189.211 113.93 189.022 113.832 188.894C113.735 188.767 113.586 188.703 113.387 188.703C113.108 188.703 112.907 188.792 112.783 188.972C112.662 189.149 112.601 189.407 112.601 189.746V191.5H111.899V189.462C111.899 189.294 111.877 189.155 111.833 189.043C111.791 188.93 111.726 188.845 111.639 188.789C111.551 188.732 111.44 188.703 111.307 188.703C111.114 188.703 110.959 188.747 110.844 188.834C110.73 188.922 110.649 189.051 110.599 189.223C110.549 189.392 110.524 189.6 110.524 189.847V191.5H109.822V188.192H110.369L110.467 188.637H110.506C110.574 188.521 110.658 188.427 110.757 188.353C110.859 188.277 110.971 188.222 111.095 188.186C111.218 188.148 111.347 188.129 111.48 188.129C111.727 188.129 111.936 188.173 112.105 188.26C112.274 188.346 112.401 188.478 112.484 188.655H112.538C112.642 188.476 112.786 188.343 112.972 188.257C113.157 188.172 113.353 188.129 113.56 188.129ZM117.499 187.131L115.87 191.5H115.213L116.842 187.131H117.499Z" fill="#6976A4"/>
<path d="M60.7134 225.454C60.7134 226.016 60.6086 226.487 60.3989 226.865C60.1893 227.241 59.8851 227.525 59.4863 227.716C59.0876 227.905 58.6068 228 58.0439 228H56.6562V223.003H58.1943C58.7116 223.003 59.1582 223.096 59.5342 223.283C59.9102 223.468 60.2007 223.742 60.4058 224.107C60.6108 224.469 60.7134 224.918 60.7134 225.454ZM59.8589 225.478C59.8589 225.067 59.7939 224.73 59.6641 224.466C59.5365 224.201 59.3473 224.006 59.0967 223.878C58.8483 223.748 58.5418 223.683 58.1772 223.683H57.4766V227.313H58.0576C58.6615 227.313 59.1126 227.159 59.4111 226.852C59.7096 226.544 59.8589 226.086 59.8589 225.478ZM63.2153 224.145C63.5526 224.145 63.842 224.214 64.0835 224.353C64.325 224.492 64.5107 224.689 64.6406 224.944C64.7705 225.2 64.8354 225.505 64.8354 225.86V226.291H62.3096C62.3187 226.658 62.4167 226.94 62.6035 227.139C62.7926 227.337 63.057 227.436 63.3965 227.436C63.638 227.436 63.8545 227.413 64.0459 227.368C64.2396 227.32 64.439 227.25 64.644 227.159V227.812C64.4549 227.901 64.2624 227.966 64.0664 228.007C63.8704 228.048 63.6357 228.068 63.3623 228.068C62.9909 228.068 62.6639 227.997 62.3813 227.853C62.1011 227.707 61.8812 227.491 61.7217 227.204C61.5645 226.917 61.4858 226.56 61.4858 226.134C61.4858 225.71 61.5576 225.35 61.7012 225.054C61.8447 224.757 62.0464 224.532 62.3062 224.377C62.5659 224.222 62.869 224.145 63.2153 224.145ZM63.2153 224.75C62.9624 224.75 62.7573 224.832 62.6001 224.996C62.4451 225.16 62.354 225.4 62.3267 225.717H64.0493C64.047 225.528 64.0151 225.36 63.9536 225.214C63.8944 225.069 63.8032 224.955 63.6802 224.873C63.5594 224.791 63.4045 224.75 63.2153 224.75ZM68.2842 226.92C68.2842 227.168 68.2238 227.378 68.103 227.549C67.9823 227.72 67.8057 227.85 67.5732 227.938C67.3431 228.025 67.0605 228.068 66.7256 228.068C66.4613 228.068 66.2334 228.049 66.042 228.01C65.8529 227.974 65.674 227.917 65.5054 227.839V227.146C65.6854 227.23 65.887 227.303 66.1104 227.364C66.3359 227.426 66.549 227.457 66.7495 227.457C67.0138 227.457 67.2041 227.416 67.3203 227.333C67.4365 227.249 67.4946 227.138 67.4946 226.999C67.4946 226.917 67.4707 226.844 67.4229 226.78C67.3773 226.714 67.2907 226.646 67.1631 226.578C67.0378 226.507 66.8532 226.423 66.6094 226.325C66.3701 226.229 66.1685 226.134 66.0044 226.038C65.8403 225.942 65.7161 225.827 65.6318 225.693C65.5475 225.556 65.5054 225.382 65.5054 225.17C65.5054 224.835 65.6375 224.581 65.9019 224.408C66.1685 224.232 66.5205 224.145 66.958 224.145C67.1904 224.145 67.4092 224.168 67.6143 224.216C67.8216 224.262 68.0244 224.329 68.2227 224.418L67.9697 225.023C67.7988 224.948 67.6268 224.886 67.4536 224.838C67.2827 224.788 67.1084 224.763 66.9307 224.763C66.7233 224.763 66.5649 224.795 66.4556 224.859C66.3485 224.923 66.2949 225.014 66.2949 225.132C66.2949 225.221 66.3211 225.296 66.3735 225.358C66.4259 225.419 66.516 225.481 66.6436 225.542C66.7734 225.604 66.9535 225.68 67.1836 225.771C67.4092 225.858 67.604 225.949 67.7681 226.045C67.9344 226.138 68.062 226.253 68.1509 226.39C68.2397 226.527 68.2842 226.703 68.2842 226.92ZM70.6768 228.068C70.319 228.068 70.0091 227.999 69.7471 227.86C69.485 227.721 69.2834 227.508 69.1421 227.221C69.0008 226.934 68.9302 226.569 68.9302 226.127C68.9302 225.667 69.0076 225.291 69.1626 224.999C69.3175 224.707 69.5317 224.492 69.8052 224.353C70.0809 224.214 70.3965 224.145 70.752 224.145C70.9775 224.145 71.1815 224.167 71.3638 224.213C71.5483 224.256 71.7044 224.31 71.832 224.374L71.5928 225.016C71.4538 224.959 71.3114 224.911 71.1655 224.873C71.0197 224.834 70.8796 224.814 70.7451 224.814C70.5241 224.814 70.3395 224.863 70.1914 224.961C70.0456 225.059 69.9362 225.205 69.8633 225.399C69.7926 225.593 69.7573 225.833 69.7573 226.12C69.7573 226.398 69.7938 226.633 69.8667 226.824C69.9396 227.013 70.0479 227.157 70.1914 227.255C70.335 227.351 70.5116 227.398 70.7212 227.398C70.9285 227.398 71.1143 227.373 71.2783 227.323C71.4424 227.273 71.5973 227.208 71.7432 227.128V227.826C71.5996 227.908 71.4458 227.968 71.2817 228.007C71.1177 228.048 70.916 228.068 70.6768 228.068ZM74.5493 224.145C74.6131 224.145 74.6826 224.148 74.7578 224.155C74.833 224.162 74.8979 224.171 74.9526 224.182L74.8774 224.934C74.8296 224.92 74.7703 224.91 74.6997 224.903C74.6313 224.896 74.5698 224.893 74.5151 224.893C74.3716 224.893 74.2349 224.917 74.105 224.965C73.9751 225.01 73.86 225.081 73.7598 225.177C73.6595 225.27 73.5809 225.388 73.5239 225.529C73.467 225.67 73.4385 225.834 73.4385 226.021V228H72.6318V224.216H73.2607L73.3701 224.883H73.4077C73.4829 224.748 73.5763 224.625 73.688 224.514C73.7996 224.402 73.9272 224.313 74.0708 224.247C74.2166 224.179 74.3761 224.145 74.5493 224.145ZM76.4565 224.216V228H75.6533V224.216H76.4565ZM76.0601 222.767C76.1831 222.767 76.2891 222.8 76.3779 222.866C76.4691 222.932 76.5146 223.046 76.5146 223.208C76.5146 223.368 76.4691 223.481 76.3779 223.55C76.2891 223.616 76.1831 223.649 76.0601 223.649C75.9325 223.649 75.8242 223.616 75.7354 223.55C75.6488 223.481 75.6055 223.368 75.6055 223.208C75.6055 223.046 75.6488 222.932 75.7354 222.866C75.8242 222.8 75.9325 222.767 76.0601 222.767ZM79.5498 224.145C79.9987 224.145 80.3587 224.309 80.6299 224.637C80.9033 224.965 81.04 225.452 81.04 226.1C81.04 226.528 80.9762 226.889 80.8486 227.183C80.7233 227.475 80.5467 227.696 80.3188 227.846C80.0933 227.994 79.8301 228.068 79.5293 228.068C79.3379 228.068 79.1715 228.043 79.0303 227.993C78.889 227.943 78.7682 227.878 78.668 227.798C78.5677 227.716 78.4834 227.627 78.415 227.532H78.3672C78.3786 227.623 78.3888 227.724 78.3979 227.836C78.4093 227.945 78.415 228.046 78.415 228.137V229.678H77.6084V224.216H78.2646L78.3774 224.739H78.415C78.4857 224.632 78.5711 224.533 78.6714 224.442C78.7739 224.351 78.897 224.279 79.0405 224.227C79.1864 224.172 79.3561 224.145 79.5498 224.145ZM79.3345 224.801C79.1134 224.801 78.9357 224.845 78.8013 224.934C78.6691 225.021 78.5723 225.152 78.5107 225.327C78.4515 225.503 78.4196 225.722 78.415 225.987V226.1C78.415 226.38 78.4435 226.618 78.5005 226.814C78.5597 227.008 78.6566 227.156 78.791 227.258C78.9277 227.359 79.1123 227.409 79.3447 227.409C79.5407 227.409 79.7025 227.355 79.8301 227.248C79.96 227.141 80.0568 226.988 80.1206 226.79C80.1844 226.592 80.2163 226.358 80.2163 226.089C80.2163 225.681 80.1434 225.365 79.9976 225.139C79.854 224.914 79.633 224.801 79.3345 224.801ZM83.3779 227.419C83.4827 227.419 83.5864 227.41 83.689 227.392C83.7915 227.371 83.8849 227.347 83.9692 227.32V227.928C83.8804 227.967 83.7653 228 83.624 228.027C83.4827 228.055 83.3358 228.068 83.1831 228.068C82.9689 228.068 82.7764 228.033 82.6055 227.962C82.4346 227.889 82.299 227.765 82.1987 227.59C82.0985 227.414 82.0483 227.172 82.0483 226.862V224.828H81.5322V224.469L82.0859 224.186L82.3491 223.375H82.855V224.216H83.9385V224.828H82.855V226.852C82.855 227.043 82.9028 227.185 82.9985 227.279C83.0942 227.372 83.2207 227.419 83.3779 227.419ZM85.5415 224.216V228H84.7383V224.216H85.5415ZM85.145 222.767C85.2681 222.767 85.374 222.8 85.4629 222.866C85.554 222.932 85.5996 223.046 85.5996 223.208C85.5996 223.368 85.554 223.481 85.4629 223.55C85.374 223.616 85.2681 223.649 85.145 223.649C85.0174 223.649 84.9092 223.616 84.8203 223.55C84.7337 223.481 84.6904 223.368 84.6904 223.208C84.6904 223.046 84.7337 222.932 84.8203 222.866C84.9092 222.8 85.0174 222.767 85.145 222.767ZM90.043 226.1C90.043 226.414 90.002 226.693 89.9199 226.937C89.8379 227.181 89.7183 227.387 89.561 227.556C89.4038 227.722 89.2147 227.85 88.9937 227.938C88.7726 228.025 88.5231 228.068 88.2451 228.068C87.9854 228.068 87.7472 228.025 87.5308 227.938C87.3143 227.85 87.1263 227.722 86.9668 227.556C86.8096 227.387 86.6877 227.181 86.6011 226.937C86.5145 226.693 86.4712 226.414 86.4712 226.1C86.4712 225.683 86.543 225.329 86.6865 225.04C86.8324 224.748 87.0397 224.526 87.3086 224.374C87.5775 224.221 87.8976 224.145 88.269 224.145C88.6177 224.145 88.9253 224.221 89.1919 224.374C89.4585 224.526 89.667 224.748 89.8174 225.04C89.9678 225.332 90.043 225.685 90.043 226.1ZM87.2983 226.1C87.2983 226.375 87.3314 226.611 87.3975 226.807C87.4658 227.003 87.5706 227.153 87.7119 227.258C87.8532 227.361 88.0355 227.412 88.2588 227.412C88.4821 227.412 88.6644 227.361 88.8057 227.258C88.9469 227.153 89.0506 227.003 89.1167 226.807C89.1828 226.611 89.2158 226.375 89.2158 226.1C89.2158 225.824 89.1828 225.59 89.1167 225.399C89.0506 225.205 88.9469 225.058 88.8057 224.958C88.6644 224.855 88.481 224.804 88.2554 224.804C87.9227 224.804 87.68 224.916 87.5273 225.139C87.3747 225.362 87.2983 225.683 87.2983 226.1ZM92.938 224.145C93.3641 224.145 93.6956 224.255 93.9326 224.476C94.1719 224.695 94.2915 225.047 94.2915 225.532V228H93.4883V225.683C93.4883 225.389 93.4279 225.169 93.3071 225.023C93.1864 224.875 92.9995 224.801 92.7466 224.801C92.3797 224.801 92.1245 224.914 91.981 225.139C91.8397 225.365 91.769 225.692 91.769 226.12V228H90.9658V224.216H91.5913L91.7041 224.729H91.7485C91.8306 224.597 91.932 224.489 92.0527 224.404C92.1758 224.318 92.3125 224.253 92.4629 224.209C92.6156 224.166 92.7739 224.145 92.938 224.145Z" fill="#F5FAFF"/>
<rect x="56" y="236" width="306.021" height="64" rx="3.49738" fill="#2D344E"/>
<path d="M67.7917 249.995H65.3172V245.626H67.7917V246.229H66.0344V247.416H67.6811V248.016H66.0344V249.388H67.7917V249.995ZM70.3887 246.624C70.7612 246.624 71.0511 246.72 71.2583 246.914C71.4675 247.105 71.5721 247.413 71.5721 247.837V249.995H70.8698V247.969C70.8698 247.712 70.817 247.519 70.7114 247.392C70.6058 247.262 70.4425 247.198 70.2213 247.198C69.9005 247.198 69.6774 247.296 69.5519 247.493C69.4284 247.691 69.3666 247.977 69.3666 248.351V249.995H68.6643V246.687H69.2112L69.3098 247.135H69.3487C69.4204 247.019 69.509 246.925 69.6146 246.851C69.7222 246.775 69.8418 246.718 69.9733 246.681C70.1067 246.643 70.2452 246.624 70.3887 246.624ZM73.7866 249.487C73.8782 249.487 73.9689 249.479 74.0585 249.463C74.1482 249.445 74.2299 249.424 74.3036 249.4V249.932C74.2259 249.966 74.1253 249.995 74.0017 250.019C73.8782 250.043 73.7497 250.055 73.6162 250.055C73.4289 250.055 73.2606 250.024 73.1112 249.962C72.9617 249.898 72.8432 249.79 72.7555 249.636C72.6679 249.483 72.624 249.271 72.624 249V247.221H72.1728V246.908L72.6569 246.66L72.887 245.951H73.3293V246.687H74.2767V247.221H73.3293V248.991C73.3293 249.158 73.3712 249.283 73.4548 249.364C73.5385 249.446 73.6491 249.487 73.7866 249.487ZM76.2939 246.624C76.5888 246.624 76.8418 246.685 77.053 246.806C77.2642 246.928 77.4265 247.1 77.5401 247.323C77.6537 247.546 77.7104 247.813 77.7104 248.124V248.501H75.502C75.5099 248.821 75.5956 249.068 75.759 249.242C75.9243 249.415 76.1554 249.502 76.4523 249.502C76.6635 249.502 76.8528 249.482 77.0201 249.442C77.1895 249.4 77.3638 249.339 77.5431 249.26V249.83C77.3777 249.908 77.2094 249.965 77.038 250.001C76.8667 250.037 76.6615 250.055 76.4224 250.055C76.0977 250.055 75.8118 249.992 75.5647 249.866C75.3197 249.739 75.1274 249.549 74.9879 249.298C74.8505 249.047 74.7817 248.736 74.7817 248.363C74.7817 247.992 74.8445 247.678 74.97 247.419C75.0955 247.16 75.2718 246.962 75.499 246.827C75.7261 246.691 75.9911 246.624 76.2939 246.624ZM76.2939 247.153C76.0728 247.153 75.8934 247.224 75.756 247.368C75.6205 247.511 75.5408 247.722 75.5169 247.998H77.0231C77.0211 247.833 76.9932 247.687 76.9394 247.559C76.8876 247.432 76.8079 247.332 76.7003 247.26C76.5947 247.189 76.4593 247.153 76.2939 247.153ZM80.1789 246.624C80.2347 246.624 80.2955 246.627 80.3612 246.633C80.427 246.639 80.4838 246.647 80.5316 246.657L80.4658 247.314C80.424 247.302 80.3722 247.293 80.3104 247.287C80.2507 247.281 80.1969 247.278 80.1491 247.278C80.0235 247.278 79.904 247.299 79.7904 247.341C79.6769 247.381 79.5763 247.443 79.4886 247.526C79.4009 247.608 79.3322 247.711 79.2824 247.834C79.2326 247.958 79.2077 248.101 79.2077 248.264V249.995H78.5024V246.687H79.0523L79.1479 247.269H79.1808C79.2465 247.152 79.3282 247.044 79.4258 246.947C79.5235 246.849 79.635 246.771 79.7605 246.713C79.8881 246.654 80.0275 246.624 80.1789 246.624ZM86.3531 247.768C86.3531 248.26 86.2615 248.672 86.0782 249.003C85.8949 249.331 85.6289 249.579 85.2803 249.747C84.9316 249.912 84.5112 249.995 84.0191 249.995H82.8058V245.626H84.1506C84.6029 245.626 84.9934 245.707 85.3221 245.871C85.6509 246.032 85.9049 246.272 86.0842 246.591C86.2635 246.908 86.3531 247.3 86.3531 247.768ZM85.606 247.789C85.606 247.431 85.5492 247.136 85.4357 246.905C85.3241 246.674 85.1588 246.502 84.9396 246.391C84.7224 246.277 84.4545 246.22 84.1357 246.22H83.5231V249.394H84.0311C84.5591 249.394 84.9535 249.26 85.2145 248.991C85.4755 248.722 85.606 248.321 85.606 247.789ZM88.5407 246.624C88.8356 246.624 89.0886 246.685 89.2998 246.806C89.511 246.928 89.6734 247.1 89.7869 247.323C89.9005 247.546 89.9573 247.813 89.9573 248.124V248.501H87.7488C87.7567 248.821 87.8424 249.068 88.0058 249.242C88.1711 249.415 88.4023 249.502 88.6991 249.502C88.9103 249.502 89.0996 249.482 89.2669 249.442C89.4363 249.4 89.6106 249.339 89.7899 249.26V249.83C89.6245 249.908 89.4562 249.965 89.2849 250.001C89.1135 250.037 88.9083 250.055 88.6692 250.055C88.3445 250.055 88.0586 249.992 87.8115 249.866C87.5665 249.739 87.3742 249.549 87.2348 249.298C87.0973 249.047 87.0285 248.736 87.0285 248.363C87.0285 247.992 87.0913 247.678 87.2168 247.419C87.3423 247.16 87.5187 246.962 87.7458 246.827C87.9729 246.691 88.2379 246.624 88.5407 246.624ZM88.5407 247.153C88.3196 247.153 88.1403 247.224 88.0028 247.368C87.8673 247.511 87.7876 247.722 87.7637 247.998H89.2699C89.2679 247.833 89.24 247.687 89.1862 247.559C89.1344 247.432 89.0547 247.332 88.9472 247.26C88.8416 247.189 88.7061 247.153 88.5407 247.153ZM92.9726 249.05C92.9726 249.268 92.9198 249.451 92.8143 249.6C92.7087 249.75 92.5543 249.863 92.351 249.941C92.1498 250.017 91.9028 250.055 91.6099 250.055C91.3788 250.055 91.1796 250.038 91.0122 250.004C90.8468 249.972 90.6904 249.922 90.543 249.854V249.248C90.7004 249.321 90.8767 249.385 91.072 249.439C91.2692 249.493 91.4555 249.52 91.6308 249.52C91.8619 249.52 92.0283 249.484 92.1299 249.412C92.2315 249.338 92.2823 249.241 92.2823 249.119C92.2823 249.047 92.2614 248.984 92.2195 248.928C92.1797 248.87 92.104 248.811 91.9924 248.752C91.8828 248.69 91.7215 248.616 91.5083 248.53C91.2991 248.447 91.1228 248.363 90.9793 248.279C90.8359 248.196 90.7273 248.095 90.6536 247.978C90.5799 247.858 90.543 247.706 90.543 247.52C90.543 247.227 90.6586 247.005 90.8897 246.854C91.1228 246.7 91.4306 246.624 91.8131 246.624C92.0163 246.624 92.2076 246.645 92.3869 246.687C92.5682 246.726 92.7455 246.785 92.9189 246.863L92.6977 247.392C92.5483 247.326 92.3979 247.272 92.2464 247.23C92.097 247.187 91.9446 247.165 91.7892 247.165C91.6079 247.165 91.4694 247.193 91.3738 247.248C91.2802 247.304 91.2333 247.384 91.2333 247.487C91.2333 247.565 91.2563 247.631 91.3021 247.685C91.3479 247.738 91.4266 247.792 91.5382 247.846C91.6517 247.9 91.8091 247.967 92.0104 248.046C92.2076 248.122 92.3779 248.202 92.5214 248.285C92.6668 248.367 92.7784 248.468 92.8561 248.587C92.9338 248.707 92.9726 248.861 92.9726 249.05ZM95.0646 250.055C94.7518 250.055 94.4808 249.994 94.2517 249.872C94.0226 249.751 93.8463 249.564 93.7228 249.313C93.5992 249.062 93.5375 248.744 93.5375 248.357C93.5375 247.955 93.6052 247.626 93.7407 247.371C93.8762 247.116 94.0634 246.928 94.3025 246.806C94.5436 246.685 94.8195 246.624 95.1303 246.624C95.3276 246.624 95.5059 246.644 95.6653 246.684C95.8266 246.721 95.9631 246.768 96.0747 246.824L95.8655 247.386C95.744 247.336 95.6194 247.294 95.4919 247.26C95.3644 247.226 95.2419 247.209 95.1244 247.209C94.9311 247.209 94.7697 247.252 94.6402 247.338C94.5127 247.424 94.4171 247.551 94.3533 247.721C94.2916 247.89 94.2607 248.1 94.2607 248.351C94.2607 248.594 94.2926 248.799 94.3563 248.967C94.4201 249.132 94.5147 249.258 94.6402 249.343C94.7657 249.427 94.9201 249.469 95.1034 249.469C95.2847 249.469 95.4471 249.447 95.5906 249.403C95.734 249.359 95.8695 249.302 95.997 249.233V249.842C95.8715 249.914 95.737 249.967 95.5935 250.001C95.4501 250.037 95.2738 250.055 95.0646 250.055ZM98.4505 246.624C98.5063 246.624 98.5671 246.627 98.6328 246.633C98.6986 246.639 98.7554 246.647 98.8032 246.657L98.7374 247.314C98.6956 247.302 98.6438 247.293 98.582 247.287C98.5223 247.281 98.4685 247.278 98.4207 247.278C98.2951 247.278 98.1756 247.299 98.062 247.341C97.9485 247.381 97.8479 247.443 97.7602 247.526C97.6725 247.608 97.6038 247.711 97.554 247.834C97.5042 247.958 97.4793 248.101 97.4793 248.264V249.995H96.774V246.687H97.3239L97.4195 247.269H97.4524C97.5181 247.152 97.5998 247.044 97.6974 246.947C97.7951 246.849 97.9066 246.771 98.0322 246.713C98.1597 246.654 98.2991 246.624 98.4505 246.624ZM100.118 246.687V249.995H99.4158V246.687H100.118ZM99.7714 245.419C99.879 245.419 99.9717 245.448 100.049 245.506C100.129 245.564 100.169 245.663 100.169 245.805C100.169 245.944 100.129 246.044 100.049 246.104C99.9717 246.162 99.879 246.19 99.7714 246.19C99.6599 246.19 99.5652 246.162 99.4875 246.104C99.4118 246.044 99.374 245.944 99.374 245.805C99.374 245.663 99.4118 245.564 99.4875 245.506C99.5652 245.448 99.6599 245.419 99.7714 245.419ZM102.823 246.624C103.215 246.624 103.53 246.767 103.767 247.054C104.006 247.341 104.126 247.767 104.126 248.333C104.126 248.708 104.07 249.024 103.958 249.281C103.849 249.536 103.694 249.729 103.495 249.86C103.298 249.99 103.068 250.055 102.805 250.055C102.637 250.055 102.492 250.033 102.368 249.989C102.245 249.945 102.139 249.888 102.052 249.818C101.964 249.747 101.89 249.669 101.831 249.585H101.789C101.799 249.665 101.808 249.754 101.816 249.851C101.826 249.947 101.831 250.035 101.831 250.114V251.462H101.125V246.687H101.699L101.798 247.144H101.831C101.892 247.05 101.967 246.963 102.055 246.884C102.144 246.804 102.252 246.741 102.377 246.695C102.505 246.648 102.653 246.624 102.823 246.624ZM102.634 247.198C102.441 247.198 102.286 247.236 102.168 247.314C102.053 247.39 101.968 247.504 101.914 247.658C101.862 247.811 101.834 248.003 101.831 248.235V248.333C101.831 248.578 101.855 248.786 101.905 248.958C101.957 249.127 102.042 249.257 102.159 249.346C102.279 249.434 102.44 249.478 102.643 249.478C102.815 249.478 102.956 249.431 103.068 249.337C103.181 249.244 103.266 249.11 103.322 248.937C103.378 248.764 103.405 248.559 103.405 248.324C103.405 247.968 103.342 247.691 103.214 247.493C103.089 247.296 102.895 247.198 102.634 247.198ZM106.17 249.487C106.261 249.487 106.352 249.479 106.442 249.463C106.531 249.445 106.613 249.424 106.687 249.4V249.932C106.609 249.966 106.508 249.995 106.385 250.019C106.261 250.043 106.133 250.055 105.999 250.055C105.812 250.055 105.644 250.024 105.494 249.962C105.345 249.898 105.226 249.79 105.139 249.636C105.051 249.483 105.007 249.271 105.007 249V247.221H104.556V246.908L105.04 246.66L105.27 245.951H105.713V246.687H106.66V247.221H105.713V248.991C105.713 249.158 105.754 249.283 105.838 249.364C105.922 249.446 106.032 249.487 106.17 249.487ZM108.062 246.687V249.995H107.359V246.687H108.062ZM107.715 245.419C107.822 245.419 107.915 245.448 107.993 245.506C108.072 245.564 108.112 245.663 108.112 245.805C108.112 245.944 108.072 246.044 107.993 246.104C107.915 246.162 107.822 246.19 107.715 246.19C107.603 246.19 107.509 246.162 107.431 246.104C107.355 246.044 107.317 245.944 107.317 245.805C107.317 245.663 107.355 245.564 107.431 245.506C107.509 245.448 107.603 245.419 107.715 245.419ZM111.997 248.333C111.997 248.608 111.961 248.852 111.89 249.065C111.818 249.279 111.713 249.459 111.576 249.606C111.438 249.752 111.273 249.863 111.08 249.941C110.887 250.017 110.668 250.055 110.425 250.055C110.198 250.055 109.99 250.017 109.801 249.941C109.612 249.863 109.447 249.752 109.308 249.606C109.17 249.459 109.064 249.279 108.988 249.065C108.912 248.852 108.874 248.608 108.874 248.333C108.874 247.969 108.937 247.66 109.063 247.407C109.19 247.152 109.371 246.957 109.607 246.824C109.842 246.69 110.122 246.624 110.446 246.624C110.751 246.624 111.02 246.69 111.253 246.824C111.486 246.957 111.669 247.152 111.8 247.407C111.932 247.662 111.997 247.971 111.997 248.333ZM109.598 248.333C109.598 248.574 109.626 248.78 109.684 248.952C109.744 249.123 109.836 249.255 109.959 249.346C110.083 249.436 110.242 249.481 110.437 249.481C110.633 249.481 110.792 249.436 110.916 249.346C111.039 249.255 111.13 249.123 111.187 248.952C111.245 248.78 111.274 248.574 111.274 248.333C111.274 248.092 111.245 247.888 111.187 247.721C111.13 247.551 111.039 247.423 110.916 247.335C110.792 247.245 110.632 247.201 110.434 247.201C110.143 247.201 109.931 247.298 109.798 247.493C109.664 247.689 109.598 247.969 109.598 248.333ZM114.529 246.624C114.901 246.624 115.191 246.72 115.398 246.914C115.607 247.105 115.712 247.413 115.712 247.837V249.995H115.01V247.969C115.01 247.712 114.957 247.519 114.851 247.392C114.746 247.262 114.582 247.198 114.361 247.198C114.04 247.198 113.817 247.296 113.692 247.493C113.568 247.691 113.507 247.977 113.507 248.351V249.995H112.804V246.687H113.351L113.45 247.135H113.489C113.56 247.019 113.649 246.925 113.755 246.851C113.862 246.775 113.982 246.718 114.113 246.681C114.247 246.643 114.385 246.624 114.529 246.624Z" fill="#AFBDEB"/>
<path d="M58.7856 319.628C58.5464 319.628 58.3322 319.672 58.1431 319.758C57.9562 319.845 57.7979 319.97 57.668 320.134C57.5381 320.296 57.439 320.493 57.3706 320.726C57.3022 320.956 57.2681 321.215 57.2681 321.505C57.2681 321.892 57.3228 322.226 57.4321 322.506C57.5415 322.784 57.7078 322.999 57.9312 323.149C58.1545 323.297 58.437 323.371 58.7788 323.371C58.9907 323.371 59.1969 323.351 59.3975 323.31C59.598 323.269 59.8053 323.213 60.0195 323.142V323.839C59.8167 323.919 59.6117 323.977 59.4043 324.014C59.1969 324.05 58.9577 324.068 58.6865 324.068C58.1761 324.068 57.7523 323.962 57.415 323.75C57.0801 323.539 56.8294 323.24 56.6631 322.855C56.499 322.47 56.417 322.019 56.417 321.501C56.417 321.123 56.4694 320.777 56.5742 320.462C56.679 320.148 56.8317 319.877 57.0322 319.649C57.2327 319.419 57.48 319.242 57.7739 319.119C58.0701 318.994 58.4085 318.931 58.7891 318.931C59.0397 318.931 59.2858 318.96 59.5273 319.017C59.7712 319.071 59.9967 319.15 60.2041 319.252L59.917 319.929C59.7438 319.847 59.5627 319.777 59.3735 319.717C59.1844 319.658 58.9884 319.628 58.7856 319.628ZM64.3604 322.1C64.3604 322.414 64.3193 322.693 64.2373 322.937C64.1553 323.181 64.0356 323.387 63.8784 323.556C63.7212 323.722 63.5321 323.85 63.311 323.938C63.09 324.025 62.8405 324.068 62.5625 324.068C62.3027 324.068 62.0646 324.025 61.8481 323.938C61.6317 323.85 61.4437 323.722 61.2842 323.556C61.127 323.387 61.005 323.181 60.9185 322.937C60.8319 322.693 60.7886 322.414 60.7886 322.1C60.7886 321.683 60.8604 321.329 61.0039 321.04C61.1497 320.748 61.3571 320.526 61.626 320.374C61.8949 320.221 62.215 320.145 62.5864 320.145C62.9351 320.145 63.2427 320.221 63.5093 320.374C63.7759 320.526 63.9844 320.748 64.1348 321.04C64.2852 321.332 64.3604 321.685 64.3604 322.1ZM61.6157 322.1C61.6157 322.375 61.6488 322.611 61.7148 322.807C61.7832 323.003 61.888 323.153 62.0293 323.258C62.1706 323.361 62.3529 323.412 62.5762 323.412C62.7995 323.412 62.9818 323.361 63.123 323.258C63.2643 323.153 63.368 323.003 63.4341 322.807C63.5002 322.611 63.5332 322.375 63.5332 322.1C63.5332 321.824 63.5002 321.59 63.4341 321.399C63.368 321.205 63.2643 321.058 63.123 320.958C62.9818 320.855 62.7983 320.804 62.5728 320.804C62.2401 320.804 61.9974 320.916 61.8447 321.139C61.6921 321.362 61.6157 321.683 61.6157 322.1ZM67.8262 322.92C67.8262 323.168 67.7658 323.378 67.645 323.549C67.5243 323.72 67.3477 323.85 67.1152 323.938C66.8851 324.025 66.6025 324.068 66.2676 324.068C66.0033 324.068 65.7754 324.049 65.584 324.01C65.3949 323.974 65.216 323.917 65.0474 323.839V323.146C65.2274 323.23 65.429 323.303 65.6523 323.364C65.8779 323.426 66.091 323.457 66.2915 323.457C66.5558 323.457 66.7461 323.416 66.8623 323.333C66.9785 323.249 67.0366 323.138 67.0366 322.999C67.0366 322.917 67.0127 322.844 66.9648 322.78C66.9193 322.714 66.8327 322.646 66.7051 322.578C66.5798 322.507 66.3952 322.423 66.1514 322.325C65.9121 322.229 65.7104 322.134 65.5464 322.038C65.3823 321.942 65.2581 321.827 65.1738 321.693C65.0895 321.556 65.0474 321.382 65.0474 321.17C65.0474 320.835 65.1795 320.581 65.4438 320.408C65.7104 320.232 66.0625 320.145 66.5 320.145C66.7324 320.145 66.9512 320.168 67.1562 320.216C67.3636 320.262 67.5664 320.329 67.7646 320.418L67.5117 321.023C67.3408 320.948 67.1688 320.886 66.9956 320.838C66.8247 320.788 66.6504 320.763 66.4727 320.763C66.2653 320.763 66.1069 320.795 65.9976 320.859C65.8905 320.923 65.8369 321.014 65.8369 321.132C65.8369 321.221 65.8631 321.296 65.9155 321.358C65.9679 321.419 66.0579 321.481 66.1855 321.542C66.3154 321.604 66.4954 321.68 66.7256 321.771C66.9512 321.858 67.146 321.949 67.3101 322.045C67.4764 322.138 67.604 322.253 67.6929 322.39C67.7817 322.527 67.8262 322.703 67.8262 322.92ZM72.9702 320.145C73.394 320.145 73.7131 320.254 73.9272 320.473C74.1437 320.691 74.252 321.042 74.252 321.525V324H73.4487V321.669C73.4487 321.382 73.3929 321.165 73.2812 321.02C73.1696 320.874 72.9998 320.801 72.772 320.801C72.453 320.801 72.2228 320.903 72.0815 321.108C71.9425 321.311 71.873 321.606 71.873 321.994V324H71.0698V321.669C71.0698 321.478 71.0448 321.318 70.9946 321.19C70.9468 321.061 70.8727 320.964 70.7725 320.9C70.6722 320.834 70.5457 320.801 70.3931 320.801C70.172 320.801 69.9954 320.851 69.8633 320.951C69.7334 321.051 69.64 321.2 69.583 321.396C69.526 321.589 69.4976 321.827 69.4976 322.11V324H68.6943V320.216H69.3198L69.4326 320.726H69.4771C69.5545 320.593 69.6502 320.485 69.7642 320.401C69.8804 320.314 70.0091 320.25 70.1504 320.209C70.2917 320.166 70.4386 320.145 70.5913 320.145C70.8739 320.145 71.112 320.195 71.3057 320.295C71.4993 320.393 71.644 320.543 71.7397 320.746H71.8013C71.9198 320.541 72.085 320.389 72.2969 320.292C72.5088 320.194 72.7332 320.145 72.9702 320.145ZM78.7227 322.1C78.7227 322.414 78.6816 322.693 78.5996 322.937C78.5176 323.181 78.3979 323.387 78.2407 323.556C78.0835 323.722 77.8944 323.85 77.6733 323.938C77.4523 324.025 77.2028 324.068 76.9248 324.068C76.665 324.068 76.4269 324.025 76.2104 323.938C75.994 323.85 75.806 323.722 75.6465 323.556C75.4893 323.387 75.3674 323.181 75.2808 322.937C75.1942 322.693 75.1509 322.414 75.1509 322.1C75.1509 321.683 75.2227 321.329 75.3662 321.04C75.512 320.748 75.7194 320.526 75.9883 320.374C76.2572 320.221 76.5773 320.145 76.9487 320.145C77.2974 320.145 77.605 320.221 77.8716 320.374C78.1382 320.526 78.3467 320.748 78.4971 321.04C78.6475 321.332 78.7227 321.685 78.7227 322.1ZM75.978 322.1C75.978 322.375 76.0111 322.611 76.0771 322.807C76.1455 323.003 76.2503 323.153 76.3916 323.258C76.5329 323.361 76.7152 323.412 76.9385 323.412C77.1618 323.412 77.3441 323.361 77.4854 323.258C77.6266 323.153 77.7303 323.003 77.7964 322.807C77.8625 322.611 77.8955 322.375 77.8955 322.1C77.8955 321.824 77.8625 321.59 77.7964 321.399C77.7303 321.205 77.6266 321.058 77.4854 320.958C77.3441 320.855 77.1606 320.804 76.9351 320.804C76.6024 320.804 76.3597 320.916 76.207 321.139C76.0544 321.362 75.978 321.683 75.978 322.1ZM82.1885 322.92C82.1885 323.168 82.1281 323.378 82.0073 323.549C81.8866 323.72 81.71 323.85 81.4775 323.938C81.2474 324.025 80.9648 324.068 80.6299 324.068C80.3656 324.068 80.1377 324.049 79.9463 324.01C79.7572 323.974 79.5783 323.917 79.4097 323.839V323.146C79.5897 323.23 79.7913 323.303 80.0146 323.364C80.2402 323.426 80.4533 323.457 80.6538 323.457C80.9181 323.457 81.1084 323.416 81.2246 323.333C81.3408 323.249 81.3989 323.138 81.3989 322.999C81.3989 322.917 81.375 322.844 81.3271 322.78C81.2816 322.714 81.195 322.646 81.0674 322.578C80.9421 322.507 80.7575 322.423 80.5137 322.325C80.2744 322.229 80.0728 322.134 79.9087 322.038C79.7446 321.942 79.6204 321.827 79.5361 321.693C79.4518 321.556 79.4097 321.382 79.4097 321.17C79.4097 320.835 79.5418 320.581 79.8062 320.408C80.0728 320.232 80.4248 320.145 80.8623 320.145C81.0947 320.145 81.3135 320.168 81.5186 320.216C81.7259 320.262 81.9287 320.329 82.127 320.418L81.874 321.023C81.7031 320.948 81.5311 320.886 81.3579 320.838C81.187 320.788 81.0127 320.763 80.835 320.763C80.6276 320.763 80.4692 320.795 80.3599 320.859C80.2528 320.923 80.1992 321.014 80.1992 321.132C80.1992 321.221 80.2254 321.296 80.2778 321.358C80.3302 321.419 80.4202 321.481 80.5479 321.542C80.6777 321.604 80.8577 321.68 81.0879 321.771C81.3135 321.858 81.5083 321.949 81.6724 322.045C81.8387 322.138 81.9663 322.253 82.0552 322.39C82.144 322.527 82.1885 322.703 82.1885 322.92ZM84.957 319.003H86.4438C87.0887 319.003 87.5752 319.096 87.9033 319.283C88.2314 319.47 88.3955 319.792 88.3955 320.25C88.3955 320.442 88.3613 320.615 88.293 320.77C88.2269 320.923 88.13 321.049 88.0024 321.149C87.8748 321.247 87.7176 321.313 87.5308 321.348V321.382C87.7244 321.416 87.8965 321.476 88.0469 321.563C88.1995 321.65 88.3192 321.774 88.4058 321.936C88.4946 322.097 88.5391 322.307 88.5391 322.564C88.5391 322.87 88.4661 323.13 88.3203 323.344C88.1768 323.558 87.9705 323.721 87.7017 323.833C87.4351 323.944 87.1183 324 86.7515 324H84.957V319.003ZM85.7773 321.064H86.5635C86.9349 321.064 87.1924 321.004 87.3359 320.883C87.4795 320.762 87.5513 320.585 87.5513 320.353C87.5513 320.116 87.4658 319.945 87.2949 319.84C87.1263 319.736 86.8574 319.683 86.4883 319.683H85.7773V321.064ZM85.7773 321.727V323.313H86.6421C87.0249 323.313 87.2938 323.239 87.4487 323.091C87.6037 322.943 87.6812 322.742 87.6812 322.489C87.6812 322.334 87.6458 322.2 87.5752 322.086C87.5068 321.972 87.394 321.884 87.2368 321.823C87.0796 321.759 86.8677 321.727 86.6011 321.727H85.7773ZM90.2959 324H89.4893V318.682H90.2959V324ZM94.7939 322.1C94.7939 322.414 94.7529 322.693 94.6709 322.937C94.5889 323.181 94.4692 323.387 94.312 323.556C94.1548 323.722 93.9657 323.85 93.7446 323.938C93.5236 324.025 93.2741 324.068 92.9961 324.068C92.7363 324.068 92.4982 324.025 92.2817 323.938C92.0653 323.85 91.8773 323.722 91.7178 323.556C91.5605 323.387 91.4386 323.181 91.3521 322.937C91.2655 322.693 91.2222 322.414 91.2222 322.1C91.2222 321.683 91.2939 321.329 91.4375 321.04C91.5833 320.748 91.7907 320.526 92.0596 320.374C92.3285 320.221 92.6486 320.145 93.02 320.145C93.3687 320.145 93.6763 320.221 93.9429 320.374C94.2095 320.526 94.418 320.748 94.5684 321.04C94.7188 321.332 94.7939 321.685 94.7939 322.1ZM92.0493 322.1C92.0493 322.375 92.0824 322.611 92.1484 322.807C92.2168 323.003 92.3216 323.153 92.4629 323.258C92.6042 323.361 92.7865 323.412 93.0098 323.412C93.2331 323.412 93.4154 323.361 93.5566 323.258C93.6979 323.153 93.8016 323.003 93.8677 322.807C93.9338 322.611 93.9668 322.375 93.9668 322.1C93.9668 321.824 93.9338 321.59 93.8677 321.399C93.8016 321.205 93.6979 321.058 93.5566 320.958C93.4154 320.855 93.2319 320.804 93.0063 320.804C92.6737 320.804 92.431 320.916 92.2783 321.139C92.1257 321.362 92.0493 321.683 92.0493 322.1ZM97.2412 324.068C96.8835 324.068 96.5736 323.999 96.3115 323.86C96.0495 323.721 95.8478 323.508 95.7065 323.221C95.5653 322.934 95.4946 322.569 95.4946 322.127C95.4946 321.667 95.5721 321.291 95.7271 320.999C95.882 320.707 96.0962 320.492 96.3696 320.353C96.6453 320.214 96.9609 320.145 97.3164 320.145C97.542 320.145 97.7459 320.167 97.9282 320.213C98.1128 320.256 98.2689 320.31 98.3965 320.374L98.1572 321.016C98.0182 320.959 97.8758 320.911 97.73 320.873C97.5841 320.834 97.444 320.814 97.3096 320.814C97.0885 320.814 96.904 320.863 96.7559 320.961C96.61 321.059 96.5007 321.205 96.4277 321.399C96.3571 321.593 96.3218 321.833 96.3218 322.12C96.3218 322.398 96.3582 322.633 96.4312 322.824C96.5041 323.013 96.6123 323.157 96.7559 323.255C96.8994 323.351 97.076 323.398 97.2856 323.398C97.493 323.398 97.6787 323.373 97.8428 323.323C98.0068 323.273 98.1618 323.208 98.3076 323.128V323.826C98.1641 323.908 98.0103 323.968 97.8462 324.007C97.6821 324.048 97.4805 324.068 97.2412 324.068ZM99.9995 318.682V321.252C99.9995 321.368 99.995 321.496 99.9858 321.635C99.9767 321.771 99.9676 321.9 99.9585 322.021H99.9756C100.035 321.941 100.105 321.848 100.188 321.741C100.272 321.634 100.352 321.54 100.427 321.46L101.582 320.216H102.505L100.991 321.843L102.604 324H101.661L100.451 322.339L99.9995 322.725V324H99.1963V318.682H99.9995ZM104.733 324.068C104.376 324.068 104.066 323.999 103.804 323.86C103.542 323.721 103.34 323.508 103.199 323.221C103.057 322.934 102.987 322.569 102.987 322.127C102.987 321.667 103.064 321.291 103.219 320.999C103.374 320.707 103.588 320.492 103.862 320.353C104.138 320.214 104.453 320.145 104.809 320.145C105.034 320.145 105.238 320.167 105.42 320.213C105.605 320.256 105.761 320.31 105.889 320.374L105.649 321.016C105.51 320.959 105.368 320.911 105.222 320.873C105.076 320.834 104.936 320.814 104.802 320.814C104.581 320.814 104.396 320.863 104.248 320.961C104.102 321.059 103.993 321.205 103.92 321.399C103.849 321.593 103.814 321.833 103.814 322.12C103.814 322.398 103.85 322.633 103.923 322.824C103.996 323.013 104.104 323.157 104.248 323.255C104.392 323.351 104.568 323.398 104.778 323.398C104.985 323.398 105.171 323.373 105.335 323.323C105.499 323.273 105.654 323.208 105.8 323.128V323.826C105.656 323.908 105.502 323.968 105.338 324.007C105.174 324.048 104.973 324.068 104.733 324.068ZM107.492 318.682V320.018C107.492 320.157 107.487 320.293 107.478 320.425C107.471 320.557 107.463 320.66 107.454 320.732H107.499C107.578 320.6 107.676 320.492 107.792 320.408C107.909 320.321 108.039 320.256 108.182 320.213C108.328 320.17 108.483 320.148 108.647 320.148C108.936 320.148 109.182 320.197 109.385 320.295C109.588 320.391 109.743 320.54 109.85 320.743C109.959 320.945 110.014 321.209 110.014 321.532V324H109.211V321.683C109.211 321.389 109.151 321.169 109.03 321.023C108.909 320.875 108.722 320.801 108.469 320.801C108.225 320.801 108.032 320.852 107.888 320.955C107.747 321.055 107.646 321.204 107.584 321.402C107.522 321.598 107.492 321.838 107.492 322.12V324H106.688V318.682H107.492ZM112.622 320.145C113.101 320.145 113.462 320.25 113.706 320.462C113.952 320.674 114.075 321.005 114.075 321.454V324H113.504L113.35 323.463H113.323C113.216 323.6 113.105 323.713 112.991 323.802C112.877 323.891 112.745 323.957 112.595 324C112.447 324.046 112.265 324.068 112.051 324.068C111.826 324.068 111.624 324.027 111.446 323.945C111.269 323.861 111.128 323.733 111.026 323.562C110.923 323.392 110.872 323.175 110.872 322.913C110.872 322.523 111.017 322.231 111.306 322.035C111.598 321.839 112.038 321.73 112.625 321.71L113.282 321.686V321.488C113.282 321.226 113.22 321.039 113.097 320.927C112.976 320.816 112.806 320.76 112.584 320.76C112.395 320.76 112.212 320.787 112.034 320.842C111.856 320.896 111.683 320.964 111.515 321.043L111.255 320.476C111.439 320.378 111.649 320.298 111.884 320.237C112.121 320.175 112.367 320.145 112.622 320.145ZM113.278 322.192L112.79 322.209C112.389 322.223 112.107 322.291 111.945 322.414C111.784 322.537 111.703 322.706 111.703 322.92C111.703 323.107 111.758 323.243 111.87 323.33C111.982 323.414 112.129 323.457 112.311 323.457C112.589 323.457 112.819 323.378 113.001 323.221C113.186 323.061 113.278 322.828 113.278 322.52V322.192ZM116.002 320.216V324H115.199V320.216H116.002ZM115.606 318.767C115.729 318.767 115.835 318.8 115.924 318.866C116.015 318.932 116.061 319.046 116.061 319.208C116.061 319.368 116.015 319.481 115.924 319.55C115.835 319.616 115.729 319.649 115.606 319.649C115.478 319.649 115.37 319.616 115.281 319.55C115.195 319.481 115.151 319.368 115.151 319.208C115.151 319.046 115.195 318.932 115.281 318.866C115.37 318.8 115.478 318.767 115.606 318.767ZM119.126 320.145C119.553 320.145 119.884 320.255 120.121 320.476C120.36 320.695 120.48 321.047 120.48 321.532V324H119.677V321.683C119.677 321.389 119.616 321.169 119.496 321.023C119.375 320.875 119.188 320.801 118.935 320.801C118.568 320.801 118.313 320.914 118.169 321.139C118.028 321.365 117.958 321.692 117.958 322.12V324H117.154V320.216H117.78L117.893 320.729H117.937C118.019 320.597 118.12 320.489 118.241 320.404C118.364 320.318 118.501 320.253 118.651 320.209C118.804 320.166 118.962 320.145 119.126 320.145ZM123.505 324V319.003H124.325V324H123.505ZM129.702 321.454C129.702 322.016 129.597 322.487 129.387 322.865C129.178 323.241 128.873 323.525 128.475 323.716C128.076 323.905 127.595 324 127.032 324H125.645V319.003H127.183C127.7 319.003 128.146 319.096 128.522 319.283C128.898 319.468 129.189 319.742 129.394 320.107C129.599 320.469 129.702 320.918 129.702 321.454ZM128.847 321.478C128.847 321.067 128.782 320.73 128.652 320.466C128.525 320.201 128.336 320.006 128.085 319.878C127.837 319.748 127.53 319.683 127.166 319.683H126.465V323.313H127.046C127.65 323.313 128.101 323.159 128.399 322.852C128.698 322.544 128.847 322.086 128.847 321.478Z" fill="#F5FAFF"/>
<rect x="56" y="332" width="306.021" height="30" rx="3.49738" fill="#2D344E"/>
<path d="M66.5783 349.56C66.2655 349.56 65.9946 349.499 65.7655 349.377C65.5364 349.256 65.36 349.07 65.2365 348.819C65.113 348.568 65.0512 348.249 65.0512 347.862C65.0512 347.46 65.119 347.131 65.2544 346.876C65.3899 346.621 65.5772 346.433 65.8163 346.311C66.0573 346.19 66.3333 346.129 66.6441 346.129C66.8413 346.129 67.0196 346.149 67.179 346.189C67.3404 346.227 67.4769 346.273 67.5884 346.329L67.3793 346.891C67.2577 346.841 67.1332 346.799 67.0057 346.766C66.8782 346.732 66.7557 346.715 66.6381 346.715C66.4449 346.715 66.2835 346.758 66.154 346.843C66.0265 346.929 65.9308 347.056 65.8671 347.226C65.8053 347.395 65.7744 347.605 65.7744 347.856C65.7744 348.099 65.8063 348.305 65.8701 348.472C65.9338 348.637 66.0285 348.763 66.154 348.849C66.2795 348.932 66.4339 348.974 66.6172 348.974C66.7985 348.974 66.9609 348.952 67.1043 348.908C67.2478 348.864 67.3832 348.808 67.5107 348.738V349.348C67.3852 349.419 67.2507 349.472 67.1073 349.506C66.9639 349.542 66.7875 349.56 66.5783 349.56ZM71.1716 346.192V349.5H70.6188L70.5231 349.055H70.4843C70.4146 349.168 70.3259 349.263 70.2183 349.339C70.1107 349.412 69.9912 349.467 69.8597 349.503C69.7282 349.541 69.5897 349.56 69.4443 349.56C69.1953 349.56 68.9821 349.518 68.8048 349.434C68.6294 349.349 68.495 349.217 68.4013 349.04C68.3077 348.862 68.2609 348.633 68.2609 348.352V346.192H68.9661V348.221C68.9661 348.478 69.0179 348.67 69.1215 348.798C69.2271 348.925 69.3905 348.989 69.6117 348.989C69.8248 348.989 69.9942 348.945 70.1197 348.857C70.2452 348.77 70.3339 348.64 70.3857 348.469C70.4395 348.298 70.4664 348.087 70.4664 347.838V346.192H71.1716ZM73.2905 349.56C72.896 349.56 72.5792 349.416 72.3401 349.129C72.1031 348.841 71.9845 348.415 71.9845 347.853C71.9845 347.286 72.105 346.856 72.3461 346.565C72.5892 346.274 72.9089 346.129 73.3054 346.129C73.4728 346.129 73.6192 346.152 73.7447 346.198C73.8702 346.242 73.9778 346.301 74.0675 346.377C74.1591 346.453 74.2368 346.537 74.3006 346.631H74.3335C74.3235 346.569 74.3115 346.481 74.2976 346.365C74.2856 346.248 74.2797 346.139 74.2797 346.039V344.85H74.9849V349.5H74.4351L74.3096 349.049H74.2797C74.2199 349.144 74.1442 349.231 74.0525 349.309C73.9629 349.384 73.8553 349.445 73.7298 349.491C73.6063 349.537 73.4598 349.56 73.2905 349.56ZM73.4877 348.989C73.7886 348.989 74.0007 348.902 74.1243 348.729C74.2478 348.556 74.3115 348.296 74.3155 347.949V347.856C74.3155 347.486 74.2558 347.202 74.1362 347.005C74.0167 346.805 73.7985 346.706 73.4817 346.706C73.2287 346.706 73.0355 346.808 72.902 347.014C72.7705 347.217 72.7047 347.501 72.7047 347.865C72.7047 348.23 72.7705 348.509 72.902 348.702C73.0355 348.893 73.2307 348.989 73.4877 348.989ZM78.9208 347.838C78.9208 348.113 78.8849 348.357 78.8132 348.571C78.7415 348.784 78.6369 348.964 78.4994 349.111C78.3619 349.257 78.1966 349.369 78.0033 349.446C77.8101 349.522 77.5919 349.56 77.3488 349.56C77.1217 349.56 76.9135 349.522 76.7242 349.446C76.535 349.369 76.3706 349.257 76.2311 349.111C76.0937 348.964 75.9871 348.784 75.9114 348.571C75.8357 348.357 75.7978 348.113 75.7978 347.838C75.7978 347.474 75.8606 347.165 75.9861 346.912C76.1136 346.657 76.2949 346.463 76.53 346.329C76.7651 346.196 77.045 346.129 77.3698 346.129C77.6746 346.129 77.9435 346.196 78.1767 346.329C78.4098 346.463 78.5921 346.657 78.7235 346.912C78.855 347.167 78.9208 347.476 78.9208 347.838ZM76.521 347.838C76.521 348.079 76.5499 348.286 76.6077 348.457C76.6675 348.628 76.7591 348.76 76.8826 348.851C77.0062 348.941 77.1655 348.986 77.3608 348.986C77.556 348.986 77.7154 348.941 77.839 348.851C77.9625 348.76 78.0531 348.628 78.1109 348.457C78.1687 348.286 78.1976 348.079 78.1976 347.838C78.1976 347.597 78.1687 347.393 78.1109 347.226C78.0531 347.056 77.9625 346.928 77.839 346.84C77.7154 346.751 77.555 346.706 77.3578 346.706C77.0669 346.706 76.8547 346.803 76.7213 346.999C76.5878 347.194 76.521 347.474 76.521 347.838ZM81.9511 348.556C81.9511 348.773 81.8983 348.956 81.7927 349.106C81.6871 349.255 81.5327 349.369 81.3295 349.446C81.1283 349.522 80.8812 349.56 80.5884 349.56C80.3572 349.56 80.158 349.543 79.9907 349.509C79.8253 349.477 79.6689 349.427 79.5215 349.36V348.753C79.6789 348.827 79.8552 348.89 80.0504 348.944C80.2477 348.998 80.434 349.025 80.6093 349.025C80.8404 349.025 81.0067 348.989 81.1084 348.917C81.21 348.844 81.2608 348.746 81.2608 348.624C81.2608 348.553 81.2398 348.489 81.198 348.433C81.1582 348.375 81.0825 348.317 80.9709 348.257C80.8613 348.195 80.6999 348.121 80.4868 348.036C80.2776 347.952 80.1012 347.868 79.9578 347.785C79.8143 347.701 79.7058 347.6 79.632 347.483C79.5583 347.363 79.5215 347.211 79.5215 347.026C79.5215 346.733 79.637 346.511 79.8681 346.359C80.1012 346.206 80.4091 346.129 80.7916 346.129C80.9948 346.129 81.1861 346.15 81.3654 346.192C81.5467 346.232 81.724 346.29 81.8973 346.368L81.6762 346.897C81.5267 346.831 81.3763 346.777 81.2249 346.736C81.0755 346.692 80.9231 346.67 80.7677 346.67C80.5864 346.67 80.4479 346.698 80.3523 346.754C80.2586 346.809 80.2118 346.889 80.2118 346.993C80.2118 347.07 80.2347 347.136 80.2805 347.19C80.3264 347.244 80.4051 347.297 80.5166 347.351C80.6302 347.405 80.7876 347.472 80.9888 347.552C81.1861 347.627 81.3564 347.707 81.4998 347.791C81.6453 347.872 81.7569 347.973 81.8346 348.092C81.9123 348.212 81.9511 348.366 81.9511 348.556ZM82.4233 348.155V347.56H83.9653V348.155H82.4233ZM88.4212 346.129C88.7918 346.129 89.0707 346.225 89.258 346.416C89.4472 346.607 89.5419 346.914 89.5419 347.336V349.5H88.8396V347.462C88.8396 347.211 88.7908 347.022 88.6931 346.894C88.5955 346.767 88.4471 346.703 88.2478 346.703C87.9689 346.703 87.7677 346.792 87.6442 346.972C87.5226 347.149 87.4619 347.407 87.4619 347.746V349.5H86.7596V347.462C86.7596 347.294 86.7377 347.155 86.6938 347.043C86.652 346.93 86.5872 346.845 86.4996 346.789C86.4119 346.732 86.3013 346.703 86.1679 346.703C85.9746 346.703 85.8202 346.747 85.7046 346.834C85.5911 346.922 85.5094 347.051 85.4596 347.223C85.4098 347.392 85.3849 347.6 85.3849 347.847V349.5H84.6826V346.192H85.2295L85.3281 346.637H85.3669C85.4347 346.521 85.5184 346.427 85.618 346.353C85.7196 346.277 85.8322 346.222 85.9557 346.186C86.0792 346.148 86.2077 346.129 86.3412 346.129C86.5882 346.129 86.7964 346.173 86.9658 346.26C87.1351 346.346 87.2616 346.478 87.3453 346.655H87.3991C87.5027 346.476 87.6472 346.343 87.8324 346.257C88.0177 346.172 88.214 346.129 88.4212 346.129ZM91.8191 346.129C92.2375 346.129 92.5533 346.222 92.7664 346.407C92.9816 346.592 93.0892 346.881 93.0892 347.274V349.5H92.5901L92.4556 349.031H92.4317C92.3381 349.15 92.2415 349.249 92.1418 349.327C92.0422 349.404 91.9267 349.462 91.7952 349.5C91.6657 349.54 91.5073 349.56 91.32 349.56C91.1228 349.56 90.9465 349.524 90.791 349.452C90.6356 349.378 90.5131 349.267 90.4235 349.117C90.3338 348.968 90.289 348.779 90.289 348.55C90.289 348.209 90.4155 347.953 90.6685 347.782C90.9235 347.61 91.3081 347.516 91.8221 347.498L92.3959 347.477V347.303C92.3959 347.074 92.3421 346.911 92.2345 346.813C92.1289 346.716 91.9795 346.667 91.7862 346.667C91.6209 346.667 91.4605 346.691 91.3051 346.739C91.1497 346.786 90.9983 346.845 90.8508 346.915L90.6237 346.419C90.7851 346.333 90.9684 346.263 91.1736 346.21C91.3808 346.156 91.5959 346.129 91.8191 346.129ZM92.3929 347.919L91.9655 347.934C91.6149 347.946 91.3688 348.006 91.2274 348.113C91.0859 348.221 91.0152 348.368 91.0152 348.556C91.0152 348.719 91.064 348.839 91.1616 348.914C91.2592 348.988 91.3877 349.025 91.5471 349.025C91.7902 349.025 91.9914 348.956 92.1508 348.819C92.3122 348.679 92.3929 348.475 92.3929 348.206V347.919ZM94.7747 346.192V349.5H94.0724V346.192H94.7747ZM94.428 344.925C94.5356 344.925 94.6283 344.954 94.706 345.011C94.7857 345.069 94.8255 345.169 94.8255 345.31C94.8255 345.45 94.7857 345.549 94.706 345.609C94.6283 345.667 94.5356 345.696 94.428 345.696C94.3165 345.696 94.2218 345.667 94.1441 345.609C94.0684 345.549 94.0306 345.45 94.0306 345.31C94.0306 345.169 94.0684 345.069 94.1441 345.011C94.2218 344.954 94.3165 344.925 94.428 344.925ZM97.5062 346.129C97.8787 346.129 98.1686 346.226 98.3758 346.419C98.585 346.61 98.6896 346.918 98.6896 347.342V349.5H97.9873V347.474C97.9873 347.217 97.9345 347.025 97.8289 346.897C97.7233 346.768 97.56 346.703 97.3388 346.703C97.0181 346.703 96.7949 346.801 96.6694 346.999C96.5459 347.196 96.4841 347.482 96.4841 347.856V349.5H95.7818V346.192H96.3287L96.4273 346.64H96.4662C96.5379 346.524 96.6266 346.43 96.7322 346.356C96.8397 346.28 96.9593 346.224 97.0908 346.186C97.2243 346.148 97.3627 346.129 97.5062 346.129ZM101.397 346.129C101.77 346.129 102.06 346.226 102.267 346.419C102.476 346.61 102.581 346.918 102.581 347.342V349.5H101.878V347.474C101.878 347.217 101.826 347.025 101.72 346.897C101.614 346.768 101.451 346.703 101.23 346.703C100.909 346.703 100.686 346.801 100.56 346.999C100.437 347.196 100.375 347.482 100.375 347.856V349.5H99.6728V346.192H100.22L100.318 346.64H100.357C100.429 346.524 100.518 346.43 100.623 346.356C100.731 346.28 100.85 346.224 100.982 346.186C101.115 346.148 101.254 346.129 101.397 346.129ZM104.882 346.129C105.177 346.129 105.43 346.19 105.641 346.311C105.852 346.433 106.014 346.605 106.128 346.828C106.242 347.051 106.298 347.318 106.298 347.629V348.006H104.09C104.098 348.327 104.183 348.574 104.347 348.747C104.512 348.92 104.743 349.007 105.04 349.007C105.251 349.007 105.441 348.987 105.608 348.947C105.777 348.905 105.952 348.845 106.131 348.765V349.336C105.966 349.413 105.797 349.47 105.626 349.506C105.455 349.542 105.249 349.56 105.01 349.56C104.686 349.56 104.4 349.497 104.153 349.371C103.908 349.244 103.715 349.055 103.576 348.804C103.438 348.553 103.37 348.241 103.37 347.868C103.37 347.498 103.432 347.183 103.558 346.924C103.683 346.665 103.86 346.468 104.087 346.332C104.314 346.197 104.579 346.129 104.882 346.129ZM104.882 346.658C104.661 346.658 104.481 346.73 104.344 346.873C104.208 347.017 104.129 347.227 104.105 347.504H105.611C105.609 347.338 105.581 347.192 105.527 347.064C105.475 346.937 105.396 346.837 105.288 346.766C105.183 346.694 105.047 346.658 104.882 346.658ZM108.322 348.992C108.413 348.992 108.504 348.984 108.593 348.968C108.683 348.95 108.765 348.929 108.839 348.905V349.437C108.761 349.471 108.66 349.5 108.537 349.524C108.413 349.548 108.285 349.56 108.151 349.56C107.964 349.56 107.796 349.529 107.646 349.467C107.497 349.403 107.378 349.295 107.29 349.141C107.203 348.988 107.159 348.776 107.159 348.505V346.727H106.708V346.413L107.192 346.165L107.422 345.457H107.864V346.192H108.812V346.727H107.864V348.496C107.864 348.663 107.906 348.788 107.99 348.869C108.073 348.951 108.184 348.992 108.322 348.992ZM109.224 348.155V347.56H110.766V348.155H109.224ZM113.321 349.5H112.616V346.688C112.616 346.594 112.617 346.501 112.619 346.407C112.621 346.313 112.623 346.222 112.625 346.132C112.629 346.042 112.634 345.957 112.64 345.875C112.598 345.921 112.546 345.971 112.484 346.024C112.425 346.078 112.361 346.134 112.293 346.192L111.791 346.592L111.438 346.147L112.735 345.131H113.321V349.5Z" fill="#AFBDEB"/>
<path d="M347.6 345.688C347.716 345.689 347.827 345.735 347.909 345.817L349.786 347.693L351.662 345.817C351.745 345.737 351.855 345.693 351.97 345.694C352.084 345.695 352.194 345.741 352.275 345.822C352.356 345.903 352.402 346.013 352.403 346.127C352.404 346.242 352.36 346.352 352.28 346.435L350.095 348.621C350.013 348.703 349.901 348.749 349.786 348.749C349.67 348.749 349.558 348.703 349.476 348.621L347.291 346.435C347.229 346.374 347.188 346.296 347.171 346.211C347.154 346.126 347.163 346.038 347.196 345.958C347.229 345.878 347.285 345.81 347.357 345.762C347.429 345.714 347.513 345.688 347.6 345.688Z" fill="#AFBDEB"/>
</g>
</g>
<defs>
<filter id="filter0_d_623_6266" x="0" y="0" width="414" height="408" filterUnits="userSpaceOnUse" color-interpolation-filters="sRGB">
<feFlood flood-opacity="0" result="BackgroundImageFix"/>
<feColorMatrix in="SourceAlpha" type="matrix" values="0 0 0 0 0 0 0 0 0 0 0 0 0 0 0 0 0 0 127 0" result="hardAlpha"/>
<feOffset dy="4"/>
<feGaussianBlur stdDeviation="20"/>
<feComposite in2="hardAlpha" operator="out"/>
<feColorMatrix type="matrix" values="0 0 0 0 0.0627451 0 0 0 0 0.0705882 0 0 0 0 0.101961 0 0 0 1 0"/>
<feBlend mode="normal" in2="BackgroundImageFix" result="effect1_dropShadow_623_6266"/>
<feBlend mode="normal" in="SourceGraphic" in2="effect1_dropShadow_623_6266" result="shape"/>
</filter>
<clipPath id="clip0_623_6266">
<rect x="40" y="36" width="334" height="328" rx="12" fill="white"/>
</clipPath>
</defs>
</svg>
