<svg width="764" height="81" viewBox="0 0 764 81" fill="none" xmlns="http://www.w3.org/2000/svg">
<rect width="103.333" height="1" transform="translate(0 23.5)" fill="#2D344E"/>
<rect x="111.333" y="8" width="32" height="32" rx="16" fill="#52A6F8"/>
<path d="M130.81 21.2455L125.997 25.775L123.885 23.6069C123.801 23.5201 123.701 23.4513 123.591 23.4044C123.48 23.3574 123.362 23.3332 123.243 23.3332C123.001 23.3331 122.77 23.4314 122.6 23.6064C122.429 23.7814 122.333 24.0188 122.333 24.2664C122.333 24.514 122.429 24.7515 122.599 24.9266L125.326 27.7266C125.492 27.8967 125.715 27.9946 125.95 27.9998C126.184 28.005 126.411 27.9172 126.584 27.7546L132.038 22.6213C132.216 22.4539 132.322 22.221 132.332 21.9737C132.343 21.7263 132.257 21.4849 132.094 21.3025C131.931 21.12 131.704 21.0115 131.463 21.0009C131.222 20.9902 130.987 21.0782 130.809 21.2455H130.81Z" fill="#F6F6F6"/>
<rect width="103.333" height="1" transform="translate(151.333 23.5)" fill="#2D344E"/>
<path d="M114.366 62.9072C114.366 64.0329 114.16 64.974 113.75 65.7305C113.34 66.4824 112.745 67.0498 111.966 67.4326C111.191 67.8109 110.25 68 109.143 68H106.429V58.0059H109.444C110.46 58.0059 111.335 58.1927 112.069 58.5664C112.802 58.9355 113.368 59.4847 113.764 60.2139C114.165 60.9385 114.366 61.8363 114.366 62.9072ZM113.142 62.9482C113.142 62.0505 112.992 61.3099 112.691 60.7266C112.395 60.1432 111.957 59.7103 111.378 59.4277C110.804 59.1406 110.1 58.9971 109.266 58.9971H107.591V67.002H109.006C110.382 67.002 111.415 66.6624 112.103 65.9834C112.796 65.3044 113.142 64.2926 113.142 62.9482ZM119.301 60.3711C119.939 60.3711 120.486 60.5124 120.942 60.7949C121.397 61.0775 121.746 61.474 121.988 61.9844C122.229 62.4902 122.35 63.0827 122.35 63.7617V64.4658H117.175C117.189 65.3454 117.408 66.0153 117.831 66.4756C118.255 66.9359 118.852 67.166 119.622 67.166C120.096 67.166 120.516 67.1227 120.88 67.0361C121.245 66.9495 121.623 66.8219 122.015 66.6533V67.6514C121.637 67.82 121.261 67.943 120.887 68.0205C120.518 68.098 120.08 68.1367 119.575 68.1367C118.854 68.1367 118.226 67.9909 117.688 67.6992C117.155 67.403 116.74 66.9701 116.444 66.4004C116.147 65.8307 115.999 65.1335 115.999 64.3086C115.999 63.502 116.134 62.8047 116.403 62.2168C116.676 61.6243 117.059 61.1686 117.551 60.8496C118.048 60.5306 118.631 60.3711 119.301 60.3711ZM119.287 61.3008C118.681 61.3008 118.198 61.499 117.838 61.8955C117.478 62.292 117.264 62.8457 117.196 63.5566H121.16C121.156 63.11 121.085 62.7181 120.949 62.3809C120.816 62.0391 120.614 61.7747 120.34 61.5879C120.067 61.3965 119.716 61.3008 119.287 61.3008ZM126.698 67.207C126.884 67.207 127.076 67.1911 127.272 67.1592C127.468 67.1273 127.627 67.0885 127.75 67.043V67.9248C127.618 67.984 127.434 68.0342 127.197 68.0752C126.964 68.1162 126.736 68.1367 126.513 68.1367C126.117 68.1367 125.757 68.0684 125.433 67.9316C125.109 67.7904 124.85 67.5534 124.654 67.2207C124.462 66.888 124.367 66.4277 124.367 65.8398V61.3965H123.3V60.8428L124.373 60.3984L124.825 58.7715H125.508V60.5078H127.702V61.3965H125.508V65.8057C125.508 66.2751 125.615 66.626 125.829 66.8584C126.048 67.0908 126.338 67.207 126.698 67.207ZM132.071 60.3848C132.964 60.3848 133.627 60.5853 134.06 60.9863C134.493 61.3874 134.709 62.0277 134.709 62.9072V68H133.882L133.663 66.8926H133.609C133.399 67.166 133.18 67.3962 132.952 67.583C132.725 67.7653 132.46 67.9043 132.16 68C131.863 68.0911 131.499 68.1367 131.066 68.1367C130.61 68.1367 130.204 68.057 129.849 67.8975C129.498 67.738 129.22 67.4964 129.015 67.1729C128.814 66.8493 128.714 66.4391 128.714 65.9424C128.714 65.195 129.01 64.6208 129.603 64.2197C130.195 63.8187 131.098 63.5999 132.31 63.5635L133.602 63.5088V63.0508C133.602 62.4036 133.463 61.9502 133.185 61.6904C132.907 61.4307 132.515 61.3008 132.009 61.3008C131.617 61.3008 131.243 61.3577 130.888 61.4717C130.533 61.5856 130.195 61.7201 129.876 61.875L129.528 61.0137C129.865 60.8405 130.252 60.6924 130.69 60.5693C131.127 60.4463 131.588 60.3848 132.071 60.3848ZM133.588 64.3086L132.447 64.3564C131.512 64.3929 130.854 64.5456 130.471 64.8145C130.088 65.0833 129.897 65.4639 129.897 65.9561C129.897 66.3844 130.027 66.7012 130.286 66.9062C130.546 67.1113 130.89 67.2139 131.319 67.2139C131.984 67.2139 132.529 67.0293 132.952 66.6602C133.376 66.291 133.588 65.7373 133.588 64.999V64.3086ZM138.182 60.5078V68H137.047V60.5078H138.182ZM137.628 57.7051C137.815 57.7051 137.975 57.7666 138.107 57.8896C138.243 58.0081 138.312 58.195 138.312 58.4502C138.312 58.7008 138.243 58.8877 138.107 59.0107C137.975 59.1338 137.815 59.1953 137.628 59.1953C137.432 59.1953 137.268 59.1338 137.136 59.0107C137.008 58.8877 136.945 58.7008 136.945 58.4502C136.945 58.195 137.008 58.0081 137.136 57.8896C137.268 57.7666 137.432 57.7051 137.628 57.7051ZM141.73 68H140.588V57.3633H141.73V68ZM148.976 65.9492C148.976 66.4277 148.855 66.8311 148.614 67.1592C148.377 67.4827 148.035 67.7266 147.588 67.8906C147.146 68.0547 146.618 68.1367 146.002 68.1367C145.478 68.1367 145.025 68.0957 144.642 68.0137C144.259 67.9316 143.924 67.8154 143.637 67.665V66.6191C143.942 66.7695 144.307 66.9062 144.731 67.0293C145.155 67.1523 145.588 67.2139 146.03 67.2139C146.677 67.2139 147.146 67.109 147.438 66.8994C147.73 66.6898 147.875 66.4049 147.875 66.0449C147.875 65.8398 147.816 65.6598 147.698 65.5049C147.584 65.3454 147.39 65.1927 147.117 65.0469C146.843 64.8965 146.465 64.7324 145.982 64.5547C145.503 64.3724 145.089 64.1924 144.738 64.0146C144.391 63.8324 144.122 63.6113 143.931 63.3516C143.744 63.0918 143.651 62.7546 143.651 62.3398C143.651 61.7064 143.906 61.221 144.416 60.8838C144.931 60.542 145.606 60.3711 146.44 60.3711C146.891 60.3711 147.313 60.4167 147.704 60.5078C148.101 60.5944 148.47 60.7129 148.812 60.8633L148.429 61.7725C148.119 61.6403 147.789 61.5286 147.438 61.4375C147.087 61.3464 146.729 61.3008 146.365 61.3008C145.841 61.3008 145.437 61.3874 145.155 61.5605C144.877 61.7337 144.738 61.9707 144.738 62.2715C144.738 62.5039 144.801 62.6953 144.929 62.8457C145.061 62.9961 145.271 63.1374 145.558 63.2695C145.845 63.4017 146.223 63.5566 146.693 63.7344C147.162 63.9076 147.568 64.0876 147.91 64.2744C148.251 64.4567 148.513 64.68 148.696 64.9443C148.882 65.2041 148.976 65.5391 148.976 65.9492Z" fill="#F5FAFF"/>
<rect width="103.333" height="1" transform="translate(254.667 23.5)" fill="#2D344E"/>
<rect x="366" y="8" width="32" height="32" rx="16" fill="#52A6F8"/>
<path d="M385.477 21.2455L380.664 25.775L378.552 23.6069C378.468 23.5201 378.368 23.4513 378.258 23.4044C378.147 23.3574 378.029 23.3332 377.91 23.3332C377.668 23.3331 377.437 23.4314 377.267 23.6064C377.096 23.7814 377 24.0188 377 24.2664C377 24.514 377.096 24.7515 377.266 24.9266L379.993 27.7266C380.159 27.8967 380.382 27.9946 380.617 27.9998C380.851 28.005 381.078 27.9172 381.251 27.7546L386.705 22.6213C386.883 22.4539 386.989 22.221 386.999 21.9737C387.01 21.7263 386.924 21.4849 386.761 21.3025C386.598 21.12 386.371 21.0115 386.13 21.0009C385.889 20.9902 385.654 21.0782 385.476 21.2455H385.477Z" fill="#F6F6F6"/>
<rect width="103.333" height="1" transform="translate(406 23.5)" fill="#2D344E"/>
<path d="M321.078 58.0059C321.899 58.0059 322.576 58.1084 323.109 58.3135C323.646 58.514 324.048 58.8216 324.312 59.2363C324.576 59.651 324.708 60.1797 324.708 60.8223C324.708 61.3509 324.613 61.793 324.421 62.1484C324.23 62.4993 323.979 62.7842 323.669 63.0029C323.359 63.2217 323.029 63.3903 322.678 63.5088L325.419 68H324.066L321.618 63.8301H319.54V68H318.378V58.0059H321.078ZM321.01 59.0107H319.54V62.8457H321.126C321.942 62.8457 322.541 62.6794 322.924 62.3467C323.312 62.014 323.505 61.5241 323.505 60.877C323.505 60.1979 323.3 59.7171 322.89 59.4346C322.484 59.152 321.858 59.0107 321.01 59.0107ZM329.733 60.3711C330.371 60.3711 330.918 60.5124 331.373 60.7949C331.829 61.0775 332.178 61.474 332.419 61.9844C332.661 62.4902 332.782 63.0827 332.782 63.7617V64.4658H327.607C327.62 65.3454 327.839 66.0153 328.263 66.4756C328.687 66.9359 329.284 67.166 330.054 67.166C330.528 67.166 330.947 67.1227 331.312 67.0361C331.676 66.9495 332.055 66.8219 332.447 66.6533V67.6514C332.068 67.82 331.692 67.943 331.319 68.0205C330.95 68.098 330.512 68.1367 330.006 68.1367C329.286 68.1367 328.657 67.9909 328.119 67.6992C327.586 67.403 327.172 66.9701 326.875 66.4004C326.579 65.8307 326.431 65.1335 326.431 64.3086C326.431 63.502 326.565 62.8047 326.834 62.2168C327.108 61.6243 327.491 61.1686 327.983 60.8496C328.479 60.5306 329.063 60.3711 329.733 60.3711ZM329.719 61.3008C329.113 61.3008 328.63 61.499 328.27 61.8955C327.91 62.292 327.696 62.8457 327.627 63.5566H331.592C331.588 63.11 331.517 62.7181 331.38 62.3809C331.248 62.0391 331.045 61.7747 330.772 61.5879C330.498 61.3965 330.147 61.3008 329.719 61.3008ZM336.801 71.3633C335.817 71.3633 335.058 71.1787 334.525 70.8096C333.992 70.445 333.725 69.9323 333.725 69.2715C333.725 68.8021 333.873 68.401 334.169 68.0684C334.47 67.7357 334.885 67.5146 335.413 67.4053C335.217 67.3141 335.049 67.1774 334.908 66.9951C334.771 66.8128 334.702 66.6032 334.702 66.3662C334.702 66.0928 334.778 65.8535 334.928 65.6484C335.083 65.4388 335.318 65.2383 335.632 65.0469C335.24 64.8874 334.921 64.6185 334.675 64.2402C334.434 63.8574 334.313 63.4131 334.313 62.9072C334.313 62.3695 334.424 61.9115 334.648 61.5332C334.871 61.1504 335.195 60.8587 335.618 60.6582C336.042 60.4577 336.555 60.3574 337.157 60.3574C337.289 60.3574 337.421 60.3643 337.553 60.3779C337.69 60.387 337.82 60.403 337.943 60.4258C338.066 60.444 338.173 60.4668 338.264 60.4941H340.834V61.2256L339.453 61.3965C339.59 61.5742 339.704 61.7884 339.795 62.0391C339.886 62.2897 339.932 62.5677 339.932 62.873C339.932 63.6204 339.679 64.2152 339.173 64.6572C338.667 65.0947 337.972 65.3135 337.088 65.3135C336.879 65.3135 336.664 65.2952 336.446 65.2588C336.222 65.3818 336.051 65.5186 335.933 65.6689C335.819 65.8193 335.762 65.9925 335.762 66.1885C335.762 66.3343 335.805 66.4505 335.892 66.5371C335.983 66.6237 336.113 66.6875 336.282 66.7285C336.45 66.765 336.653 66.7832 336.89 66.7832H338.209C339.025 66.7832 339.649 66.9541 340.082 67.2959C340.52 67.6377 340.739 68.1367 340.739 68.793C340.739 69.6224 340.401 70.2581 339.727 70.7002C339.052 71.1423 338.077 71.3633 336.801 71.3633ZM336.835 70.4746C337.455 70.4746 337.968 70.4108 338.373 70.2832C338.784 70.1602 339.089 69.9801 339.289 69.7432C339.494 69.5107 339.597 69.2327 339.597 68.9092C339.597 68.6084 339.529 68.3805 339.392 68.2256C339.255 68.0752 339.055 67.9749 338.79 67.9248C338.526 67.8701 338.202 67.8428 337.82 67.8428H336.521C336.184 67.8428 335.89 67.8952 335.639 68C335.388 68.1048 335.195 68.2598 335.058 68.4648C334.926 68.6699 334.86 68.9251 334.86 69.2305C334.86 69.6361 335.031 69.9437 335.372 70.1533C335.714 70.3675 336.202 70.4746 336.835 70.4746ZM337.129 64.4863C337.672 64.4863 338.079 64.3496 338.353 64.0762C338.626 63.8027 338.763 63.404 338.763 62.8799C338.763 62.3193 338.624 61.9001 338.346 61.6221C338.068 61.3395 337.658 61.1982 337.116 61.1982C336.596 61.1982 336.195 61.3441 335.912 61.6357C335.634 61.9229 335.495 62.3444 335.495 62.9004C335.495 63.4108 335.637 63.8027 335.919 64.0762C336.202 64.3496 336.605 64.4863 337.129 64.4863ZM343.446 60.5078V68H342.311V60.5078H343.446ZM342.892 57.7051C343.079 57.7051 343.238 57.7666 343.37 57.8896C343.507 58.0081 343.576 58.195 343.576 58.4502C343.576 58.7008 343.507 58.8877 343.37 59.0107C343.238 59.1338 343.079 59.1953 342.892 59.1953C342.696 59.1953 342.532 59.1338 342.4 59.0107C342.272 58.8877 342.208 58.7008 342.208 58.4502C342.208 58.195 342.272 58.0081 342.4 57.8896C342.532 57.7666 342.696 57.7051 342.892 57.7051ZM350.699 65.9492C350.699 66.4277 350.578 66.8311 350.336 67.1592C350.099 67.4827 349.757 67.7266 349.311 67.8906C348.869 68.0547 348.34 68.1367 347.725 68.1367C347.201 68.1367 346.747 68.0957 346.365 68.0137C345.982 67.9316 345.647 67.8154 345.36 67.665V66.6191C345.665 66.7695 346.03 66.9062 346.453 67.0293C346.877 67.1523 347.31 67.2139 347.752 67.2139C348.399 67.2139 348.869 67.109 349.16 66.8994C349.452 66.6898 349.598 66.4049 349.598 66.0449C349.598 65.8398 349.539 65.6598 349.42 65.5049C349.306 65.3454 349.113 65.1927 348.839 65.0469C348.566 64.8965 348.188 64.7324 347.704 64.5547C347.226 64.3724 346.811 64.1924 346.46 64.0146C346.114 63.8324 345.845 63.6113 345.654 63.3516C345.467 63.0918 345.373 62.7546 345.373 62.3398C345.373 61.7064 345.629 61.221 346.139 60.8838C346.654 60.542 347.328 60.3711 348.162 60.3711C348.614 60.3711 349.035 60.4167 349.427 60.5078C349.824 60.5944 350.193 60.7129 350.535 60.8633L350.152 61.7725C349.842 61.6403 349.511 61.5286 349.16 61.4375C348.81 61.3464 348.452 61.3008 348.087 61.3008C347.563 61.3008 347.16 61.3874 346.877 61.5605C346.599 61.7337 346.46 61.9707 346.46 62.2715C346.46 62.5039 346.524 62.6953 346.652 62.8457C346.784 62.9961 346.993 63.1374 347.281 63.2695C347.568 63.4017 347.946 63.5566 348.415 63.7344C348.885 63.9076 349.29 64.0876 349.632 64.2744C349.974 64.4567 350.236 64.68 350.418 64.9443C350.605 65.2041 350.699 65.5391 350.699 65.9492ZM354.944 67.207C355.131 67.207 355.322 67.1911 355.518 67.1592C355.714 67.1273 355.873 67.0885 355.996 67.043V67.9248C355.864 67.984 355.68 68.0342 355.443 68.0752C355.21 68.1162 354.982 68.1367 354.759 68.1367C354.363 68.1367 354.003 68.0684 353.679 67.9316C353.355 67.7904 353.096 67.5534 352.9 67.2207C352.708 66.888 352.613 66.4277 352.613 65.8398V61.3965H351.546V60.8428L352.619 60.3984L353.071 58.7715H353.754V60.5078H355.949V61.3965H353.754V65.8057C353.754 66.2751 353.861 66.626 354.076 66.8584C354.294 67.0908 354.584 67.207 354.944 67.207ZM360.918 60.3711C361.069 60.3711 361.226 60.3802 361.39 60.3984C361.554 60.4121 361.7 60.4326 361.827 60.46L361.684 61.5127C361.561 61.4808 361.424 61.4557 361.274 61.4375C361.123 61.4193 360.982 61.4102 360.85 61.4102C360.549 61.4102 360.264 61.4717 359.995 61.5947C359.731 61.7132 359.499 61.8864 359.298 62.1143C359.098 62.3376 358.94 62.6087 358.826 62.9277C358.713 63.2422 358.656 63.5931 358.656 63.9805V68H357.514V60.5078H358.457L358.58 61.8887H358.628C358.783 61.6107 358.97 61.3577 359.189 61.1299C359.408 60.8975 359.66 60.7129 359.948 60.5762C360.239 60.4395 360.563 60.3711 360.918 60.3711ZM366.045 60.3848C366.938 60.3848 367.602 60.5853 368.035 60.9863C368.467 61.3874 368.684 62.0277 368.684 62.9072V68H367.857L367.638 66.8926H367.583C367.374 67.166 367.155 67.3962 366.927 67.583C366.699 67.7653 366.435 67.9043 366.134 68C365.838 68.0911 365.473 68.1367 365.04 68.1367C364.585 68.1367 364.179 68.057 363.824 67.8975C363.473 67.738 363.195 67.4964 362.99 67.1729C362.789 66.8493 362.689 66.4391 362.689 65.9424C362.689 65.195 362.985 64.6208 363.577 64.2197C364.17 63.8187 365.072 63.5999 366.285 63.5635L367.576 63.5088V63.0508C367.576 62.4036 367.438 61.9502 367.16 61.6904C366.882 61.4307 366.49 61.3008 365.984 61.3008C365.592 61.3008 365.218 61.3577 364.863 61.4717C364.507 61.5856 364.17 61.7201 363.851 61.875L363.502 61.0137C363.84 60.8405 364.227 60.6924 364.664 60.5693C365.102 60.4463 365.562 60.3848 366.045 60.3848ZM367.563 64.3086L366.421 64.3564C365.487 64.3929 364.828 64.5456 364.446 64.8145C364.063 65.0833 363.871 65.4639 363.871 65.9561C363.871 66.3844 364.001 66.7012 364.261 66.9062C364.521 67.1113 364.865 67.2139 365.293 67.2139C365.959 67.2139 366.503 67.0293 366.927 66.6602C367.351 66.291 367.563 65.7373 367.563 64.999V64.3086ZM373.442 67.207C373.629 67.207 373.82 67.1911 374.016 67.1592C374.212 67.1273 374.371 67.0885 374.494 67.043V67.9248C374.362 67.984 374.178 68.0342 373.941 68.0752C373.708 68.1162 373.48 68.1367 373.257 68.1367C372.861 68.1367 372.501 68.0684 372.177 67.9316C371.854 67.7904 371.594 67.5534 371.398 67.2207C371.206 66.888 371.111 66.4277 371.111 65.8398V61.3965H370.044V60.8428L371.118 60.3984L371.569 58.7715H372.252V60.5078H374.447V61.3965H372.252V65.8057C372.252 66.2751 372.359 66.626 372.574 66.8584C372.792 67.0908 373.082 67.207 373.442 67.207ZM377.147 60.5078V68H376.012V60.5078H377.147ZM376.593 57.7051C376.78 57.7051 376.939 57.7666 377.072 57.8896C377.208 58.0081 377.277 58.195 377.277 58.4502C377.277 58.7008 377.208 58.8877 377.072 59.0107C376.939 59.1338 376.78 59.1953 376.593 59.1953C376.397 59.1953 376.233 59.1338 376.101 59.0107C375.973 58.8877 375.91 58.7008 375.91 58.4502C375.91 58.195 375.973 58.0081 376.101 57.8896C376.233 57.7666 376.397 57.7051 376.593 57.7051ZM386.013 64.2402C386.013 64.8555 385.933 65.4046 385.774 65.8877C385.614 66.3708 385.384 66.7786 385.083 67.1113C384.783 67.444 384.418 67.6992 383.99 67.877C383.566 68.0501 383.085 68.1367 382.547 68.1367C382.046 68.1367 381.586 68.0501 381.166 67.877C380.752 67.6992 380.392 67.444 380.086 67.1113C379.785 66.7786 379.551 66.3708 379.382 65.8877C379.218 65.4046 379.136 64.8555 379.136 64.2402C379.136 63.4199 379.275 62.7227 379.553 62.1484C379.831 61.5697 380.228 61.1299 380.743 60.8291C381.262 60.5238 381.88 60.3711 382.595 60.3711C383.279 60.3711 383.876 60.5238 384.386 60.8291C384.901 61.1344 385.3 61.5765 385.582 62.1553C385.869 62.7295 386.013 63.4245 386.013 64.2402ZM380.312 64.2402C380.312 64.8418 380.392 65.3636 380.551 65.8057C380.711 66.2477 380.957 66.5895 381.289 66.8311C381.622 67.0726 382.05 67.1934 382.575 67.1934C383.094 67.1934 383.52 67.0726 383.853 66.8311C384.19 66.5895 384.438 66.2477 384.598 65.8057C384.757 65.3636 384.837 64.8418 384.837 64.2402C384.837 63.6432 384.757 63.1283 384.598 62.6953C384.438 62.2578 384.192 61.9206 383.86 61.6836C383.527 61.4466 383.096 61.3281 382.568 61.3281C381.788 61.3281 381.216 61.5856 380.852 62.1006C380.492 62.6156 380.312 63.3288 380.312 64.2402ZM391.523 60.3711C392.411 60.3711 393.084 60.5898 393.539 61.0273C393.995 61.4603 394.223 62.1576 394.223 63.1191V68H393.102V63.1943C393.102 62.57 392.958 62.1029 392.671 61.793C392.389 61.4831 391.953 61.3281 391.366 61.3281C390.536 61.3281 389.953 61.5628 389.616 62.0322C389.278 62.5016 389.11 63.1829 389.11 64.0762V68H387.975V60.5078H388.891L389.062 61.5879H389.123C389.283 61.3236 389.486 61.1025 389.732 60.9248C389.978 60.7425 390.254 60.6058 390.559 60.5146C390.864 60.4189 391.186 60.3711 391.523 60.3711ZM404.641 58.8877C404.09 58.8877 403.593 58.9834 403.151 59.1748C402.713 59.3617 402.34 59.6351 402.03 59.9951C401.724 60.3506 401.49 60.7812 401.326 61.2871C401.161 61.793 401.079 62.3626 401.079 62.9961C401.079 63.8346 401.209 64.5638 401.469 65.1836C401.733 65.7988 402.125 66.2751 402.645 66.6123C403.169 66.9495 403.823 67.1182 404.607 67.1182C405.053 67.1182 405.473 67.0817 405.865 67.0088C406.261 66.9313 406.646 66.8356 407.02 66.7217V67.7334C406.655 67.8701 406.272 67.9704 405.871 68.0342C405.47 68.1025 404.994 68.1367 404.443 68.1367C403.426 68.1367 402.577 67.9271 401.893 67.5078C401.214 67.084 400.703 66.487 400.362 65.7168C400.024 64.9466 399.856 64.0374 399.856 62.9893C399.856 62.2327 399.961 61.5423 400.17 60.918C400.384 60.2891 400.694 59.7467 401.1 59.291C401.51 58.8353 402.011 58.4844 402.604 58.2383C403.201 57.9876 403.884 57.8623 404.655 57.8623C405.16 57.8623 405.648 57.9124 406.118 58.0127C406.587 58.113 407.011 58.2565 407.389 58.4434L406.924 59.4277C406.605 59.2819 406.254 59.1566 405.871 59.0518C405.493 58.9424 405.083 58.8877 404.641 58.8877ZM412.42 60.3711C412.571 60.3711 412.728 60.3802 412.892 60.3984C413.056 60.4121 413.202 60.4326 413.329 60.46L413.186 61.5127C413.063 61.4808 412.926 61.4557 412.776 61.4375C412.625 61.4193 412.484 61.4102 412.352 61.4102C412.051 61.4102 411.766 61.4717 411.497 61.5947C411.233 61.7132 411.001 61.8864 410.8 62.1143C410.6 62.3376 410.442 62.6087 410.328 62.9277C410.215 63.2422 410.158 63.5931 410.158 63.9805V68H409.016V60.5078H409.959L410.082 61.8887H410.13C410.285 61.6107 410.472 61.3577 410.691 61.1299C410.91 60.8975 411.162 60.7129 411.45 60.5762C411.741 60.4395 412.065 60.3711 412.42 60.3711ZM415.879 60.5078V68H414.744V60.5078H415.879ZM415.326 57.7051C415.512 57.7051 415.672 57.7666 415.804 57.8896C415.941 58.0081 416.009 58.195 416.009 58.4502C416.009 58.7008 415.941 58.8877 415.804 59.0107C415.672 59.1338 415.512 59.1953 415.326 59.1953C415.13 59.1953 414.966 59.1338 414.833 59.0107C414.706 58.8877 414.642 58.7008 414.642 58.4502C414.642 58.195 414.706 58.0081 414.833 57.8896C414.966 57.7666 415.13 57.7051 415.326 57.7051ZM420.705 67.207C420.892 67.207 421.084 67.1911 421.28 67.1592C421.476 67.1273 421.635 67.0885 421.758 67.043V67.9248C421.626 67.984 421.441 68.0342 421.204 68.0752C420.972 68.1162 420.744 68.1367 420.521 68.1367C420.124 68.1367 419.764 68.0684 419.441 67.9316C419.117 67.7904 418.857 67.5534 418.661 67.2207C418.47 66.888 418.374 66.4277 418.374 65.8398V61.3965H417.308V60.8428L418.381 60.3984L418.832 58.7715H419.516V60.5078H421.71V61.3965H419.516V65.8057C419.516 66.2751 419.623 66.626 419.837 66.8584C420.056 67.0908 420.345 67.207 420.705 67.207ZM426.16 60.3711C426.799 60.3711 427.345 60.5124 427.801 60.7949C428.257 61.0775 428.605 61.474 428.847 61.9844C429.089 62.4902 429.209 63.0827 429.209 63.7617V64.4658H424.035C424.048 65.3454 424.267 66.0153 424.691 66.4756C425.115 66.9359 425.712 67.166 426.482 67.166C426.956 67.166 427.375 67.1227 427.74 67.0361C428.104 66.9495 428.482 66.8219 428.874 66.6533V67.6514C428.496 67.82 428.12 67.943 427.746 68.0205C427.377 68.098 426.94 68.1367 426.434 68.1367C425.714 68.1367 425.085 67.9909 424.547 67.6992C424.014 67.403 423.599 66.9701 423.303 66.4004C423.007 65.8307 422.859 65.1335 422.859 64.3086C422.859 63.502 422.993 62.8047 423.262 62.2168C423.535 61.6243 423.918 61.1686 424.41 60.8496C424.907 60.5306 425.491 60.3711 426.16 60.3711ZM426.147 61.3008C425.541 61.3008 425.058 61.499 424.698 61.8955C424.338 62.292 424.123 62.8457 424.055 63.5566H428.02C428.015 63.11 427.945 62.7181 427.808 62.3809C427.676 62.0391 427.473 61.7747 427.2 61.5879C426.926 61.3965 426.575 61.3008 426.147 61.3008ZM434.541 60.3711C434.692 60.3711 434.849 60.3802 435.013 60.3984C435.177 60.4121 435.323 60.4326 435.451 60.46L435.307 61.5127C435.184 61.4808 435.047 61.4557 434.897 61.4375C434.746 61.4193 434.605 61.4102 434.473 61.4102C434.172 61.4102 433.887 61.4717 433.618 61.5947C433.354 61.7132 433.122 61.8864 432.921 62.1143C432.721 62.3376 432.563 62.6087 432.45 62.9277C432.336 63.2422 432.279 63.5931 432.279 63.9805V68H431.137V60.5078H432.08L432.203 61.8887H432.251C432.406 61.6107 432.593 61.3577 432.812 61.1299C433.031 60.8975 433.284 60.7129 433.571 60.5762C433.862 60.4395 434.186 60.3711 434.541 60.3711ZM438 60.5078V68H436.866V60.5078H438ZM437.447 57.7051C437.633 57.7051 437.793 57.7666 437.925 57.8896C438.062 58.0081 438.13 58.195 438.13 58.4502C438.13 58.7008 438.062 58.8877 437.925 59.0107C437.793 59.1338 437.633 59.1953 437.447 59.1953C437.251 59.1953 437.087 59.1338 436.954 59.0107C436.827 58.8877 436.763 58.7008 436.763 58.4502C436.763 58.195 436.827 58.0081 436.954 57.8896C437.087 57.7666 437.251 57.7051 437.447 57.7051ZM443.209 60.3848C444.103 60.3848 444.766 60.5853 445.199 60.9863C445.632 61.3874 445.848 62.0277 445.848 62.9072V68H445.021L444.802 66.8926H444.747C444.538 67.166 444.319 67.3962 444.091 67.583C443.863 67.7653 443.599 67.9043 443.298 68C443.002 68.0911 442.637 68.1367 442.204 68.1367C441.749 68.1367 441.343 68.057 440.988 67.8975C440.637 67.738 440.359 67.4964 440.154 67.1729C439.953 66.8493 439.853 66.4391 439.853 65.9424C439.853 65.195 440.149 64.6208 440.742 64.2197C441.334 63.8187 442.236 63.5999 443.449 63.5635L444.741 63.5088V63.0508C444.741 62.4036 444.602 61.9502 444.324 61.6904C444.046 61.4307 443.654 61.3008 443.148 61.3008C442.756 61.3008 442.382 61.3577 442.027 61.4717C441.671 61.5856 441.334 61.7201 441.015 61.875L440.666 61.0137C441.004 60.8405 441.391 60.6924 441.828 60.5693C442.266 60.4463 442.726 60.3848 443.209 60.3848ZM444.727 64.3086L443.585 64.3564C442.651 64.3929 441.993 64.5456 441.61 64.8145C441.227 65.0833 441.035 65.4639 441.035 65.9561C441.035 66.3844 441.165 66.7012 441.425 66.9062C441.685 67.1113 442.029 67.2139 442.457 67.2139C443.123 67.2139 443.667 67.0293 444.091 66.6602C444.515 66.291 444.727 65.7373 444.727 64.999V64.3086Z" fill="#F5FAFF"/>
<rect width="103.333" height="1" transform="translate(509.333 23.5)" fill="#2D344E"/>
<rect x="620.666" y="8" width="32" height="32" rx="16" fill="#52A6F8"/>
<path d="M639.674 21.7891C639.674 22.2402 639.583 22.6322 639.4 22.9648C639.218 23.2975 638.967 23.571 638.648 23.7852C638.334 23.9948 637.969 24.1452 637.555 24.2363V24.2842C638.352 24.3844 638.954 24.6351 639.359 25.0361C639.77 25.4372 639.975 25.9681 639.975 26.6289C639.975 27.2077 639.836 27.7249 639.558 28.1807C639.28 28.6318 638.854 28.9873 638.279 29.2471C637.705 29.5068 636.967 29.6367 636.064 29.6367C635.522 29.6367 635.019 29.5934 634.554 29.5068C634.093 29.4202 633.656 29.2812 633.241 29.0898V27.6611C633.665 27.8708 634.116 28.0326 634.595 28.1465C635.073 28.2604 635.527 28.3174 635.955 28.3174C636.789 28.3174 637.384 28.1624 637.739 27.8525C638.095 27.5381 638.272 27.1051 638.272 26.5537C638.272 26.1982 638.179 25.9066 637.992 25.6787C637.81 25.4508 637.525 25.2799 637.138 25.166C636.755 25.0521 636.26 24.9951 635.654 24.9951H634.772V23.7031H635.661C636.24 23.7031 636.705 23.6348 637.056 23.498C637.407 23.3568 637.66 23.1631 637.814 22.917C637.974 22.6709 638.054 22.3838 638.054 22.0557C638.054 21.6273 637.915 21.2946 637.637 21.0576C637.359 20.8161 636.946 20.6953 636.399 20.6953C636.062 20.6953 635.755 20.734 635.477 20.8115C635.203 20.889 634.95 20.987 634.718 21.1055C634.485 21.224 634.264 21.3516 634.055 21.4883L633.282 20.374C633.66 20.0915 634.112 19.8522 634.636 19.6562C635.16 19.4603 635.771 19.3623 636.468 19.3623C637.493 19.3623 638.284 19.5833 638.84 20.0254C639.396 20.4629 639.674 21.0508 639.674 21.7891Z" fill="#F5FAFF"/>
<rect width="103.333" height="1" transform="translate(660.666 23.5)" fill="#2D344E"/>
<path d="M612.317 65.3408C612.317 65.9333 612.169 66.4391 611.872 66.8584C611.581 67.2731 611.171 67.5898 610.642 67.8086C610.113 68.0273 609.491 68.1367 608.776 68.1367C608.397 68.1367 608.04 68.1185 607.702 68.082C607.365 68.0456 607.055 67.9932 606.773 67.9248C606.49 67.8564 606.242 67.7721 606.028 67.6719V66.5576C606.369 66.6989 606.786 66.8311 607.279 66.9541C607.771 67.0726 608.286 67.1318 608.824 67.1318C609.325 67.1318 609.749 67.0658 610.095 66.9336C610.441 66.7969 610.703 66.6032 610.881 66.3525C611.063 66.0973 611.155 65.792 611.155 65.4365C611.155 65.0947 611.079 64.8099 610.929 64.582C610.779 64.3496 610.528 64.14 610.177 63.9531C609.831 63.7617 609.357 63.5589 608.755 63.3447C608.331 63.1943 607.958 63.0303 607.634 62.8525C607.311 62.6702 607.039 62.4652 606.821 62.2373C606.602 62.0094 606.436 61.7451 606.322 61.4443C606.212 61.1436 606.158 60.7995 606.158 60.4121C606.158 59.8789 606.292 59.4232 606.561 59.0449C606.834 58.6621 607.21 58.3704 607.689 58.1699C608.172 57.9648 608.726 57.8623 609.35 57.8623C609.883 57.8623 610.375 57.9124 610.826 58.0127C611.282 58.113 611.699 58.2474 612.077 58.416L611.715 59.4141C611.355 59.2637 610.972 59.1383 610.567 59.0381C610.166 58.9378 609.751 58.8877 609.323 58.8877C608.894 58.8877 608.532 58.9515 608.236 59.0791C607.944 59.2021 607.721 59.3776 607.566 59.6055C607.411 59.8333 607.333 60.1045 607.333 60.4189C607.333 60.7699 607.406 61.0615 607.552 61.2939C607.702 61.5264 607.939 61.7337 608.263 61.916C608.591 62.0938 609.024 62.2806 609.562 62.4766C610.15 62.6908 610.649 62.9186 611.059 63.1602C611.469 63.3971 611.781 63.6888 611.995 64.0352C612.21 64.377 612.317 64.8122 612.317 65.3408ZM620.376 60.5078V68H619.447L619.283 66.9473H619.221C619.066 67.207 618.866 67.4258 618.619 67.6035C618.373 67.7812 618.095 67.9134 617.785 68C617.48 68.0911 617.154 68.1367 616.808 68.1367C616.215 68.1367 615.719 68.041 615.318 67.8496C614.917 67.6582 614.614 67.362 614.409 66.9609C614.208 66.5599 614.108 66.0449 614.108 65.416V60.5078H615.256V65.334C615.256 65.9583 615.397 66.4255 615.68 66.7354C615.963 67.0407 616.393 67.1934 616.972 67.1934C617.528 67.1934 617.97 67.0885 618.298 66.8789C618.631 66.6693 618.87 66.3617 619.016 65.9561C619.162 65.5459 619.235 65.0446 619.235 64.4521V60.5078H620.376ZM630.91 60.3711C631.735 60.3711 632.357 60.5876 632.777 61.0205C633.196 61.4489 633.406 62.1393 633.406 63.0918V68H632.285V63.1465C632.285 62.5404 632.152 62.0869 631.888 61.7861C631.628 61.4808 631.241 61.3281 630.726 61.3281C630.001 61.3281 629.475 61.5378 629.147 61.957C628.819 62.3763 628.655 62.9938 628.655 63.8096V68H627.527V63.1465C627.527 62.7409 627.467 62.4036 627.349 62.1348C627.235 61.8659 627.062 61.6654 626.829 61.5332C626.602 61.3965 626.312 61.3281 625.961 61.3281C625.465 61.3281 625.066 61.4307 624.765 61.6357C624.464 61.8408 624.245 62.1462 624.109 62.5518C623.977 62.9528 623.91 63.4473 623.91 64.0352V68H622.776V60.5078H623.692L623.863 61.5674H623.924C624.075 61.3076 624.264 61.0889 624.492 60.9111C624.719 60.7334 624.975 60.599 625.257 60.5078C625.54 60.4167 625.84 60.3711 626.16 60.3711C626.729 60.3711 627.205 60.4782 627.588 60.6924C627.976 60.902 628.256 61.2233 628.429 61.6562H628.491C628.737 61.2233 629.074 60.902 629.502 60.6924C629.931 60.4782 630.4 60.3711 630.91 60.3711ZM643.871 60.3711C644.696 60.3711 645.318 60.5876 645.738 61.0205C646.157 61.4489 646.367 62.1393 646.367 63.0918V68H645.245V63.1465C645.245 62.5404 645.113 62.0869 644.849 61.7861C644.589 61.4808 644.202 61.3281 643.687 61.3281C642.962 61.3281 642.436 61.5378 642.108 61.957C641.78 62.3763 641.616 62.9938 641.616 63.8096V68H640.488V63.1465C640.488 62.7409 640.428 62.4036 640.31 62.1348C640.196 61.8659 640.023 61.6654 639.79 61.5332C639.563 61.3965 639.273 61.3281 638.922 61.3281C638.425 61.3281 638.027 61.4307 637.726 61.6357C637.425 61.8408 637.206 62.1462 637.07 62.5518C636.938 62.9528 636.871 63.4473 636.871 64.0352V68H635.737V60.5078H636.653L636.824 61.5674H636.885C637.035 61.3076 637.225 61.0889 637.452 60.9111C637.68 60.7334 637.936 60.599 638.218 60.5078C638.501 60.4167 638.801 60.3711 639.12 60.3711C639.69 60.3711 640.166 60.4782 640.549 60.6924C640.937 60.902 641.217 61.2233 641.39 61.6562H641.451C641.698 61.2233 642.035 60.902 642.463 60.6924C642.892 60.4782 643.361 60.3711 643.871 60.3711ZM651.5 60.3848C652.394 60.3848 653.057 60.5853 653.49 60.9863C653.923 61.3874 654.139 62.0277 654.139 62.9072V68H653.312L653.093 66.8926H653.038C652.829 67.166 652.61 67.3962 652.382 67.583C652.154 67.7653 651.89 67.9043 651.589 68C651.293 68.0911 650.928 68.1367 650.495 68.1367C650.04 68.1367 649.634 68.057 649.279 67.8975C648.928 67.738 648.65 67.4964 648.445 67.1729C648.244 66.8493 648.144 66.4391 648.144 65.9424C648.144 65.195 648.44 64.6208 649.033 64.2197C649.625 63.8187 650.527 63.5999 651.74 63.5635L653.032 63.5088V63.0508C653.032 62.4036 652.893 61.9502 652.615 61.6904C652.337 61.4307 651.945 61.3008 651.439 61.3008C651.047 61.3008 650.673 61.3577 650.318 61.4717C649.962 61.5856 649.625 61.7201 649.306 61.875L648.957 61.0137C649.295 60.8405 649.682 60.6924 650.119 60.5693C650.557 60.4463 651.017 60.3848 651.5 60.3848ZM653.018 64.3086L651.876 64.3564C650.942 64.3929 650.284 64.5456 649.901 64.8145C649.518 65.0833 649.327 65.4639 649.327 65.9561C649.327 66.3844 649.456 66.7012 649.716 66.9062C649.976 67.1113 650.32 67.2139 650.748 67.2139C651.414 67.2139 651.958 67.0293 652.382 66.6602C652.806 66.291 653.018 65.7373 653.018 64.999V64.3086ZM659.881 60.3711C660.032 60.3711 660.189 60.3802 660.353 60.3984C660.517 60.4121 660.663 60.4326 660.79 60.46L660.647 61.5127C660.524 61.4808 660.387 61.4557 660.237 61.4375C660.086 61.4193 659.945 61.4102 659.813 61.4102C659.512 61.4102 659.227 61.4717 658.958 61.5947C658.694 61.7132 658.462 61.8864 658.261 62.1143C658.061 62.3376 657.903 62.6087 657.789 62.9277C657.675 63.2422 657.618 63.5931 657.618 63.9805V68H656.477V60.5078H657.42L657.543 61.8887H657.591C657.746 61.6107 657.933 61.3577 658.152 61.1299C658.37 60.8975 658.623 60.7129 658.91 60.5762C659.202 60.4395 659.526 60.3711 659.881 60.3711ZM661.023 60.5078H662.24L663.894 64.8555C663.99 65.1107 664.078 65.3568 664.16 65.5938C664.243 65.8262 664.315 66.0495 664.379 66.2637C664.443 66.4779 664.493 66.6852 664.53 66.8857H664.577C664.641 66.6579 664.732 66.3594 664.851 65.9902C664.969 65.6165 665.097 65.236 665.234 64.8486L666.799 60.5078H668.023L664.762 69.1006C664.589 69.5609 664.386 69.9619 664.154 70.3037C663.926 70.6455 663.648 70.9076 663.32 71.0898C662.992 71.2767 662.595 71.3701 662.13 71.3701C661.916 71.3701 661.727 71.3564 661.563 71.3291C661.399 71.3063 661.257 71.279 661.139 71.2471V70.3379C661.239 70.3607 661.36 70.3812 661.501 70.3994C661.647 70.4176 661.798 70.4268 661.952 70.4268C662.235 70.4268 662.479 70.3721 662.684 70.2627C662.894 70.1579 663.074 70.0029 663.224 69.7979C663.374 69.5928 663.504 69.349 663.614 69.0664L664.024 68.0137L661.023 60.5078Z" fill="#F5FAFF"/>
</svg>
